<?xml version="1.0" encoding="utf-8" standalone="no"?>
<!DOCTYPE svg PUBLIC "-//W3C//DTD SVG 1.1//EN"
  "http://www.w3.org/Graphics/SVG/1.1/DTD/svg11.dtd">
<svg xmlns:xlink="http://www.w3.org/1999/xlink" width="257.640625pt" height="262.19625pt" viewBox="0 0 257.640625 262.19625" xmlns="http://www.w3.org/2000/svg" version="1.1">
 <metadata>
  <rdf:RDF xmlns:dc="http://purl.org/dc/elements/1.1/" xmlns:cc="http://creativecommons.org/ns#" xmlns:rdf="http://www.w3.org/1999/02/22-rdf-syntax-ns#">
   <cc:Work>
    <dc:type rdf:resource="http://purl.org/dc/dcmitype/StillImage"/>
    <dc:date>2022-05-10T13:10:03.103898</dc:date>
    <dc:format>image/svg+xml</dc:format>
    <dc:creator>
     <cc:Agent>
      <dc:title>Matplotlib v3.5.0, https://matplotlib.org/</dc:title>
     </cc:Agent>
    </dc:creator>
   </cc:Work>
  </rdf:RDF>
 </metadata>
 <defs>
  <style type="text/css">*{stroke-linejoin: round; stroke-linecap: butt}</style>
 </defs>
 <g id="figure_1">
  <g id="patch_1">
   <path d="M 0 262.19625 
L 257.640625 262.19625 
L 257.640625 0 
L 0 0 
z
" style="fill: #ffffff"/>
  </g>
  <g id="axes_1">
   <g id="patch_2">
    <path d="M 20.878125 224.64 
L 244.078125 224.64 
L 244.078125 7.2 
L 20.878125 7.2 
z
" style="fill: #ffffff"/>
   </g>
   <g id="matplotlib.axis_1">
    <g id="xtick_1">
     <g id="line2d_1">
      <defs>
       <path id="mfbf4204514" d="M 0 0 
L 0 3.5 
" style="stroke: #000000; stroke-width: 0.8"/>
      </defs>
      <g>
       <use xlink:href="#mfbf4204514" x="20.878125" y="224.64" style="stroke: #000000; stroke-width: 0.8"/>
      </g>
     </g>
     <g id="text_1">
      <!-- 0 -->
      <g transform="translate(17.696875 239.238437)scale(0.1 -0.1)">
       <defs>
        <path id="DejaVuSans-30" d="M 2034 4250 
Q 1547 4250 1301 3770 
Q 1056 3291 1056 2328 
Q 1056 1369 1301 889 
Q 1547 409 2034 409 
Q 2525 409 2770 889 
Q 3016 1369 3016 2328 
Q 3016 3291 2770 3770 
Q 2525 4250 2034 4250 
z
M 2034 4750 
Q 2819 4750 3233 4129 
Q 3647 3509 3647 2328 
Q 3647 1150 3233 529 
Q 2819 -91 2034 -91 
Q 1250 -91 836 529 
Q 422 1150 422 2328 
Q 422 3509 836 4129 
Q 1250 4750 2034 4750 
z
" transform="scale(0.015625)"/>
       </defs>
       <use xlink:href="#DejaVuSans-30"/>
      </g>
     </g>
    </g>
    <g id="xtick_2">
     <g id="line2d_2">
      <g>
       <use xlink:href="#mfbf4204514" x="58.078125" y="224.64" style="stroke: #000000; stroke-width: 0.8"/>
      </g>
     </g>
     <g id="text_2">
      <!-- 10 -->
      <g transform="translate(51.715625 239.238437)scale(0.1 -0.1)">
       <defs>
        <path id="DejaVuSans-31" d="M 794 531 
L 1825 531 
L 1825 4091 
L 703 3866 
L 703 4441 
L 1819 4666 
L 2450 4666 
L 2450 531 
L 3481 531 
L 3481 0 
L 794 0 
L 794 531 
z
" transform="scale(0.015625)"/>
       </defs>
       <use xlink:href="#DejaVuSans-31"/>
       <use xlink:href="#DejaVuSans-30" x="63.623047"/>
      </g>
     </g>
    </g>
    <g id="xtick_3">
     <g id="line2d_3">
      <g>
       <use xlink:href="#mfbf4204514" x="95.278125" y="224.64" style="stroke: #000000; stroke-width: 0.8"/>
      </g>
     </g>
     <g id="text_3">
      <!-- 20 -->
      <g transform="translate(88.915625 239.238437)scale(0.1 -0.1)">
       <defs>
        <path id="DejaVuSans-32" d="M 1228 531 
L 3431 531 
L 3431 0 
L 469 0 
L 469 531 
Q 828 903 1448 1529 
Q 2069 2156 2228 2338 
Q 2531 2678 2651 2914 
Q 2772 3150 2772 3378 
Q 2772 3750 2511 3984 
Q 2250 4219 1831 4219 
Q 1534 4219 1204 4116 
Q 875 4013 500 3803 
L 500 4441 
Q 881 4594 1212 4672 
Q 1544 4750 1819 4750 
Q 2544 4750 2975 4387 
Q 3406 4025 3406 3419 
Q 3406 3131 3298 2873 
Q 3191 2616 2906 2266 
Q 2828 2175 2409 1742 
Q 1991 1309 1228 531 
z
" transform="scale(0.015625)"/>
       </defs>
       <use xlink:href="#DejaVuSans-32"/>
       <use xlink:href="#DejaVuSans-30" x="63.623047"/>
      </g>
     </g>
    </g>
    <g id="xtick_4">
     <g id="line2d_4">
      <g>
       <use xlink:href="#mfbf4204514" x="132.478125" y="224.64" style="stroke: #000000; stroke-width: 0.8"/>
      </g>
     </g>
     <g id="text_4">
      <!-- 30 -->
      <g transform="translate(126.115625 239.238437)scale(0.1 -0.1)">
       <defs>
        <path id="DejaVuSans-33" d="M 2597 2516 
Q 3050 2419 3304 2112 
Q 3559 1806 3559 1356 
Q 3559 666 3084 287 
Q 2609 -91 1734 -91 
Q 1441 -91 1130 -33 
Q 819 25 488 141 
L 488 750 
Q 750 597 1062 519 
Q 1375 441 1716 441 
Q 2309 441 2620 675 
Q 2931 909 2931 1356 
Q 2931 1769 2642 2001 
Q 2353 2234 1838 2234 
L 1294 2234 
L 1294 2753 
L 1863 2753 
Q 2328 2753 2575 2939 
Q 2822 3125 2822 3475 
Q 2822 3834 2567 4026 
Q 2313 4219 1838 4219 
Q 1578 4219 1281 4162 
Q 984 4106 628 3988 
L 628 4550 
Q 988 4650 1302 4700 
Q 1616 4750 1894 4750 
Q 2613 4750 3031 4423 
Q 3450 4097 3450 3541 
Q 3450 3153 3228 2886 
Q 3006 2619 2597 2516 
z
" transform="scale(0.015625)"/>
       </defs>
       <use xlink:href="#DejaVuSans-33"/>
       <use xlink:href="#DejaVuSans-30" x="63.623047"/>
      </g>
     </g>
    </g>
    <g id="xtick_5">
     <g id="line2d_5">
      <g>
       <use xlink:href="#mfbf4204514" x="169.678125" y="224.64" style="stroke: #000000; stroke-width: 0.8"/>
      </g>
     </g>
     <g id="text_5">
      <!-- 40 -->
      <g transform="translate(163.315625 239.238437)scale(0.1 -0.1)">
       <defs>
        <path id="DejaVuSans-34" d="M 2419 4116 
L 825 1625 
L 2419 1625 
L 2419 4116 
z
M 2253 4666 
L 3047 4666 
L 3047 1625 
L 3713 1625 
L 3713 1100 
L 3047 1100 
L 3047 0 
L 2419 0 
L 2419 1100 
L 313 1100 
L 313 1709 
L 2253 4666 
z
" transform="scale(0.015625)"/>
       </defs>
       <use xlink:href="#DejaVuSans-34"/>
       <use xlink:href="#DejaVuSans-30" x="63.623047"/>
      </g>
     </g>
    </g>
    <g id="xtick_6">
     <g id="line2d_6">
      <g>
       <use xlink:href="#mfbf4204514" x="206.878125" y="224.64" style="stroke: #000000; stroke-width: 0.8"/>
      </g>
     </g>
     <g id="text_6">
      <!-- 50 -->
      <g transform="translate(200.515625 239.238437)scale(0.1 -0.1)">
       <defs>
        <path id="DejaVuSans-35" d="M 691 4666 
L 3169 4666 
L 3169 4134 
L 1269 4134 
L 1269 2991 
Q 1406 3038 1543 3061 
Q 1681 3084 1819 3084 
Q 2600 3084 3056 2656 
Q 3513 2228 3513 1497 
Q 3513 744 3044 326 
Q 2575 -91 1722 -91 
Q 1428 -91 1123 -41 
Q 819 9 494 109 
L 494 744 
Q 775 591 1075 516 
Q 1375 441 1709 441 
Q 2250 441 2565 725 
Q 2881 1009 2881 1497 
Q 2881 1984 2565 2268 
Q 2250 2553 1709 2553 
Q 1456 2553 1204 2497 
Q 953 2441 691 2322 
L 691 4666 
z
" transform="scale(0.015625)"/>
       </defs>
       <use xlink:href="#DejaVuSans-35"/>
       <use xlink:href="#DejaVuSans-30" x="63.623047"/>
      </g>
     </g>
    </g>
    <g id="xtick_7">
     <g id="line2d_7">
      <g>
       <use xlink:href="#mfbf4204514" x="244.078125" y="224.64" style="stroke: #000000; stroke-width: 0.8"/>
      </g>
     </g>
     <g id="text_7">
      <!-- 60 -->
      <g transform="translate(237.715625 239.238437)scale(0.1 -0.1)">
       <defs>
        <path id="DejaVuSans-36" d="M 2113 2584 
Q 1688 2584 1439 2293 
Q 1191 2003 1191 1497 
Q 1191 994 1439 701 
Q 1688 409 2113 409 
Q 2538 409 2786 701 
Q 3034 994 3034 1497 
Q 3034 2003 2786 2293 
Q 2538 2584 2113 2584 
z
M 3366 4563 
L 3366 3988 
Q 3128 4100 2886 4159 
Q 2644 4219 2406 4219 
Q 1781 4219 1451 3797 
Q 1122 3375 1075 2522 
Q 1259 2794 1537 2939 
Q 1816 3084 2150 3084 
Q 2853 3084 3261 2657 
Q 3669 2231 3669 1497 
Q 3669 778 3244 343 
Q 2819 -91 2113 -91 
Q 1303 -91 875 529 
Q 447 1150 447 2328 
Q 447 3434 972 4092 
Q 1497 4750 2381 4750 
Q 2619 4750 2861 4703 
Q 3103 4656 3366 4563 
z
" transform="scale(0.015625)"/>
       </defs>
       <use xlink:href="#DejaVuSans-36"/>
       <use xlink:href="#DejaVuSans-30" x="63.623047"/>
      </g>
     </g>
    </g>
    <g id="text_8">
     <!-- 2 Theta / [°] -->
     <g transform="translate(102.120313 252.916562)scale(0.1 -0.1)">
      <defs>
       <path id="DejaVuSans-20" transform="scale(0.015625)"/>
       <path id="DejaVuSans-54" d="M -19 4666 
L 3928 4666 
L 3928 4134 
L 2272 4134 
L 2272 0 
L 1638 0 
L 1638 4134 
L -19 4134 
L -19 4666 
z
" transform="scale(0.015625)"/>
       <path id="DejaVuSans-68" d="M 3513 2113 
L 3513 0 
L 2938 0 
L 2938 2094 
Q 2938 2591 2744 2837 
Q 2550 3084 2163 3084 
Q 1697 3084 1428 2787 
Q 1159 2491 1159 1978 
L 1159 0 
L 581 0 
L 581 4863 
L 1159 4863 
L 1159 2956 
Q 1366 3272 1645 3428 
Q 1925 3584 2291 3584 
Q 2894 3584 3203 3211 
Q 3513 2838 3513 2113 
z
" transform="scale(0.015625)"/>
       <path id="DejaVuSans-65" d="M 3597 1894 
L 3597 1613 
L 953 1613 
Q 991 1019 1311 708 
Q 1631 397 2203 397 
Q 2534 397 2845 478 
Q 3156 559 3463 722 
L 3463 178 
Q 3153 47 2828 -22 
Q 2503 -91 2169 -91 
Q 1331 -91 842 396 
Q 353 884 353 1716 
Q 353 2575 817 3079 
Q 1281 3584 2069 3584 
Q 2775 3584 3186 3129 
Q 3597 2675 3597 1894 
z
M 3022 2063 
Q 3016 2534 2758 2815 
Q 2500 3097 2075 3097 
Q 1594 3097 1305 2825 
Q 1016 2553 972 2059 
L 3022 2063 
z
" transform="scale(0.015625)"/>
       <path id="DejaVuSans-74" d="M 1172 4494 
L 1172 3500 
L 2356 3500 
L 2356 3053 
L 1172 3053 
L 1172 1153 
Q 1172 725 1289 603 
Q 1406 481 1766 481 
L 2356 481 
L 2356 0 
L 1766 0 
Q 1100 0 847 248 
Q 594 497 594 1153 
L 594 3053 
L 172 3053 
L 172 3500 
L 594 3500 
L 594 4494 
L 1172 4494 
z
" transform="scale(0.015625)"/>
       <path id="DejaVuSans-61" d="M 2194 1759 
Q 1497 1759 1228 1600 
Q 959 1441 959 1056 
Q 959 750 1161 570 
Q 1363 391 1709 391 
Q 2188 391 2477 730 
Q 2766 1069 2766 1631 
L 2766 1759 
L 2194 1759 
z
M 3341 1997 
L 3341 0 
L 2766 0 
L 2766 531 
Q 2569 213 2275 61 
Q 1981 -91 1556 -91 
Q 1019 -91 701 211 
Q 384 513 384 1019 
Q 384 1609 779 1909 
Q 1175 2209 1959 2209 
L 2766 2209 
L 2766 2266 
Q 2766 2663 2505 2880 
Q 2244 3097 1772 3097 
Q 1472 3097 1187 3025 
Q 903 2953 641 2809 
L 641 3341 
Q 956 3463 1253 3523 
Q 1550 3584 1831 3584 
Q 2591 3584 2966 3190 
Q 3341 2797 3341 1997 
z
" transform="scale(0.015625)"/>
       <path id="DejaVuSans-2f" d="M 1625 4666 
L 2156 4666 
L 531 -594 
L 0 -594 
L 1625 4666 
z
" transform="scale(0.015625)"/>
       <path id="DejaVuSans-5b" d="M 550 4863 
L 1875 4863 
L 1875 4416 
L 1125 4416 
L 1125 -397 
L 1875 -397 
L 1875 -844 
L 550 -844 
L 550 4863 
z
" transform="scale(0.015625)"/>
       <path id="DejaVuSans-b0" d="M 1600 4347 
Q 1350 4347 1178 4173 
Q 1006 4000 1006 3750 
Q 1006 3503 1178 3333 
Q 1350 3163 1600 3163 
Q 1850 3163 2022 3333 
Q 2194 3503 2194 3750 
Q 2194 3997 2020 4172 
Q 1847 4347 1600 4347 
z
M 1600 4750 
Q 1800 4750 1984 4673 
Q 2169 4597 2303 4453 
Q 2447 4313 2519 4134 
Q 2591 3956 2591 3750 
Q 2591 3338 2302 3052 
Q 2013 2766 1594 2766 
Q 1172 2766 890 3047 
Q 609 3328 609 3750 
Q 609 4169 896 4459 
Q 1184 4750 1600 4750 
z
" transform="scale(0.015625)"/>
       <path id="DejaVuSans-5d" d="M 1947 4863 
L 1947 -844 
L 622 -844 
L 622 -397 
L 1369 -397 
L 1369 4416 
L 622 4416 
L 622 4863 
L 1947 4863 
z
" transform="scale(0.015625)"/>
      </defs>
      <use xlink:href="#DejaVuSans-32"/>
      <use xlink:href="#DejaVuSans-20" x="63.623047"/>
      <use xlink:href="#DejaVuSans-54" x="95.410156"/>
      <use xlink:href="#DejaVuSans-68" x="156.494141"/>
      <use xlink:href="#DejaVuSans-65" x="219.873047"/>
      <use xlink:href="#DejaVuSans-74" x="281.396484"/>
      <use xlink:href="#DejaVuSans-61" x="320.605469"/>
      <use xlink:href="#DejaVuSans-20" x="381.884766"/>
      <use xlink:href="#DejaVuSans-2f" x="413.671875"/>
      <use xlink:href="#DejaVuSans-20" x="447.363281"/>
      <use xlink:href="#DejaVuSans-5b" x="479.150391"/>
      <use xlink:href="#DejaVuSans-b0" x="518.164062"/>
      <use xlink:href="#DejaVuSans-5d" x="568.164062"/>
     </g>
    </g>
   </g>
   <g id="matplotlib.axis_2">
    <g id="text_9">
     <!-- Intensity / [a.u.] -->
     <g transform="translate(14.798438 155.8575)rotate(-90)scale(0.1 -0.1)">
      <defs>
       <path id="DejaVuSans-49" d="M 628 4666 
L 1259 4666 
L 1259 0 
L 628 0 
L 628 4666 
z
" transform="scale(0.015625)"/>
       <path id="DejaVuSans-6e" d="M 3513 2113 
L 3513 0 
L 2938 0 
L 2938 2094 
Q 2938 2591 2744 2837 
Q 2550 3084 2163 3084 
Q 1697 3084 1428 2787 
Q 1159 2491 1159 1978 
L 1159 0 
L 581 0 
L 581 3500 
L 1159 3500 
L 1159 2956 
Q 1366 3272 1645 3428 
Q 1925 3584 2291 3584 
Q 2894 3584 3203 3211 
Q 3513 2838 3513 2113 
z
" transform="scale(0.015625)"/>
       <path id="DejaVuSans-73" d="M 2834 3397 
L 2834 2853 
Q 2591 2978 2328 3040 
Q 2066 3103 1784 3103 
Q 1356 3103 1142 2972 
Q 928 2841 928 2578 
Q 928 2378 1081 2264 
Q 1234 2150 1697 2047 
L 1894 2003 
Q 2506 1872 2764 1633 
Q 3022 1394 3022 966 
Q 3022 478 2636 193 
Q 2250 -91 1575 -91 
Q 1294 -91 989 -36 
Q 684 19 347 128 
L 347 722 
Q 666 556 975 473 
Q 1284 391 1588 391 
Q 1994 391 2212 530 
Q 2431 669 2431 922 
Q 2431 1156 2273 1281 
Q 2116 1406 1581 1522 
L 1381 1569 
Q 847 1681 609 1914 
Q 372 2147 372 2553 
Q 372 3047 722 3315 
Q 1072 3584 1716 3584 
Q 2034 3584 2315 3537 
Q 2597 3491 2834 3397 
z
" transform="scale(0.015625)"/>
       <path id="DejaVuSans-69" d="M 603 3500 
L 1178 3500 
L 1178 0 
L 603 0 
L 603 3500 
z
M 603 4863 
L 1178 4863 
L 1178 4134 
L 603 4134 
L 603 4863 
z
" transform="scale(0.015625)"/>
       <path id="DejaVuSans-79" d="M 2059 -325 
Q 1816 -950 1584 -1140 
Q 1353 -1331 966 -1331 
L 506 -1331 
L 506 -850 
L 844 -850 
Q 1081 -850 1212 -737 
Q 1344 -625 1503 -206 
L 1606 56 
L 191 3500 
L 800 3500 
L 1894 763 
L 2988 3500 
L 3597 3500 
L 2059 -325 
z
" transform="scale(0.015625)"/>
       <path id="DejaVuSans-2e" d="M 684 794 
L 1344 794 
L 1344 0 
L 684 0 
L 684 794 
z
" transform="scale(0.015625)"/>
       <path id="DejaVuSans-75" d="M 544 1381 
L 544 3500 
L 1119 3500 
L 1119 1403 
Q 1119 906 1312 657 
Q 1506 409 1894 409 
Q 2359 409 2629 706 
Q 2900 1003 2900 1516 
L 2900 3500 
L 3475 3500 
L 3475 0 
L 2900 0 
L 2900 538 
Q 2691 219 2414 64 
Q 2138 -91 1772 -91 
Q 1169 -91 856 284 
Q 544 659 544 1381 
z
M 1991 3584 
L 1991 3584 
z
" transform="scale(0.015625)"/>
      </defs>
      <use xlink:href="#DejaVuSans-49"/>
      <use xlink:href="#DejaVuSans-6e" x="29.492188"/>
      <use xlink:href="#DejaVuSans-74" x="92.871094"/>
      <use xlink:href="#DejaVuSans-65" x="132.080078"/>
      <use xlink:href="#DejaVuSans-6e" x="193.603516"/>
      <use xlink:href="#DejaVuSans-73" x="256.982422"/>
      <use xlink:href="#DejaVuSans-69" x="309.082031"/>
      <use xlink:href="#DejaVuSans-74" x="336.865234"/>
      <use xlink:href="#DejaVuSans-79" x="376.074219"/>
      <use xlink:href="#DejaVuSans-20" x="435.253906"/>
      <use xlink:href="#DejaVuSans-2f" x="467.041016"/>
      <use xlink:href="#DejaVuSans-20" x="500.732422"/>
      <use xlink:href="#DejaVuSans-5b" x="532.519531"/>
      <use xlink:href="#DejaVuSans-61" x="571.533203"/>
      <use xlink:href="#DejaVuSans-2e" x="632.8125"/>
      <use xlink:href="#DejaVuSans-75" x="664.599609"/>
      <use xlink:href="#DejaVuSans-2e" x="727.978516"/>
      <use xlink:href="#DejaVuSans-5d" x="759.765625"/>
     </g>
    </g>
   </g>
   <g id="line2d_8">
    <path d="M 37.618125 220.965264 
L 37.673925 220.72608 
L 37.785525 221.117472 
L 37.841325 220.72608 
L 37.897125 220.791312 
L 37.952925 221.139216 
L 38.008725 220.791312 
L 38.176125 220.443408 
L 38.231925 220.791312 
L 38.287725 220.530384 
L 38.343525 220.573872 
L 38.622525 221.291424 
L 38.845725 220.530384 
L 38.957325 221.356656 
L 39.013125 220.900032 
L 39.068925 220.8348 
L 39.180525 221.204448 
L 39.292125 220.595616 
L 39.347925 220.704336 
L 39.403725 220.921776 
L 39.459525 220.900032 
L 39.626925 220.660848 
L 39.682725 220.61736 
L 39.738525 220.921776 
L 39.794325 220.878288 
L 39.850125 220.486896 
L 39.905925 220.900032 
L 39.961725 220.573872 
L 40.017525 220.595616 
L 40.129125 220.117248 
L 40.240725 220.443408 
L 40.352325 220.204224 
L 40.463925 221.139216 
L 40.631325 220.595616 
L 40.742925 221.008752 
L 40.910325 220.552128 
L 40.966125 220.573872 
L 41.077725 221.226192 
L 41.133525 220.72608 
L 41.189325 220.747824 
L 41.300925 221.247936 
L 41.412525 221.030496 
L 41.468325 220.552128 
L 41.524125 220.639104 
L 41.579925 220.769568 
L 41.635725 220.682592 
L 41.691525 220.486896 
L 41.747325 221.008752 
L 41.803125 220.791312 
L 41.858925 220.443408 
L 41.914725 220.595616 
L 42.026325 221.117472 
L 42.193725 220.660848 
L 42.361125 221.16096 
L 42.528525 220.921776 
L 42.640125 221.05224 
L 42.695925 220.921776 
L 42.751725 220.921776 
L 42.807525 220.682592 
L 43.030725 221.421888 
L 43.142325 220.900032 
L 43.309725 221.3784 
L 43.421325 220.813056 
L 43.477125 221.16096 
L 43.532925 220.878288 
L 43.644525 221.05224 
L 43.811925 220.813056 
L 43.867725 221.073984 
L 43.923525 220.813056 
L 44.035125 220.486896 
L 44.258325 220.987008 
L 44.369925 220.769568 
L 44.537325 221.247936 
L 44.704725 220.660848 
L 44.872125 221.05224 
L 44.927925 221.356656 
L 45.039525 220.378176 
L 45.095325 220.421664 
L 45.206925 220.660848 
L 45.262725 220.61736 
L 45.374325 220.356432 
L 45.430125 220.50864 
L 45.541725 220.573872 
L 45.653325 220.18248 
L 45.709125 220.530384 
L 45.764925 220.356432 
L 45.876525 220.247712 
L 45.932325 219.53016 
L 45.988125 219.660624 
L 46.155525 219.247488 
L 46.322925 217.660176 
L 46.490325 215.83368 
L 46.936725 205.635744 
L 47.327325 181.826064 
L 47.550525 147.035664 
L 47.773725 67.387392 
L 47.829525 86.23944 
L 48.052725 210.528144 
L 48.275925 218.073312 
L 48.331725 217.703664 
L 48.443325 218.856096 
L 48.499125 217.68192 
L 48.554925 217.834128 
L 48.610725 218.1168 
L 48.722325 216.094608 
L 48.778125 216.26856 
L 48.833925 216.355536 
L 49.336125 202.982976 
L 49.559325 189.349488 
L 49.670925 175.38984 
L 49.894125 122.55192 
L 49.949925 136.098432 
L 50.173125 213.98544 
L 50.340525 217.594944 
L 50.842725 221.117472 
L 50.898525 220.334688 
L 50.954325 220.639104 
L 51.177525 221.3784 
L 51.233325 220.595616 
L 51.289125 220.769568 
L 51.344925 220.747824 
L 51.456525 221.117472 
L 51.512325 221.008752 
L 51.568125 221.204448 
L 51.623925 220.878288 
L 51.679725 221.356656 
L 51.735525 220.965264 
L 51.958725 221.334912 
L 52.070325 220.987008 
L 52.237725 221.443632 
L 52.293525 220.921776 
L 52.349325 221.073984 
L 52.405125 221.3784 
L 52.460925 221.182704 
L 52.628325 221.073984 
L 52.684125 221.617584 
L 52.739925 221.313168 
L 52.907325 220.682592 
L 52.963125 220.813056 
L 53.018925 220.94352 
L 53.074725 220.595616 
L 53.130525 221.16096 
L 53.186325 221.139216 
L 53.242125 220.94352 
L 53.353725 221.291424 
L 53.409525 221.073984 
L 53.465325 221.139216 
L 53.632725 221.313168 
L 53.688525 220.94352 
L 53.744325 221.26968 
L 53.855925 220.769568 
L 53.911725 220.900032 
L 53.967525 221.247936 
L 54.023325 221.226192 
L 54.134925 221.073984 
L 54.302325 221.3784 
L 54.581325 220.61736 
L 54.804525 221.334912 
L 55.027725 220.639104 
L 55.139325 221.05224 
L 55.195125 220.573872 
L 55.250925 221.05224 
L 55.418325 221.334912 
L 55.474125 221.400144 
L 55.529925 220.921776 
L 55.585725 221.16096 
L 55.641525 221.421888 
L 55.697325 221.3784 
L 55.753125 220.704336 
L 55.808925 221.030496 
L 55.864725 221.682816 
L 55.920525 221.400144 
L 55.976325 221.204448 
L 56.032125 221.443632 
L 56.199525 221.05224 
L 56.311125 220.856544 
L 56.366925 221.26968 
L 56.422725 221.030496 
L 56.478525 221.030496 
L 56.590125 220.769568 
L 56.645925 221.117472 
L 56.701725 220.94352 
L 56.813325 221.117472 
L 56.924925 220.813056 
L 56.980725 221.16096 
L 57.036525 220.965264 
L 57.092325 221.05224 
L 57.259725 220.095504 
L 57.427125 220.965264 
L 57.482925 221.05224 
L 57.706125 219.682368 
L 57.761925 219.225744 
L 57.817725 220.18248 
L 57.873525 219.878064 
L 58.375725 214.181136 
L 58.487325 211.354416 
L 58.598925 213.941952 
L 58.766325 218.943072 
L 58.877925 219.63888 
L 58.933725 219.617136 
L 59.101125 219.334464 
L 59.212725 219.508416 
L 59.268525 219.31272 
L 59.435925 217.942848 
L 59.491725 217.986336 
L 59.547525 218.073312 
L 59.770725 220.39992 
L 59.882325 220.138992 
L 59.993925 220.61736 
L 60.217125 219.921552 
L 60.272925 219.943296 
L 60.719325 216.899136 
L 60.775125 217.051344 
L 60.830925 217.812384 
L 60.886725 217.768896 
L 61.054125 216.094608 
L 61.165725 213.44184 
L 61.221525 213.463584 
L 61.333125 215.529264 
L 61.556325 220.204224 
L 61.723725 219.247488 
L 61.835325 220.50864 
L 61.891125 220.008528 
L 61.946925 220.50864 
L 62.002725 220.269456 
L 62.058525 220.378176 
L 62.225925 220.921776 
L 62.281725 220.856544 
L 62.393325 220.791312 
L 62.449125 220.791312 
L 62.616525 220.94352 
L 62.672325 220.204224 
L 62.728125 221.030496 
L 62.783925 220.573872 
L 62.895525 220.486896 
L 63.007125 220.747824 
L 63.062925 220.50864 
L 63.230325 220.987008 
L 63.286125 221.008752 
L 63.341925 221.552352 
L 63.397725 221.226192 
L 63.453525 220.747824 
L 63.509325 221.182704 
L 63.565125 221.095728 
L 63.620925 221.139216 
L 63.732525 221.291424 
L 64.011525 220.682592 
L 64.123125 221.334912 
L 64.178925 221.117472 
L 64.234725 220.900032 
L 64.346325 221.574096 
L 64.736925 220.639104 
L 64.792725 221.182704 
L 64.848525 221.030496 
L 65.015925 221.334912 
L 65.127525 220.682592 
L 65.239125 221.574096 
L 65.406525 220.813056 
L 65.518125 221.05224 
L 65.629725 220.72608 
L 65.685525 221.16096 
L 65.741325 220.878288 
L 65.908725 220.443408 
L 65.964525 220.443408 
L 66.076125 219.791088 
L 66.243525 219.051792 
L 66.355125 218.638656 
L 66.689925 221.226192 
L 66.745725 221.008752 
L 66.801525 221.095728 
L 66.857325 221.26968 
L 67.024725 220.8348 
L 67.080525 221.117472 
L 67.136325 221.030496 
L 67.359525 220.552128 
L 67.582725 220.900032 
L 67.917525 219.486672 
L 68.084925 216.92088 
L 68.252325 217.747152 
L 68.475525 214.246368 
L 68.698725 206.331552 
L 68.754525 206.59248 
L 69.033525 219.508416 
L 69.089325 219.334464 
L 69.145125 219.399696 
L 69.368325 220.856544 
L 69.479925 220.052016 
L 69.535725 220.356432 
L 69.647325 220.747824 
L 69.758925 220.595616 
L 69.926325 219.508416 
L 69.982125 219.595392 
L 70.205325 219.09528 
L 70.428525 220.334688 
L 70.763325 215.551008 
L 70.874925 213.398352 
L 70.930725 213.572304 
L 71.209725 218.138544 
L 71.265525 218.1168 
L 71.321325 218.290752 
L 71.600325 211.963248 
L 71.767725 203.352624 
L 71.823525 205.374816 
L 72.102525 220.225968 
L 72.158325 219.464928 
L 72.269925 220.39992 
L 72.325725 219.986784 
L 72.381525 220.008528 
L 72.604725 221.008752 
L 72.660525 220.61736 
L 72.716325 220.94352 
L 72.772125 220.660848 
L 72.939525 221.508864 
L 72.995325 220.878288 
L 73.051125 221.182704 
L 73.162725 220.856544 
L 73.218525 220.965264 
L 73.330125 221.226192 
L 73.553325 219.834576 
L 73.609125 219.595392 
L 73.776525 220.61736 
L 73.832325 220.07376 
L 73.888125 220.204224 
L 73.943925 220.247712 
L 73.999725 220.704336 
L 74.055525 220.50864 
L 74.278725 219.617136 
L 74.334525 219.31272 
L 74.390325 219.377952 
L 74.501925 219.85632 
L 74.557725 219.464928 
L 74.613525 219.573648 
L 74.669325 219.7476 
L 74.725125 219.595392 
L 74.780925 218.682144 
L 74.836725 219.138768 
L 74.948325 219.986784 
L 75.171525 221.356656 
L 75.227325 221.291424 
L 75.283125 221.356656 
L 75.338925 221.682816 
L 75.394725 221.421888 
L 75.562125 221.443632 
L 75.673725 221.095728 
L 75.729525 221.3784 
L 75.785325 220.769568 
L 75.841125 221.313168 
L 75.896925 221.008752 
L 75.952725 221.313168 
L 76.064325 220.573872 
L 76.120125 220.2912 
L 76.175925 220.639104 
L 76.510725 215.50752 
L 76.957125 201.15648 
L 77.012925 203.156928 
L 77.291925 218.834352 
L 77.459325 220.856544 
L 77.515125 220.747824 
L 77.570925 219.986784 
L 77.626725 220.530384 
L 77.794125 219.986784 
L 77.849925 219.85632 
L 78.184725 215.83368 
L 78.240525 214.398576 
L 78.296325 215.3988 
L 78.519525 220.356432 
L 78.575325 220.552128 
L 78.631125 220.39992 
L 78.686925 220.486896 
L 78.965925 219.508416 
L 79.021725 219.399696 
L 79.133325 220.117248 
L 79.412325 217.68192 
L 79.579725 213.854976 
L 79.635525 213.941952 
L 79.691325 213.267888 
L 79.747125 214.20288 
L 79.802925 213.898464 
L 79.858725 213.833232 
L 80.026125 215.9424 
L 80.081925 215.811936 
L 80.305125 211.289184 
L 80.360925 211.876272 
L 80.695725 220.791312 
L 80.751525 221.182704 
L 80.918925 220.356432 
L 80.974725 220.878288 
L 81.030525 220.443408 
L 81.197925 220.61736 
L 81.532725 219.290976 
L 81.700125 216.029376 
L 81.811725 212.24592 
L 82.146525 183.348144 
L 82.202325 187.631712 
L 82.425525 206.222832 
L 82.481325 205.918416 
L 82.648725 198.677664 
L 82.704525 200.025792 
L 83.039325 218.529936 
L 83.150925 220.378176 
L 83.206725 219.921552 
L 83.262525 219.617136 
L 83.374125 220.61736 
L 83.429925 220.552128 
L 83.653125 219.551904 
L 83.764725 220.2912 
L 84.043725 218.899584 
L 84.099525 219.008304 
L 84.266925 216.59472 
L 84.490125 209.52792 
L 84.992325 220.72608 
L 85.271325 221.726304 
L 85.327125 221.16096 
L 85.382925 221.204448 
L 85.494525 221.3784 
L 85.606125 221.008752 
L 85.661925 221.26968 
L 85.717725 220.987008 
L 85.885125 221.81328 
L 85.940925 221.726304 
L 85.996725 221.81328 
L 86.052525 221.856768 
L 86.108325 222.095952 
L 86.164125 221.726304 
L 86.219925 221.791536 
L 86.387325 221.900256 
L 86.498925 221.465376 
L 86.554725 221.70456 
L 86.666325 221.139216 
L 86.722125 221.334912 
L 86.777925 221.291424 
L 86.889525 220.312944 
L 86.945325 220.50864 
L 87.280125 221.617584 
L 87.335925 221.226192 
L 87.391725 221.421888 
L 87.503325 221.574096 
L 87.614925 221.073984 
L 87.670725 221.465376 
L 87.726525 221.400144 
L 87.782325 221.3784 
L 87.838125 221.59584 
L 87.893925 220.813056 
L 87.949725 221.139216 
L 88.005525 221.05224 
L 88.228725 218.725632 
L 88.507725 212.506848 
L 88.675125 203.483088 
L 88.786725 199.482192 
L 89.009925 201.765312 
L 89.288925 187.196832 
L 89.679525 217.768896 
L 89.735325 218.312496 
L 89.791125 218.182032 
L 89.846925 217.986336 
L 90.014325 219.225744 
L 90.125925 220.052016 
L 90.404925 218.1168 
L 90.460725 217.768896 
L 90.628125 211.658832 
L 90.795525 204.874704 
L 90.851325 205.0704 
L 91.130325 215.311824 
L 91.186125 214.42032 
L 91.520925 201.874032 
L 91.911525 219.464928 
L 91.967325 219.42144 
L 92.023125 219.247488 
L 92.357925 220.747824 
L 92.413725 220.704336 
L 92.469525 221.247936 
L 92.525325 220.8348 
L 92.581125 221.226192 
L 92.636925 221.05224 
L 92.692725 220.573872 
L 92.748525 220.921776 
L 92.804325 220.682592 
L 92.860125 220.878288 
L 92.971725 221.421888 
L 93.027525 220.595616 
L 93.083325 220.72608 
L 93.250725 221.465376 
L 93.306525 221.334912 
L 93.529725 220.50864 
L 93.641325 221.073984 
L 93.697125 221.030496 
L 93.920325 220.72608 
L 93.976125 220.921776 
L 94.255125 219.682368 
L 94.589925 211.680576 
L 94.924725 187.262064 
L 94.980525 189.284256 
L 95.259525 207.02736 
L 95.315325 206.505504 
L 95.371125 205.657488 
L 95.873325 216.746928 
L 96.096525 218.508192 
L 96.152325 218.377728 
L 96.319725 216.138096 
L 96.542925 213.11568 
L 96.598725 212.941728 
L 96.877725 217.768896 
L 96.933525 217.68192 
L 96.989325 217.79064 
L 97.100925 216.37728 
L 97.379925 208.136304 
L 97.435725 209.614896 
L 97.714725 217.986336 
L 97.882125 219.030048 
L 98.105325 217.225296 
L 98.216925 214.572528 
L 98.440125 208.527696 
L 98.495925 209.027808 
L 98.607525 211.506624 
L 98.830725 218.464704 
L 98.886525 218.943072 
L 98.942325 218.616912 
L 99.053925 218.051568 
L 99.221325 218.682144 
L 99.388725 217.377504 
L 99.556125 213.050448 
L 99.723525 206.309808 
L 99.835125 207.527472 
L 100.114125 215.007408 
L 100.169925 214.137648 
L 100.225725 214.246368 
L 100.504725 217.616688 
L 100.727925 212.224176 
L 100.951125 206.462016 
L 101.006925 207.397008 
L 101.285925 218.247264 
L 101.676525 219.791088 
L 102.122925 213.65928 
L 102.234525 215.637984 
L 102.513525 220.269456 
L 102.625125 220.421664 
L 102.848325 219.31272 
L 102.904125 219.573648 
L 102.959925 219.486672 
L 103.015725 219.269232 
L 103.294725 221.465376 
L 103.350525 221.465376 
L 103.406325 221.117472 
L 103.573725 221.639328 
L 103.629525 221.59584 
L 103.685325 222.095952 
L 103.741125 221.965488 
L 103.796925 222.03072 
L 103.964325 221.530608 
L 104.020125 222.074208 
L 104.075925 221.769792 
L 104.131725 221.748048 
L 104.299125 222.378624 
L 104.354925 222.291648 
L 104.466525 222.226416 
L 104.522325 222.400368 
L 104.578125 222.269904 
L 104.633925 222.378624 
L 104.745525 221.987232 
L 104.801325 222.117696 
L 104.912925 221.70456 
L 104.968725 222.161184 
L 105.024525 222.03072 
L 105.136125 222.03072 
L 105.191925 222.335136 
L 105.247725 221.835024 
L 105.303525 222.095952 
L 105.359325 222.313392 
L 105.582525 221.465376 
L 105.749925 222.117696 
L 105.805725 222.117696 
L 105.917325 221.421888 
L 105.973125 221.530608 
L 106.028925 221.400144 
L 106.419525 221.878512 
L 106.475325 221.661072 
L 106.531125 221.769792 
L 106.586925 221.943744 
L 106.642725 221.356656 
L 106.698525 221.639328 
L 106.865925 221.617584 
L 106.921725 221.70456 
L 106.977525 221.356656 
L 107.033325 221.552352 
L 107.089125 221.965488 
L 107.144925 221.748048 
L 107.200725 221.530608 
L 107.256525 221.835024 
L 107.312325 221.639328 
L 107.758725 219.399696 
L 107.981925 221.139216 
L 108.260925 221.769792 
L 108.316725 221.443632 
L 108.428325 222.008976 
L 108.484125 221.878512 
L 108.539925 221.835024 
L 108.595725 222.03072 
L 108.651525 221.59584 
L 108.707325 221.617584 
L 108.818925 221.922 
L 109.042125 221.291424 
L 109.097925 221.334912 
L 109.153725 221.530608 
L 109.209525 220.921776 
L 109.265325 221.117472 
L 109.321125 221.073984 
L 109.488525 220.486896 
L 109.600125 220.8348 
L 109.823325 219.725856 
L 110.158125 214.007184 
L 110.437125 218.051568 
L 110.492925 218.573424 
L 110.548725 218.421216 
L 110.604525 217.486224 
L 110.660325 217.79064 
L 110.716125 217.834128 
L 110.771925 218.095056 
L 110.995125 220.8348 
L 111.050925 220.72608 
L 111.162525 221.095728 
L 111.218325 220.747824 
L 111.274125 220.8348 
L 111.329925 221.030496 
L 111.497325 220.269456 
L 111.553125 220.39992 
L 111.776325 218.638656 
L 111.832125 218.203776 
L 112.222725 206.91864 
L 112.334325 201.091248 
L 112.390125 201.48264 
L 112.780725 219.269232 
L 112.836525 219.008304 
L 112.948125 218.22552 
L 113.282925 215.985888 
L 113.506125 218.856096 
L 113.561925 219.225744 
L 113.785125 215.898912 
L 113.840925 215.703216 
L 113.952525 217.312272 
L 114.175725 220.07376 
L 114.343125 220.965264 
L 114.398925 221.139216 
L 114.454725 221.073984 
L 114.566325 220.334688 
L 114.677925 220.704336 
L 114.733725 220.117248 
L 114.789525 220.2912 
L 114.845325 220.486896 
L 114.901125 219.921552 
L 114.956925 220.269456 
L 115.068525 220.378176 
L 115.124325 220.94352 
L 115.180125 220.312944 
L 115.235925 220.573872 
L 115.291725 220.769568 
L 115.682325 218.76912 
L 115.793925 217.312272 
L 115.849725 217.79064 
L 116.072925 219.96504 
L 116.240325 220.50864 
L 116.296125 220.39992 
L 116.407725 220.704336 
L 116.575125 218.812608 
L 116.630925 219.030048 
L 116.965725 211.81104 
L 117.021525 211.941504 
L 117.523725 220.095504 
L 117.802725 221.05224 
L 117.914325 220.747824 
L 117.970125 220.987008 
L 118.025925 220.39992 
L 118.081725 220.94352 
L 118.137525 220.573872 
L 118.249125 221.226192 
L 118.304925 221.05224 
L 118.360725 221.05224 
L 118.416525 220.921776 
L 118.472325 221.095728 
L 118.528125 221.008752 
L 118.862925 219.769344 
L 118.918725 219.96504 
L 118.974525 219.682368 
L 119.030325 219.834576 
L 119.141925 221.073984 
L 119.197725 220.639104 
L 119.253525 220.94352 
L 119.309325 220.8348 
L 119.365125 220.421664 
L 119.420925 220.704336 
L 119.476725 220.8348 
L 119.644125 219.791088 
L 120.034725 206.679456 
L 120.090525 206.91864 
L 120.425325 219.704112 
L 120.481125 220.095504 
L 120.536925 219.878064 
L 120.760125 219.486672 
L 120.983325 218.486448 
L 121.150725 216.551232 
L 121.373925 213.311376 
L 121.987725 219.921552 
L 122.043525 220.269456 
L 122.099325 219.943296 
L 122.155125 219.921552 
L 122.434125 219.160512 
L 122.657325 212.071968 
L 122.880525 204.439824 
L 122.936325 204.679008 
L 123.215325 216.986112 
L 123.326925 216.725184 
L 123.494325 214.376832 
L 123.550125 214.659504 
L 123.661725 216.029376 
L 123.773325 215.442288 
L 123.829125 215.572752 
L 123.940725 214.876944 
L 124.498725 220.61736 
L 124.554525 220.61736 
L 124.610325 220.443408 
L 124.777725 221.3784 
L 124.833525 221.117472 
L 124.889325 221.639328 
L 124.945125 221.334912 
L 125.000925 221.530608 
L 125.224125 220.72608 
L 125.279925 220.747824 
L 125.335725 220.965264 
L 125.391525 220.552128 
L 125.447325 220.921776 
L 125.670525 221.400144 
L 125.726325 221.334912 
L 125.837925 221.182704 
L 125.893725 221.226192 
L 126.005325 221.291424 
L 126.116925 220.269456 
L 126.340125 220.921776 
L 126.507525 220.312944 
L 126.563325 220.356432 
L 126.619125 220.07376 
L 126.674925 220.117248 
L 126.730725 220.138992 
L 126.786525 219.725856 
L 126.842325 220.117248 
L 126.953925 221.008752 
L 127.009725 220.965264 
L 127.065525 221.617584 
L 127.121325 221.530608 
L 127.177125 220.965264 
L 127.232925 221.117472 
L 127.400325 220.921776 
L 127.456125 220.987008 
L 127.623525 219.96504 
L 127.679325 220.138992 
L 127.735125 220.94352 
L 127.790925 220.813056 
L 127.902525 220.61736 
L 128.069925 221.639328 
L 128.125725 221.291424 
L 128.181525 221.334912 
L 128.237325 222.052464 
L 128.293125 221.70456 
L 128.348925 221.639328 
L 128.404725 222.13944 
L 128.460525 221.59584 
L 128.516325 221.639328 
L 128.572125 221.748048 
L 128.906925 219.921552 
L 129.185925 221.726304 
L 129.241725 221.508864 
L 129.297525 221.835024 
L 129.353325 221.421888 
L 129.409125 221.748048 
L 129.464925 222.008976 
L 129.520725 221.748048 
L 129.576525 221.965488 
L 129.632325 221.835024 
L 129.688125 221.530608 
L 129.743925 221.70456 
L 129.967125 221.226192 
L 130.078725 221.748048 
L 130.190325 221.226192 
L 130.246125 221.400144 
L 130.301925 221.70456 
L 130.357725 221.617584 
L 130.413525 221.421888 
L 130.636725 222.378624 
L 130.859925 221.639328 
L 130.971525 221.965488 
L 131.027325 221.900256 
L 131.083125 221.639328 
L 131.138925 221.878512 
L 131.306325 221.856768 
L 131.362125 222.117696 
L 131.417925 221.856768 
L 131.473725 221.965488 
L 131.529525 222.422112 
L 131.585325 222.182928 
L 131.641125 221.943744 
L 131.696925 222.204672 
L 131.752725 221.987232 
L 131.808525 222.03072 
L 131.864325 222.335136 
L 131.975925 221.835024 
L 132.087525 222.24816 
L 132.254925 221.204448 
L 132.310725 221.726304 
L 132.366525 221.726304 
L 132.422325 222.074208 
L 132.478125 221.856768 
L 132.701325 221.748048 
L 132.757125 221.965488 
L 132.812925 221.81328 
L 132.868725 221.682816 
L 132.924525 222.269904 
L 132.980325 222.074208 
L 133.259325 221.530608 
L 133.426725 222.117696 
L 133.538325 221.291424 
L 133.594125 221.59584 
L 133.649925 220.552128 
L 133.705725 220.921776 
L 133.817325 220.660848 
L 134.040525 219.31272 
L 134.096325 219.160512 
L 134.152125 219.204 
L 134.375325 221.3784 
L 134.431125 221.030496 
L 134.598525 221.247936 
L 134.765925 220.72608 
L 134.821725 220.39992 
L 134.989125 221.400144 
L 135.100725 221.965488 
L 135.156525 221.835024 
L 135.212325 221.574096 
L 135.268125 221.791536 
L 135.547125 222.117696 
L 135.714525 221.900256 
L 135.770325 221.48712 
L 135.826125 221.769792 
L 135.881925 221.791536 
L 135.937725 221.421888 
L 135.993525 221.639328 
L 136.049325 221.922 
L 136.328325 219.769344 
L 136.384125 219.704112 
L 136.439925 219.182256 
L 136.495725 219.443184 
L 136.551525 219.53016 
L 136.607325 218.921328 
L 136.663125 219.225744 
L 136.774725 219.7476 
L 136.830525 219.334464 
L 136.997925 220.465152 
L 137.165325 221.639328 
L 137.276925 221.16096 
L 137.332725 221.552352 
L 137.388525 221.443632 
L 137.444325 221.313168 
L 137.555925 221.900256 
L 137.723325 220.682592 
L 137.779125 220.813056 
L 137.834925 220.900032 
L 138.002325 220.225968 
L 138.058125 220.269456 
L 138.225525 221.117472 
L 138.281325 220.856544 
L 138.448725 221.748048 
L 138.504525 221.400144 
L 138.560325 221.530608 
L 138.950925 220.878288 
L 139.006725 220.94352 
L 139.118325 221.030496 
L 139.229925 220.878288 
L 139.285725 221.226192 
L 139.341525 220.878288 
L 139.508925 219.85632 
L 139.564725 220.421664 
L 139.620525 220.247712 
L 139.732125 219.399696 
L 139.787925 219.53016 
L 139.843725 220.225968 
L 139.899525 219.943296 
L 139.955325 219.617136 
L 140.011125 219.85632 
L 140.066925 220.595616 
L 140.122725 220.50864 
L 140.178525 220.312944 
L 140.290125 221.530608 
L 140.345925 220.965264 
L 140.401725 221.421888 
L 140.457525 221.835024 
L 140.513325 221.639328 
L 140.569125 221.639328 
L 140.624925 221.247936 
L 140.680725 221.835024 
L 140.736525 221.334912 
L 140.792325 221.095728 
L 140.848125 221.356656 
L 140.903925 221.139216 
L 141.182925 220.030272 
L 141.852525 222.117696 
L 141.964125 221.465376 
L 142.019925 221.639328 
L 142.075725 221.726304 
L 142.187325 221.05224 
L 142.243125 221.204448 
L 142.298925 221.421888 
L 142.354725 221.226192 
L 142.410525 221.030496 
L 142.466325 221.117472 
L 142.522125 221.16096 
L 142.577925 220.72608 
L 142.633725 221.16096 
L 142.801125 222.008976 
L 142.856925 221.48712 
L 142.912725 221.59584 
L 142.968525 221.59584 
L 143.080125 222.204672 
L 143.191725 221.769792 
L 143.303325 222.161184 
L 143.359125 222.095952 
L 143.526525 221.26968 
L 143.582325 221.356656 
L 143.693925 222.074208 
L 143.749725 221.400144 
L 143.805525 221.661072 
L 143.861325 221.617584 
L 143.917125 221.334912 
L 143.972925 221.682816 
L 144.530925 218.182032 
L 144.754125 220.50864 
L 144.809925 220.117248 
L 144.921525 220.769568 
L 144.977325 220.39992 
L 145.144725 221.139216 
L 145.312125 221.70456 
L 145.646925 220.878288 
L 145.702725 220.94352 
L 145.814325 220.07376 
L 145.870125 220.465152 
L 145.925925 220.856544 
L 145.981725 219.878064 
L 146.037525 220.18248 
L 146.930325 222.117696 
L 147.041925 221.639328 
L 147.209325 222.161184 
L 147.265125 221.574096 
L 147.320925 221.987232 
L 147.376725 222.095952 
L 147.544125 221.291424 
L 147.655725 221.400144 
L 147.711525 221.726304 
L 147.878925 221.16096 
L 147.934725 221.05224 
L 147.990525 221.639328 
L 148.046325 221.443632 
L 148.102125 221.291424 
L 148.157925 221.530608 
L 148.325325 221.139216 
L 148.381125 221.117472 
L 148.492725 221.574096 
L 148.715925 220.465152 
L 148.883325 219.63888 
L 149.050725 220.269456 
L 149.106525 220.008528 
L 149.273925 221.226192 
L 149.497125 219.704112 
L 149.552925 219.834576 
L 149.608725 219.377952 
L 149.664525 219.508416 
L 149.720325 220.008528 
L 149.776125 219.138768 
L 149.943525 220.421664 
L 150.222525 221.856768 
L 150.334125 221.748048 
L 150.389925 221.508864 
L 150.557325 222.161184 
L 150.613125 222.095952 
L 150.668925 221.81328 
L 150.724725 221.900256 
L 150.780525 222.226416 
L 150.836325 221.748048 
L 150.892125 221.878512 
L 151.003725 221.81328 
L 151.115325 221.987232 
L 151.171125 221.922 
L 151.282725 222.313392 
L 151.450125 221.16096 
L 151.505925 221.878512 
L 151.561725 221.443632 
L 151.617525 221.639328 
L 151.673325 221.552352 
L 151.896525 220.791312 
L 152.063925 220.421664 
L 152.119725 220.595616 
L 152.175525 220.791312 
L 152.231325 220.682592 
L 152.287125 220.486896 
L 152.454525 219.573648 
L 152.510325 219.7476 
L 152.677725 221.073984 
L 152.733525 221.008752 
L 152.845125 221.16096 
L 153.012525 220.595616 
L 153.124125 219.682368 
L 153.179925 219.834576 
L 153.347325 219.182256 
L 153.458925 219.834576 
L 153.626325 220.747824 
L 153.737925 220.987008 
L 153.849525 220.704336 
L 154.016925 221.856768 
L 154.072725 221.421888 
L 154.128525 221.552352 
L 154.184325 221.835024 
L 154.351725 221.247936 
L 154.407525 221.16096 
L 154.630725 220.138992 
L 154.686525 219.921552 
L 154.798125 220.747824 
L 154.909725 220.160736 
L 155.021325 220.900032 
L 155.132925 220.138992 
L 155.188725 220.269456 
L 155.244525 220.465152 
L 155.356125 219.725856 
L 155.523525 220.356432 
L 155.579325 220.204224 
L 155.690925 219.617136 
L 155.746725 219.834576 
L 155.802525 219.725856 
L 156.081525 216.81216 
L 156.137325 216.855648 
L 156.193125 216.790416 
L 156.304725 215.203104 
L 156.360525 215.464032 
L 156.472125 216.899136 
L 156.527925 216.81216 
L 156.583725 217.073088 
L 156.806925 219.204 
L 157.085925 220.117248 
L 157.141725 219.943296 
L 157.197525 219.921552 
L 157.364925 221.16096 
L 157.420725 221.095728 
L 157.476525 220.878288 
L 157.588125 221.313168 
L 157.755525 220.878288 
L 157.867125 221.59584 
L 158.034525 221.030496 
L 158.090325 221.05224 
L 158.201925 221.552352 
L 158.257725 221.400144 
L 158.313525 221.204448 
L 158.369325 220.334688 
L 158.425125 220.660848 
L 158.480925 220.573872 
L 158.536725 220.682592 
L 158.592525 221.139216 
L 158.648325 220.682592 
L 158.704125 220.704336 
L 158.871525 221.117472 
L 158.927325 220.900032 
L 158.983125 221.508864 
L 159.038925 221.421888 
L 159.150525 221.3784 
L 159.317925 220.443408 
L 159.373725 220.486896 
L 159.429525 220.813056 
L 159.596925 218.964816 
L 159.708525 219.204 
L 159.875925 218.964816 
L 160.099125 221.05224 
L 160.154925 220.856544 
L 160.266525 220.900032 
L 160.378125 221.16096 
L 160.433925 220.573872 
L 160.489725 220.791312 
L 160.601325 221.030496 
L 160.657125 220.595616 
L 160.712925 220.878288 
L 160.936125 221.182704 
L 160.991925 221.291424 
L 161.103525 220.769568 
L 161.159325 221.139216 
L 161.215125 221.095728 
L 161.270925 220.856544 
L 161.382525 221.313168 
L 161.494125 220.791312 
L 161.549925 220.8348 
L 161.605725 220.94352 
L 161.884725 219.573648 
L 161.996325 219.63888 
L 162.052125 219.682368 
L 162.386925 220.94352 
L 162.442725 220.72608 
L 162.610125 220.008528 
L 162.665925 220.312944 
L 162.721725 219.617136 
L 162.777525 219.791088 
L 162.833325 219.812832 
L 163.056525 218.87784 
L 163.279725 220.94352 
L 163.335525 221.139216 
L 163.391325 220.8348 
L 163.447125 221.073984 
L 163.502925 221.095728 
L 163.558725 220.813056 
L 163.726125 221.247936 
L 163.837725 220.791312 
L 163.893525 220.856544 
L 164.005125 221.008752 
L 164.116725 220.269456 
L 164.284125 221.16096 
L 164.395725 220.378176 
L 164.451525 220.747824 
L 164.618925 221.508864 
L 164.674725 221.095728 
L 164.953725 221.356656 
L 165.065325 220.921776 
L 165.176925 221.16096 
L 165.232725 220.878288 
L 165.288525 219.899808 
L 165.344325 220.334688 
L 165.567525 219.551904 
L 165.679125 220.50864 
L 165.734925 220.443408 
L 165.790725 220.2912 
L 165.846525 220.8348 
L 165.902325 220.769568 
L 166.013925 220.704336 
L 166.069725 220.50864 
L 166.181325 221.334912 
L 166.292925 221.16096 
L 166.348725 220.769568 
L 166.404525 220.813056 
L 166.627725 221.835024 
L 166.683525 221.81328 
L 166.739325 221.574096 
L 166.795125 221.878512 
L 166.850925 221.639328 
L 166.906725 221.726304 
L 166.962525 221.661072 
L 167.185725 221.313168 
L 167.241525 221.791536 
L 167.408925 221.16096 
L 167.520525 221.70456 
L 167.576325 221.16096 
L 167.687925 221.878512 
L 167.855325 221.508864 
L 168.134325 220.312944 
L 168.245925 221.008752 
L 168.357525 220.530384 
L 168.413325 220.595616 
L 168.692325 221.465376 
L 168.748125 221.204448 
L 168.803925 221.291424 
L 168.859725 221.59584 
L 168.915525 221.073984 
L 168.971325 221.400144 
L 169.306125 220.72608 
L 169.473525 221.05224 
L 169.529325 220.987008 
L 169.585125 221.095728 
L 169.640925 221.661072 
L 169.696725 221.508864 
L 169.752525 221.095728 
L 169.808325 221.291424 
L 169.864125 221.48712 
L 170.031525 220.856544 
L 170.087325 220.813056 
L 170.143125 221.05224 
L 170.198925 220.660848 
L 170.254725 221.3784 
L 170.310525 221.356656 
L 170.366325 221.26968 
L 170.422125 221.400144 
L 170.477925 221.182704 
L 170.645325 221.682816 
L 170.701125 221.900256 
L 170.756925 221.81328 
L 170.868525 221.639328 
L 170.924325 221.508864 
L 171.035925 221.791536 
L 171.147525 221.117472 
L 171.203325 221.247936 
L 171.259125 221.356656 
L 171.314925 221.204448 
L 171.370725 220.573872 
L 171.426525 220.72608 
L 171.482325 221.139216 
L 171.538125 220.791312 
L 171.649725 220.921776 
L 171.761325 221.182704 
L 171.817125 220.921776 
L 171.872925 221.421888 
L 171.928725 220.965264 
L 172.151925 220.204224 
L 172.263525 220.117248 
L 172.486725 220.50864 
L 172.542525 220.660848 
L 172.598325 220.39992 
L 172.765725 220.987008 
L 172.933125 221.139216 
L 173.044725 220.94352 
L 173.156325 221.682816 
L 173.267925 221.291424 
L 173.323725 221.878512 
L 173.379525 221.661072 
L 173.602725 222.335136 
L 173.658525 222.095952 
L 173.714325 221.856768 
L 173.770125 222.052464 
L 173.825925 222.269904 
L 173.881725 222.074208 
L 174.049125 221.726304 
L 174.160725 222.182928 
L 174.216525 222.161184 
L 174.495525 221.748048 
L 174.607125 220.639104 
L 174.718725 221.334912 
L 174.997725 220.421664 
L 175.109325 220.486896 
L 175.165125 220.660848 
L 175.220925 220.39992 
L 175.276725 220.421664 
L 175.332525 220.50864 
L 175.388325 220.138992 
L 175.444125 220.50864 
L 175.499925 220.356432 
L 175.667325 221.356656 
L 175.834725 221.291424 
L 175.890525 221.421888 
L 176.002125 220.987008 
L 176.057925 221.508864 
L 176.113725 221.226192 
L 176.169525 221.05224 
L 176.225325 221.182704 
L 176.336925 221.356656 
L 176.448525 221.748048 
L 176.504325 221.661072 
L 176.560125 221.81328 
L 176.727525 221.204448 
L 176.950725 221.400144 
L 177.062325 220.813056 
L 177.118125 221.073984 
L 177.173925 221.05224 
L 177.229725 221.291424 
L 177.341325 220.813056 
L 177.397125 221.26968 
L 177.452925 220.965264 
L 177.564525 221.313168 
L 177.620325 221.008752 
L 177.676125 221.26968 
L 177.787725 221.443632 
L 177.843525 221.26968 
L 177.899325 221.791536 
L 178.066725 220.987008 
L 178.122525 221.16096 
L 178.178325 221.095728 
L 178.234125 220.225968 
L 178.289925 220.465152 
L 178.457325 221.117472 
L 178.513125 220.94352 
L 178.624725 220.660848 
L 178.792125 221.661072 
L 178.847925 221.70456 
L 178.903725 221.617584 
L 178.959525 221.574096 
L 179.015325 221.900256 
L 179.071125 221.682816 
L 179.126925 221.639328 
L 179.182725 221.856768 
L 179.238525 221.70456 
L 179.461725 222.24816 
L 179.517525 222.074208 
L 179.740725 221.508864 
L 179.796525 221.70456 
L 179.908125 221.204448 
L 179.963925 221.617584 
L 180.019725 221.334912 
L 180.075525 221.05224 
L 180.131325 221.226192 
L 180.187125 221.356656 
L 180.354525 220.704336 
L 180.410325 220.769568 
L 180.521925 219.921552 
L 180.689325 221.030496 
L 180.745125 220.813056 
L 180.912525 221.900256 
L 180.968325 221.59584 
L 181.024125 221.574096 
L 181.079925 221.965488 
L 181.135725 221.334912 
L 181.191525 221.726304 
L 181.247325 221.81328 
L 181.414725 221.3784 
L 181.470525 221.661072 
L 181.749525 220.50864 
L 181.861125 220.856544 
L 181.916925 220.421664 
L 181.972725 220.769568 
L 182.084325 220.965264 
L 182.195925 220.660848 
L 182.251725 220.921776 
L 182.363325 221.726304 
L 182.419125 221.661072 
L 182.474925 221.030496 
L 182.530725 221.465376 
L 182.642325 221.70456 
L 182.753925 221.3784 
L 182.809725 221.443632 
L 182.865525 221.769792 
L 182.921325 221.661072 
L 183.032925 221.226192 
L 183.088725 220.747824 
L 183.144525 221.05224 
L 183.200325 221.400144 
L 183.256125 221.3784 
L 183.423525 221.117472 
L 183.535125 221.748048 
L 183.590925 221.59584 
L 183.646725 221.139216 
L 183.702525 221.226192 
L 183.758325 221.16096 
L 183.925725 221.726304 
L 184.037325 221.81328 
L 184.093125 222.117696 
L 184.148925 221.552352 
L 184.204725 221.791536 
L 184.260525 221.943744 
L 184.316325 222.443856 
L 184.427925 221.661072 
L 184.483725 222.226416 
L 184.539525 221.70456 
L 184.595325 222.008976 
L 184.762725 221.334912 
L 184.818525 221.334912 
L 184.874325 221.617584 
L 184.930125 221.247936 
L 184.985925 221.59584 
L 185.041725 221.900256 
L 185.097525 221.791536 
L 185.209125 222.008976 
L 185.264925 221.943744 
L 185.320725 221.791536 
L 185.376525 222.400368 
L 185.432325 222.291648 
L 185.599725 221.965488 
L 185.711325 221.748048 
L 185.822925 221.943744 
L 185.934525 221.421888 
L 186.046125 222.095952 
L 186.213525 221.247936 
L 186.269325 221.3784 
L 186.325125 221.400144 
L 186.436725 220.94352 
L 186.492525 221.16096 
L 186.548325 220.987008 
L 186.604125 221.182704 
L 186.659925 220.921776 
L 186.715725 220.965264 
L 186.883125 221.530608 
L 186.938925 221.291424 
L 187.162125 222.291648 
L 187.217925 222.13944 
L 187.273725 222.161184 
L 187.329525 222.35688 
L 187.385325 222.182928 
L 187.496925 221.748048 
L 187.608525 222.487344 
L 187.664325 222.443856 
L 187.720125 222.204672 
L 187.775925 222.378624 
L 187.943325 222.117696 
L 188.054925 222.400368 
L 188.222325 222.052464 
L 188.389725 222.269904 
L 188.501325 222.052464 
L 188.612925 222.095952 
L 188.836125 222.770016 
L 188.947725 222.487344 
L 189.003525 222.552576 
L 189.226725 222.204672 
L 189.449925 222.13944 
L 189.505725 221.661072 
L 189.561525 221.900256 
L 189.673125 221.878512 
L 189.728925 221.748048 
L 189.784725 221.965488 
L 189.840525 221.769792 
L 190.007925 221.70456 
L 190.063725 221.81328 
L 190.231125 221.508864 
L 190.286925 221.356656 
L 190.565925 222.443856 
L 190.677525 221.900256 
L 190.733325 222.161184 
L 190.900725 222.617808 
L 190.956525 222.204672 
L 191.012325 222.617808 
L 191.123925 222.530832 
L 191.235525 222.4656 
L 191.291325 222.726528 
L 191.347125 222.617808 
L 191.458725 222.422112 
L 191.681925 222.878736 
L 191.793525 222.35688 
L 191.905125 222.617808 
L 191.960925 221.987232 
L 192.016725 222.35688 
L 192.128325 222.269904 
L 192.184125 222.13944 
L 192.407325 222.639552 
L 192.518925 222.313392 
L 192.574725 222.443856 
L 192.630525 222.313392 
L 192.686325 222.530832 
L 192.742125 222.400368 
L 192.797925 222.335136 
L 192.853725 222.748272 
L 192.909525 222.661296 
L 192.965325 222.617808 
L 193.021125 222.313392 
L 193.076925 222.617808 
L 193.355925 222.378624 
L 193.411725 222.57432 
L 193.467525 222.487344 
L 193.690725 222.639552 
L 193.802325 222.313392 
L 193.913925 222.748272 
L 194.137125 222.35688 
L 194.304525 222.856992 
L 194.416125 222.79176 
L 194.527725 222.596064 
L 194.583525 222.878736 
L 194.639325 222.704784 
L 194.695125 222.443856 
L 194.750925 222.68304 
L 194.974125 222.378624 
L 195.029925 222.617808 
L 195.085725 222.57432 
L 195.253125 222.095952 
L 195.476325 222.770016 
L 195.699525 222.313392 
L 195.811125 222.661296 
L 195.922725 222.530832 
L 196.090125 222.443856 
L 196.145925 222.378624 
L 196.201725 221.900256 
L 196.257525 222.13944 
L 196.313325 222.074208 
L 196.480725 222.335136 
L 196.703925 222.03072 
L 196.815525 221.769792 
L 196.871325 221.965488 
L 196.982925 222.182928 
L 197.094525 221.856768 
L 197.150325 222.182928 
L 197.206125 221.900256 
L 197.261925 221.987232 
L 197.317725 221.81328 
L 197.373525 222.117696 
L 197.540925 221.400144 
L 197.708325 222.552576 
L 197.819925 222.79176 
L 197.875725 222.704784 
L 197.987325 222.378624 
L 198.043125 222.443856 
L 198.098925 222.487344 
L 198.154725 222.68304 
L 198.210525 222.552576 
L 198.377925 222.313392 
L 198.433725 222.68304 
L 198.489525 222.13944 
L 198.545325 222.35688 
L 198.656925 222.639552 
L 198.712725 222.35688 
L 198.768525 222.661296 
L 198.824325 222.487344 
L 198.880125 222.291648 
L 198.991725 222.661296 
L 199.047525 222.530832 
L 199.159125 222.226416 
L 199.214925 222.335136 
L 199.326525 222.095952 
L 199.438125 222.57432 
L 199.493925 222.35688 
L 199.549725 222.487344 
L 199.605525 222.4656 
L 199.661325 222.596064 
L 199.717125 222.400368 
L 199.828725 222.726528 
L 199.996125 222.13944 
L 200.051925 221.987232 
L 200.107725 222.422112 
L 200.163525 222.269904 
L 200.330925 222.596064 
L 200.386725 222.074208 
L 200.442525 222.335136 
L 200.554125 222.35688 
L 200.609925 222.226416 
L 200.665725 222.335136 
L 200.721525 222.922224 
L 200.777325 222.596064 
L 200.833125 222.422112 
L 200.944725 222.79176 
L 201.056325 222.35688 
L 201.112125 222.530832 
L 201.223725 222.443856 
L 201.279525 222.813504 
L 201.335325 222.770016 
L 201.391125 222.57432 
L 201.558525 223.0092 
L 201.725925 222.552576 
L 201.781725 222.617808 
L 201.837525 222.552576 
L 201.949125 222.835248 
L 202.060725 222.487344 
L 202.116525 222.596064 
L 202.172325 222.79176 
L 202.283925 222.422112 
L 202.339725 222.4656 
L 202.507125 222.813504 
L 202.562925 222.813504 
L 202.618725 222.943968 
L 202.730325 222.35688 
L 202.841925 222.596064 
L 202.897725 222.57432 
L 202.953525 222.204672 
L 203.009325 222.552576 
L 203.120925 222.269904 
L 203.176725 222.13944 
L 203.288325 222.661296 
L 203.344125 222.204672 
L 203.399925 222.35688 
L 203.511525 222.704784 
L 203.623125 222.161184 
L 203.678925 222.552576 
L 203.734725 222.291648 
L 203.790525 222.335136 
L 203.902125 221.987232 
L 203.957925 222.204672 
L 204.013725 222.03072 
L 204.069525 221.878512 
L 204.125325 221.965488 
L 204.236925 222.052464 
L 204.348525 222.4656 
L 204.404325 222.095952 
L 204.460125 222.204672 
L 204.683325 222.68304 
L 204.739125 222.378624 
L 204.794925 222.617808 
L 205.018125 222.074208 
L 205.185525 222.422112 
L 205.241325 222.443856 
L 205.297125 222.182928 
L 205.352925 222.378624 
L 205.464525 222.552576 
L 205.576125 222.161184 
L 205.631925 222.509088 
L 205.687725 222.291648 
L 205.743525 222.335136 
L 205.799325 222.617808 
L 205.855125 222.335136 
L 205.966725 222.400368 
L 206.022525 222.726528 
L 206.078325 222.68304 
L 206.134125 222.661296 
L 206.189925 222.400368 
L 206.245725 222.596064 
L 206.357325 222.704784 
L 206.413125 222.987456 
L 206.468925 222.856992 
L 206.580525 222.57432 
L 206.692125 222.704784 
L 206.747925 222.291648 
L 206.803725 222.617808 
L 206.971125 222.24816 
L 207.082725 222.095952 
L 207.138525 222.291648 
L 207.250125 221.856768 
L 207.305925 222.313392 
L 207.361725 222.226416 
L 207.529125 222.074208 
L 207.584925 221.769792 
L 207.696525 222.291648 
L 207.863925 221.791536 
L 208.031325 222.008976 
L 208.087125 221.943744 
L 208.198725 222.4656 
L 208.254525 222.335136 
L 208.366125 221.878512 
L 208.421925 222.161184 
L 208.589325 222.487344 
L 208.645125 222.400368 
L 208.700925 222.422112 
L 208.756725 222.68304 
L 208.812525 222.661296 
L 208.868325 222.639552 
L 208.924125 222.313392 
L 208.979925 222.661296 
L 209.035725 222.57432 
L 209.091525 222.487344 
L 209.258925 222.922224 
L 209.314725 222.704784 
L 209.370525 222.770016 
L 209.482125 222.770016 
L 209.593725 222.4656 
L 209.705325 222.770016 
L 209.928525 222.378624 
L 209.984325 222.617808 
L 210.040125 222.226416 
L 210.095925 222.57432 
L 210.151725 222.661296 
L 210.207525 222.378624 
L 210.263325 222.443856 
L 210.319125 222.704784 
L 210.374925 222.530832 
L 210.430725 222.161184 
L 210.486525 222.552576 
L 210.542325 222.269904 
L 210.653925 221.791536 
L 210.709725 222.509088 
L 210.765525 222.422112 
L 210.932925 222.03072 
L 210.988725 222.291648 
L 211.044525 222.182928 
L 211.100325 221.835024 
L 211.156125 221.856768 
L 211.211925 221.878512 
L 211.490925 222.378624 
L 211.602525 222.335136 
L 211.658325 222.552576 
L 211.714125 222.35688 
L 211.937325 221.987232 
L 211.993125 222.226416 
L 212.048925 222.204672 
L 212.160525 222.313392 
L 212.216325 222.422112 
L 212.327925 222.095952 
L 212.439525 222.617808 
L 212.495325 222.4656 
L 212.551125 222.856992 
L 212.606925 222.509088 
L 212.662725 222.596064 
L 212.718525 222.291648 
L 212.774325 222.835248 
L 212.830125 222.4656 
L 212.941725 222.03072 
L 212.997525 222.24816 
L 213.109125 222.182928 
L 213.164925 222.422112 
L 213.276525 221.748048 
L 213.332325 221.965488 
L 213.555525 221.922 
L 213.722925 221.574096 
L 213.778725 221.465376 
L 214.001925 222.13944 
L 214.113525 221.987232 
L 214.336725 222.291648 
L 214.392525 221.726304 
L 214.448325 221.856768 
L 214.559925 221.81328 
L 214.671525 221.878512 
L 214.783125 222.24816 
L 214.838925 222.095952 
L 214.894725 221.922 
L 215.062125 222.378624 
L 215.173725 222.313392 
L 215.229525 222.596064 
L 215.285325 222.422112 
L 215.452725 222.095952 
L 215.508525 222.226416 
L 215.564325 222.13944 
L 215.731725 222.13944 
L 215.787525 222.074208 
L 215.843325 221.70456 
L 215.899125 221.726304 
L 215.954925 222.03072 
L 216.010725 221.965488 
L 216.178125 221.70456 
L 216.233925 222.182928 
L 216.289725 222.117696 
L 216.401325 221.900256 
L 216.512925 221.922 
L 216.568725 222.443856 
L 216.624525 222.182928 
L 216.736125 222.35688 
L 216.847725 221.900256 
L 216.903525 222.161184 
L 216.959325 222.313392 
L 217.070925 222.008976 
L 217.182525 222.422112 
L 217.238325 222.182928 
L 217.294125 222.095952 
L 217.349925 222.13944 
L 217.461525 222.530832 
L 217.517325 222.4656 
L 217.740525 222.79176 
L 217.907925 222.052464 
L 217.963725 222.13944 
L 218.019525 222.57432 
L 218.075325 222.13944 
L 218.131125 222.291648 
L 218.186925 222.182928 
L 218.242725 221.81328 
L 218.298525 222.378624 
L 218.354325 222.24816 
L 218.410125 222.291648 
L 218.521725 222.79176 
L 218.577525 222.68304 
L 218.633325 222.639552 
L 218.800725 222.204672 
L 219.247125 222.269904 
L 219.302925 222.204672 
L 219.414525 222.378624 
L 219.526125 222.052464 
L 219.581925 222.443856 
L 219.637725 222.226416 
L 219.805125 222.226416 
L 219.860925 222.443856 
L 219.916725 222.422112 
L 220.195725 222.052464 
L 220.251525 222.4656 
L 220.307325 222.204672 
L 220.418925 222.422112 
L 220.530525 221.943744 
L 220.642125 222.291648 
L 220.809525 221.878512 
L 220.865325 222.03072 
L 220.976925 222.422112 
L 221.032725 221.878512 
L 221.088525 222.204672 
L 221.144325 222.204672 
L 221.311725 221.943744 
L 221.479125 222.095952 
L 221.646525 221.661072 
L 221.702325 221.639328 
L 221.758125 222.24816 
L 221.813925 222.117696 
L 221.925525 221.922 
L 221.981325 222.24816 
L 222.037125 222.052464 
L 222.148725 222.35688 
L 222.204525 222.269904 
L 222.260325 221.856768 
L 222.316125 222.24816 
L 222.371925 222.161184 
L 222.427725 222.487344 
L 222.483525 222.400368 
L 222.539325 221.943744 
L 222.595125 222.182928 
L 222.874125 222.704784 
L 222.929925 222.074208 
L 222.985725 222.509088 
L 223.041525 222.378624 
L 223.208925 222.90048 
L 223.264725 222.422112 
L 223.320525 222.704784 
L 223.376325 222.704784 
L 223.487925 222.509088 
L 223.599525 222.661296 
L 223.655325 222.4656 
L 223.711125 222.878736 
L 223.766925 222.68304 
L 223.822725 222.291648 
L 223.878525 222.335136 
L 223.934325 222.617808 
L 223.990125 222.552576 
L 224.045925 222.226416 
L 224.101725 222.4656 
L 224.157525 222.487344 
L 224.269125 222.269904 
L 224.436525 222.596064 
L 224.492325 222.226416 
L 224.548125 222.443856 
L 224.603925 222.24816 
L 224.659725 222.509088 
L 224.715525 222.204672 
L 224.771325 222.226416 
L 224.827125 222.4656 
L 224.882925 222.182928 
L 224.938725 222.748272 
L 224.994525 222.24816 
L 225.106125 222.487344 
L 225.161925 222.204672 
L 225.217725 222.422112 
L 225.329325 222.596064 
L 225.440925 222.335136 
L 225.496725 222.813504 
L 225.552525 222.704784 
L 225.664125 222.422112 
L 225.719925 222.4656 
L 225.831525 222.813504 
L 225.887325 222.57432 
L 225.943125 222.748272 
L 225.998925 222.770016 
L 226.054725 222.943968 
L 226.110525 222.726528 
L 226.166325 222.79176 
L 226.222125 222.856992 
L 226.389525 222.335136 
L 226.668525 222.856992 
L 226.947525 222.226416 
L 227.059125 222.443856 
L 227.226525 222.79176 
L 227.393925 222.226416 
L 227.449725 222.226416 
L 227.505525 222.748272 
L 227.561325 222.661296 
L 227.617125 222.68304 
L 227.672925 222.335136 
L 227.728725 222.378624 
L 227.784525 222.378624 
L 227.840325 222.617808 
L 227.896125 222.443856 
L 227.951925 222.052464 
L 228.007725 222.161184 
L 228.063525 222.095952 
L 228.175125 222.335136 
L 228.230925 221.900256 
L 228.286725 222.074208 
L 228.342525 222.095952 
L 228.398325 222.57432 
L 228.454125 222.378624 
L 228.621525 221.987232 
L 228.677325 221.900256 
L 228.788925 222.074208 
L 228.844725 221.900256 
L 228.956325 222.269904 
L 229.123725 222.008976 
L 229.235325 222.422112 
L 229.291125 222.095952 
L 229.346925 222.313392 
L 229.514325 222.748272 
L 229.570125 222.57432 
L 229.681725 222.008976 
L 229.793325 222.639552 
L 229.849125 222.617808 
L 230.016525 222.68304 
L 230.072325 222.552576 
L 230.128125 222.596064 
L 230.239725 222.79176 
L 230.295525 222.378624 
L 230.351325 222.422112 
L 230.407125 222.770016 
L 230.462925 222.704784 
L 230.574525 222.617808 
L 230.741925 222.856992 
L 230.853525 222.4656 
L 230.909325 222.57432 
L 230.965125 222.79176 
L 231.020925 222.617808 
L 231.076725 222.68304 
L 231.188325 222.291648 
L 231.244125 222.748272 
L 231.299925 222.204672 
L 231.355725 222.639552 
L 231.411525 222.856992 
L 231.467325 222.639552 
L 231.634725 222.400368 
L 231.690525 222.596064 
L 231.746325 222.400368 
L 231.802125 222.400368 
L 231.857925 222.704784 
L 231.913725 222.400368 
L 231.969525 222.24816 
L 232.025325 222.313392 
L 232.081125 222.422112 
L 232.136925 222.269904 
L 232.192725 222.313392 
L 232.471725 222.90048 
L 232.527525 222.57432 
L 232.583325 222.68304 
L 232.639125 222.661296 
L 232.750725 222.509088 
L 232.806525 222.57432 
L 232.862325 222.878736 
L 232.918125 222.57432 
L 232.973925 222.813504 
L 233.029725 222.617808 
L 233.085525 222.095952 
L 233.141325 222.313392 
L 233.252925 222.552576 
L 233.308725 222.422112 
L 233.420325 222.704784 
L 233.476125 222.35688 
L 233.531925 222.4656 
L 233.587725 222.856992 
L 233.643525 222.182928 
L 233.699325 222.335136 
L 233.755125 222.4656 
L 233.922525 222.226416 
L 234.089925 222.68304 
L 234.201525 222.052464 
L 234.257325 222.443856 
L 234.480525 222.24816 
L 234.536325 222.4656 
L 234.592125 222.291648 
L 234.647925 221.900256 
L 234.703725 222.24816 
L 234.815325 221.81328 
L 234.982725 222.313392 
L 235.038525 222.35688 
L 235.150125 222.182928 
L 235.317525 222.35688 
L 235.429125 222.835248 
L 235.540725 222.487344 
L 235.596525 222.704784 
L 235.652325 222.335136 
L 235.708125 222.4656 
L 235.763925 222.639552 
L 235.819725 222.596064 
L 235.875525 222.617808 
L 235.931325 222.4656 
L 235.987125 222.509088 
L 236.266125 223.074432 
L 236.433525 222.378624 
L 236.545125 222.813504 
L 236.656725 222.661296 
L 236.712525 222.90048 
L 236.768325 222.79176 
L 236.824125 222.726528 
L 236.879925 222.4656 
L 237.047325 222.943968 
L 237.158925 222.335136 
L 237.214725 222.422112 
L 237.326325 222.835248 
L 237.437925 222.226416 
L 237.493725 222.68304 
L 237.549525 222.443856 
L 237.605325 222.052464 
L 237.661125 222.182928 
L 237.884325 222.596064 
L 238.051725 222.35688 
L 238.219125 222.552576 
L 238.330725 222.052464 
L 238.386525 222.226416 
L 238.553925 222.726528 
L 238.609725 222.509088 
L 238.665525 222.661296 
L 238.721325 222.704784 
L 238.777125 222.487344 
L 238.832925 222.68304 
L 239.056125 222.748272 
L 239.111925 222.639552 
L 239.167725 222.748272 
L 239.223525 222.813504 
L 239.279325 222.748272 
L 239.446725 222.4656 
L 239.669925 222.856992 
L 239.893125 222.422112 
L 240.004725 222.79176 
L 240.060525 222.530832 
L 240.116325 222.704784 
L 240.227925 222.24816 
L 240.283725 222.530832 
L 240.395325 222.596064 
L 240.451125 222.269904 
L 240.506925 222.422112 
L 240.730125 222.182928 
L 240.785925 222.770016 
L 240.841725 222.748272 
L 240.953325 222.335136 
L 241.064925 222.878736 
L 241.232325 222.57432 
L 241.288125 222.596064 
L 241.343925 222.13944 
L 241.399725 222.422112 
L 241.511325 222.726528 
L 241.567125 222.639552 
L 241.622925 222.68304 
L 241.678725 222.509088 
L 241.734525 222.57432 
L 241.846125 222.661296 
L 241.901925 222.422112 
L 241.957725 222.530832 
L 242.069325 222.335136 
L 242.125125 222.57432 
L 242.180925 222.35688 
L 242.404125 222.4656 
L 242.515725 222.269904 
L 242.627325 222.813504 
L 242.683125 222.748272 
L 242.738925 222.726528 
L 242.850525 222.943968 
L 242.906325 222.856992 
L 242.962125 222.57432 
L 243.017925 222.878736 
L 243.073725 222.509088 
L 243.185325 222.965712 
L 243.241125 222.770016 
L 243.296925 222.943968 
L 243.352725 222.987456 
L 243.408525 222.68304 
L 243.464325 222.856992 
L 243.575925 222.661296 
L 243.687525 223.270128 
L 243.743325 223.161408 
L 243.910725 222.617808 
L 244.078125 222.943968 
L 244.133925 222.878736 
" clip-path="url(#p36e902b217)" style="fill: none; stroke: #1f77b4; stroke-width: 0.7; stroke-linecap: square"/>
   </g>
   <g id="patch_3">
    <path d="M 20.878125 224.64 
L 20.878125 7.2 
" style="fill: none; stroke: #000000; stroke-width: 0.8; stroke-linejoin: miter; stroke-linecap: square"/>
   </g>
   <g id="patch_4">
    <path d="M 244.078125 224.64 
L 244.078125 7.2 
" style="fill: none; stroke: #000000; stroke-width: 0.8; stroke-linejoin: miter; stroke-linecap: square"/>
   </g>
   <g id="patch_5">
    <path d="M 20.878125 224.64 
L 244.078125 224.64 
" style="fill: none; stroke: #000000; stroke-width: 0.8; stroke-linejoin: miter; stroke-linecap: square"/>
   </g>
   <g id="patch_6">
    <path d="M 20.878125 7.2 
L 244.078125 7.2 
" style="fill: none; stroke: #000000; stroke-width: 0.8; stroke-linejoin: miter; stroke-linecap: square"/>
   </g>
  </g>
 </g>
 <defs>
  <clipPath id="p36e902b217">
   <rect x="20.878125" y="7.2" width="223.2" height="217.44"/>
  </clipPath>
 </defs>
</svg>
