<?xml version="1.0" encoding="utf-8" standalone="no"?>
<!DOCTYPE svg PUBLIC "-//W3C//DTD SVG 1.1//EN"
  "http://www.w3.org/Graphics/SVG/1.1/DTD/svg11.dtd">
<svg xmlns:xlink="http://www.w3.org/1999/xlink" width="251.278125pt" height="262.19625pt" viewBox="0 0 251.278125 262.19625" xmlns="http://www.w3.org/2000/svg" version="1.1">
 <metadata>
  <rdf:RDF xmlns:dc="http://purl.org/dc/elements/1.1/" xmlns:cc="http://creativecommons.org/ns#" xmlns:rdf="http://www.w3.org/1999/02/22-rdf-syntax-ns#">
   <cc:Work>
    <dc:type rdf:resource="http://purl.org/dc/dcmitype/StillImage"/>
    <dc:date>2022-04-27T15:37:28.862763</dc:date>
    <dc:format>image/svg+xml</dc:format>
    <dc:creator>
     <cc:Agent>
      <dc:title>Matplotlib v3.5.0, https://matplotlib.org/</dc:title>
     </cc:Agent>
    </dc:creator>
   </cc:Work>
  </rdf:RDF>
 </metadata>
 <defs>
  <style type="text/css">*{stroke-linejoin: round; stroke-linecap: butt}</style>
 </defs>
 <g id="figure_1">
  <g id="patch_1">
   <path d="M 0 262.19625 
L 251.278125 262.19625 
L 251.278125 0 
L 0 0 
z
" style="fill: #ffffff"/>
  </g>
  <g id="axes_1">
   <g id="patch_2">
    <path d="M 20.878125 224.64 
L 244.078125 224.64 
L 244.078125 7.2 
L 20.878125 7.2 
z
" style="fill: #ffffff"/>
   </g>
   <g id="matplotlib.axis_1">
    <g id="xtick_1">
     <g id="line2d_1">
      <defs>
       <path id="m0a95681042" d="M 0 0 
L 0 3.5 
" style="stroke: #000000; stroke-width: 0.8"/>
      </defs>
      <g>
       <use xlink:href="#m0a95681042" x="50.85829" y="224.64" style="stroke: #000000; stroke-width: 0.8"/>
      </g>
     </g>
     <g id="text_1">
      <!-- 10 -->
      <g transform="translate(44.49579 239.238437)scale(0.1 -0.1)">
       <defs>
        <path id="DejaVuSans-31" d="M 794 531 
L 1825 531 
L 1825 4091 
L 703 3866 
L 703 4441 
L 1819 4666 
L 2450 4666 
L 2450 531 
L 3481 531 
L 3481 0 
L 794 0 
L 794 531 
z
" transform="scale(0.015625)"/>
        <path id="DejaVuSans-30" d="M 2034 4250 
Q 1547 4250 1301 3770 
Q 1056 3291 1056 2328 
Q 1056 1369 1301 889 
Q 1547 409 2034 409 
Q 2525 409 2770 889 
Q 3016 1369 3016 2328 
Q 3016 3291 2770 3770 
Q 2525 4250 2034 4250 
z
M 2034 4750 
Q 2819 4750 3233 4129 
Q 3647 3509 3647 2328 
Q 3647 1150 3233 529 
Q 2819 -91 2034 -91 
Q 1250 -91 836 529 
Q 422 1150 422 2328 
Q 422 3509 836 4129 
Q 1250 4750 2034 4750 
z
" transform="scale(0.015625)"/>
       </defs>
       <use xlink:href="#DejaVuSans-31"/>
       <use xlink:href="#DejaVuSans-30" x="63.623047"/>
      </g>
     </g>
    </g>
    <g id="xtick_2">
     <g id="line2d_2">
      <g>
       <use xlink:href="#m0a95681042" x="86.921401" y="224.64" style="stroke: #000000; stroke-width: 0.8"/>
      </g>
     </g>
     <g id="text_2">
      <!-- 20 -->
      <g transform="translate(80.558901 239.238437)scale(0.1 -0.1)">
       <defs>
        <path id="DejaVuSans-32" d="M 1228 531 
L 3431 531 
L 3431 0 
L 469 0 
L 469 531 
Q 828 903 1448 1529 
Q 2069 2156 2228 2338 
Q 2531 2678 2651 2914 
Q 2772 3150 2772 3378 
Q 2772 3750 2511 3984 
Q 2250 4219 1831 4219 
Q 1534 4219 1204 4116 
Q 875 4013 500 3803 
L 500 4441 
Q 881 4594 1212 4672 
Q 1544 4750 1819 4750 
Q 2544 4750 2975 4387 
Q 3406 4025 3406 3419 
Q 3406 3131 3298 2873 
Q 3191 2616 2906 2266 
Q 2828 2175 2409 1742 
Q 1991 1309 1228 531 
z
" transform="scale(0.015625)"/>
       </defs>
       <use xlink:href="#DejaVuSans-32"/>
       <use xlink:href="#DejaVuSans-30" x="63.623047"/>
      </g>
     </g>
    </g>
    <g id="xtick_3">
     <g id="line2d_3">
      <g>
       <use xlink:href="#m0a95681042" x="122.984511" y="224.64" style="stroke: #000000; stroke-width: 0.8"/>
      </g>
     </g>
     <g id="text_3">
      <!-- 30 -->
      <g transform="translate(116.622011 239.238437)scale(0.1 -0.1)">
       <defs>
        <path id="DejaVuSans-33" d="M 2597 2516 
Q 3050 2419 3304 2112 
Q 3559 1806 3559 1356 
Q 3559 666 3084 287 
Q 2609 -91 1734 -91 
Q 1441 -91 1130 -33 
Q 819 25 488 141 
L 488 750 
Q 750 597 1062 519 
Q 1375 441 1716 441 
Q 2309 441 2620 675 
Q 2931 909 2931 1356 
Q 2931 1769 2642 2001 
Q 2353 2234 1838 2234 
L 1294 2234 
L 1294 2753 
L 1863 2753 
Q 2328 2753 2575 2939 
Q 2822 3125 2822 3475 
Q 2822 3834 2567 4026 
Q 2313 4219 1838 4219 
Q 1578 4219 1281 4162 
Q 984 4106 628 3988 
L 628 4550 
Q 988 4650 1302 4700 
Q 1616 4750 1894 4750 
Q 2613 4750 3031 4423 
Q 3450 4097 3450 3541 
Q 3450 3153 3228 2886 
Q 3006 2619 2597 2516 
z
" transform="scale(0.015625)"/>
       </defs>
       <use xlink:href="#DejaVuSans-33"/>
       <use xlink:href="#DejaVuSans-30" x="63.623047"/>
      </g>
     </g>
    </g>
    <g id="xtick_4">
     <g id="line2d_4">
      <g>
       <use xlink:href="#m0a95681042" x="159.047622" y="224.64" style="stroke: #000000; stroke-width: 0.8"/>
      </g>
     </g>
     <g id="text_4">
      <!-- 40 -->
      <g transform="translate(152.685122 239.238437)scale(0.1 -0.1)">
       <defs>
        <path id="DejaVuSans-34" d="M 2419 4116 
L 825 1625 
L 2419 1625 
L 2419 4116 
z
M 2253 4666 
L 3047 4666 
L 3047 1625 
L 3713 1625 
L 3713 1100 
L 3047 1100 
L 3047 0 
L 2419 0 
L 2419 1100 
L 313 1100 
L 313 1709 
L 2253 4666 
z
" transform="scale(0.015625)"/>
       </defs>
       <use xlink:href="#DejaVuSans-34"/>
       <use xlink:href="#DejaVuSans-30" x="63.623047"/>
      </g>
     </g>
    </g>
    <g id="xtick_5">
     <g id="line2d_5">
      <g>
       <use xlink:href="#m0a95681042" x="195.110732" y="224.64" style="stroke: #000000; stroke-width: 0.8"/>
      </g>
     </g>
     <g id="text_5">
      <!-- 50 -->
      <g transform="translate(188.748232 239.238437)scale(0.1 -0.1)">
       <defs>
        <path id="DejaVuSans-35" d="M 691 4666 
L 3169 4666 
L 3169 4134 
L 1269 4134 
L 1269 2991 
Q 1406 3038 1543 3061 
Q 1681 3084 1819 3084 
Q 2600 3084 3056 2656 
Q 3513 2228 3513 1497 
Q 3513 744 3044 326 
Q 2575 -91 1722 -91 
Q 1428 -91 1123 -41 
Q 819 9 494 109 
L 494 744 
Q 775 591 1075 516 
Q 1375 441 1709 441 
Q 2250 441 2565 725 
Q 2881 1009 2881 1497 
Q 2881 1984 2565 2268 
Q 2250 2553 1709 2553 
Q 1456 2553 1204 2497 
Q 953 2441 691 2322 
L 691 4666 
z
" transform="scale(0.015625)"/>
       </defs>
       <use xlink:href="#DejaVuSans-35"/>
       <use xlink:href="#DejaVuSans-30" x="63.623047"/>
      </g>
     </g>
    </g>
    <g id="xtick_6">
     <g id="line2d_6">
      <g>
       <use xlink:href="#m0a95681042" x="231.173843" y="224.64" style="stroke: #000000; stroke-width: 0.8"/>
      </g>
     </g>
     <g id="text_6">
      <!-- 60 -->
      <g transform="translate(224.811343 239.238437)scale(0.1 -0.1)">
       <defs>
        <path id="DejaVuSans-36" d="M 2113 2584 
Q 1688 2584 1439 2293 
Q 1191 2003 1191 1497 
Q 1191 994 1439 701 
Q 1688 409 2113 409 
Q 2538 409 2786 701 
Q 3034 994 3034 1497 
Q 3034 2003 2786 2293 
Q 2538 2584 2113 2584 
z
M 3366 4563 
L 3366 3988 
Q 3128 4100 2886 4159 
Q 2644 4219 2406 4219 
Q 1781 4219 1451 3797 
Q 1122 3375 1075 2522 
Q 1259 2794 1537 2939 
Q 1816 3084 2150 3084 
Q 2853 3084 3261 2657 
Q 3669 2231 3669 1497 
Q 3669 778 3244 343 
Q 2819 -91 2113 -91 
Q 1303 -91 875 529 
Q 447 1150 447 2328 
Q 447 3434 972 4092 
Q 1497 4750 2381 4750 
Q 2619 4750 2861 4703 
Q 3103 4656 3366 4563 
z
" transform="scale(0.015625)"/>
       </defs>
       <use xlink:href="#DejaVuSans-36"/>
       <use xlink:href="#DejaVuSans-30" x="63.623047"/>
      </g>
     </g>
    </g>
    <g id="text_7">
     <!-- 2 Theta / [°] -->
     <g transform="translate(102.120313 252.916562)scale(0.1 -0.1)">
      <defs>
       <path id="DejaVuSans-20" transform="scale(0.015625)"/>
       <path id="DejaVuSans-54" d="M -19 4666 
L 3928 4666 
L 3928 4134 
L 2272 4134 
L 2272 0 
L 1638 0 
L 1638 4134 
L -19 4134 
L -19 4666 
z
" transform="scale(0.015625)"/>
       <path id="DejaVuSans-68" d="M 3513 2113 
L 3513 0 
L 2938 0 
L 2938 2094 
Q 2938 2591 2744 2837 
Q 2550 3084 2163 3084 
Q 1697 3084 1428 2787 
Q 1159 2491 1159 1978 
L 1159 0 
L 581 0 
L 581 4863 
L 1159 4863 
L 1159 2956 
Q 1366 3272 1645 3428 
Q 1925 3584 2291 3584 
Q 2894 3584 3203 3211 
Q 3513 2838 3513 2113 
z
" transform="scale(0.015625)"/>
       <path id="DejaVuSans-65" d="M 3597 1894 
L 3597 1613 
L 953 1613 
Q 991 1019 1311 708 
Q 1631 397 2203 397 
Q 2534 397 2845 478 
Q 3156 559 3463 722 
L 3463 178 
Q 3153 47 2828 -22 
Q 2503 -91 2169 -91 
Q 1331 -91 842 396 
Q 353 884 353 1716 
Q 353 2575 817 3079 
Q 1281 3584 2069 3584 
Q 2775 3584 3186 3129 
Q 3597 2675 3597 1894 
z
M 3022 2063 
Q 3016 2534 2758 2815 
Q 2500 3097 2075 3097 
Q 1594 3097 1305 2825 
Q 1016 2553 972 2059 
L 3022 2063 
z
" transform="scale(0.015625)"/>
       <path id="DejaVuSans-74" d="M 1172 4494 
L 1172 3500 
L 2356 3500 
L 2356 3053 
L 1172 3053 
L 1172 1153 
Q 1172 725 1289 603 
Q 1406 481 1766 481 
L 2356 481 
L 2356 0 
L 1766 0 
Q 1100 0 847 248 
Q 594 497 594 1153 
L 594 3053 
L 172 3053 
L 172 3500 
L 594 3500 
L 594 4494 
L 1172 4494 
z
" transform="scale(0.015625)"/>
       <path id="DejaVuSans-61" d="M 2194 1759 
Q 1497 1759 1228 1600 
Q 959 1441 959 1056 
Q 959 750 1161 570 
Q 1363 391 1709 391 
Q 2188 391 2477 730 
Q 2766 1069 2766 1631 
L 2766 1759 
L 2194 1759 
z
M 3341 1997 
L 3341 0 
L 2766 0 
L 2766 531 
Q 2569 213 2275 61 
Q 1981 -91 1556 -91 
Q 1019 -91 701 211 
Q 384 513 384 1019 
Q 384 1609 779 1909 
Q 1175 2209 1959 2209 
L 2766 2209 
L 2766 2266 
Q 2766 2663 2505 2880 
Q 2244 3097 1772 3097 
Q 1472 3097 1187 3025 
Q 903 2953 641 2809 
L 641 3341 
Q 956 3463 1253 3523 
Q 1550 3584 1831 3584 
Q 2591 3584 2966 3190 
Q 3341 2797 3341 1997 
z
" transform="scale(0.015625)"/>
       <path id="DejaVuSans-2f" d="M 1625 4666 
L 2156 4666 
L 531 -594 
L 0 -594 
L 1625 4666 
z
" transform="scale(0.015625)"/>
       <path id="DejaVuSans-5b" d="M 550 4863 
L 1875 4863 
L 1875 4416 
L 1125 4416 
L 1125 -397 
L 1875 -397 
L 1875 -844 
L 550 -844 
L 550 4863 
z
" transform="scale(0.015625)"/>
       <path id="DejaVuSans-b0" d="M 1600 4347 
Q 1350 4347 1178 4173 
Q 1006 4000 1006 3750 
Q 1006 3503 1178 3333 
Q 1350 3163 1600 3163 
Q 1850 3163 2022 3333 
Q 2194 3503 2194 3750 
Q 2194 3997 2020 4172 
Q 1847 4347 1600 4347 
z
M 1600 4750 
Q 1800 4750 1984 4673 
Q 2169 4597 2303 4453 
Q 2447 4313 2519 4134 
Q 2591 3956 2591 3750 
Q 2591 3338 2302 3052 
Q 2013 2766 1594 2766 
Q 1172 2766 890 3047 
Q 609 3328 609 3750 
Q 609 4169 896 4459 
Q 1184 4750 1600 4750 
z
" transform="scale(0.015625)"/>
       <path id="DejaVuSans-5d" d="M 1947 4863 
L 1947 -844 
L 622 -844 
L 622 -397 
L 1369 -397 
L 1369 4416 
L 622 4416 
L 622 4863 
L 1947 4863 
z
" transform="scale(0.015625)"/>
      </defs>
      <use xlink:href="#DejaVuSans-32"/>
      <use xlink:href="#DejaVuSans-20" x="63.623047"/>
      <use xlink:href="#DejaVuSans-54" x="95.410156"/>
      <use xlink:href="#DejaVuSans-68" x="156.494141"/>
      <use xlink:href="#DejaVuSans-65" x="219.873047"/>
      <use xlink:href="#DejaVuSans-74" x="281.396484"/>
      <use xlink:href="#DejaVuSans-61" x="320.605469"/>
      <use xlink:href="#DejaVuSans-20" x="381.884766"/>
      <use xlink:href="#DejaVuSans-2f" x="413.671875"/>
      <use xlink:href="#DejaVuSans-20" x="447.363281"/>
      <use xlink:href="#DejaVuSans-5b" x="479.150391"/>
      <use xlink:href="#DejaVuSans-b0" x="518.164062"/>
      <use xlink:href="#DejaVuSans-5d" x="568.164062"/>
     </g>
    </g>
   </g>
   <g id="matplotlib.axis_2">
    <g id="text_8">
     <!-- Intensity / [a.u.] -->
     <g transform="translate(14.798438 155.8575)rotate(-90)scale(0.1 -0.1)">
      <defs>
       <path id="DejaVuSans-49" d="M 628 4666 
L 1259 4666 
L 1259 0 
L 628 0 
L 628 4666 
z
" transform="scale(0.015625)"/>
       <path id="DejaVuSans-6e" d="M 3513 2113 
L 3513 0 
L 2938 0 
L 2938 2094 
Q 2938 2591 2744 2837 
Q 2550 3084 2163 3084 
Q 1697 3084 1428 2787 
Q 1159 2491 1159 1978 
L 1159 0 
L 581 0 
L 581 3500 
L 1159 3500 
L 1159 2956 
Q 1366 3272 1645 3428 
Q 1925 3584 2291 3584 
Q 2894 3584 3203 3211 
Q 3513 2838 3513 2113 
z
" transform="scale(0.015625)"/>
       <path id="DejaVuSans-73" d="M 2834 3397 
L 2834 2853 
Q 2591 2978 2328 3040 
Q 2066 3103 1784 3103 
Q 1356 3103 1142 2972 
Q 928 2841 928 2578 
Q 928 2378 1081 2264 
Q 1234 2150 1697 2047 
L 1894 2003 
Q 2506 1872 2764 1633 
Q 3022 1394 3022 966 
Q 3022 478 2636 193 
Q 2250 -91 1575 -91 
Q 1294 -91 989 -36 
Q 684 19 347 128 
L 347 722 
Q 666 556 975 473 
Q 1284 391 1588 391 
Q 1994 391 2212 530 
Q 2431 669 2431 922 
Q 2431 1156 2273 1281 
Q 2116 1406 1581 1522 
L 1381 1569 
Q 847 1681 609 1914 
Q 372 2147 372 2553 
Q 372 3047 722 3315 
Q 1072 3584 1716 3584 
Q 2034 3584 2315 3537 
Q 2597 3491 2834 3397 
z
" transform="scale(0.015625)"/>
       <path id="DejaVuSans-69" d="M 603 3500 
L 1178 3500 
L 1178 0 
L 603 0 
L 603 3500 
z
M 603 4863 
L 1178 4863 
L 1178 4134 
L 603 4134 
L 603 4863 
z
" transform="scale(0.015625)"/>
       <path id="DejaVuSans-79" d="M 2059 -325 
Q 1816 -950 1584 -1140 
Q 1353 -1331 966 -1331 
L 506 -1331 
L 506 -850 
L 844 -850 
Q 1081 -850 1212 -737 
Q 1344 -625 1503 -206 
L 1606 56 
L 191 3500 
L 800 3500 
L 1894 763 
L 2988 3500 
L 3597 3500 
L 2059 -325 
z
" transform="scale(0.015625)"/>
       <path id="DejaVuSans-2e" d="M 684 794 
L 1344 794 
L 1344 0 
L 684 0 
L 684 794 
z
" transform="scale(0.015625)"/>
       <path id="DejaVuSans-75" d="M 544 1381 
L 544 3500 
L 1119 3500 
L 1119 1403 
Q 1119 906 1312 657 
Q 1506 409 1894 409 
Q 2359 409 2629 706 
Q 2900 1003 2900 1516 
L 2900 3500 
L 3475 3500 
L 3475 0 
L 2900 0 
L 2900 538 
Q 2691 219 2414 64 
Q 2138 -91 1772 -91 
Q 1169 -91 856 284 
Q 544 659 544 1381 
z
M 1991 3584 
L 1991 3584 
z
" transform="scale(0.015625)"/>
      </defs>
      <use xlink:href="#DejaVuSans-49"/>
      <use xlink:href="#DejaVuSans-6e" x="29.492188"/>
      <use xlink:href="#DejaVuSans-74" x="92.871094"/>
      <use xlink:href="#DejaVuSans-65" x="132.080078"/>
      <use xlink:href="#DejaVuSans-6e" x="193.603516"/>
      <use xlink:href="#DejaVuSans-73" x="256.982422"/>
      <use xlink:href="#DejaVuSans-69" x="309.082031"/>
      <use xlink:href="#DejaVuSans-74" x="336.865234"/>
      <use xlink:href="#DejaVuSans-79" x="376.074219"/>
      <use xlink:href="#DejaVuSans-20" x="435.253906"/>
      <use xlink:href="#DejaVuSans-2f" x="467.041016"/>
      <use xlink:href="#DejaVuSans-20" x="500.732422"/>
      <use xlink:href="#DejaVuSans-5b" x="532.519531"/>
      <use xlink:href="#DejaVuSans-61" x="571.533203"/>
      <use xlink:href="#DejaVuSans-2e" x="632.8125"/>
      <use xlink:href="#DejaVuSans-75" x="664.599609"/>
      <use xlink:href="#DejaVuSans-2e" x="727.978516"/>
      <use xlink:href="#DejaVuSans-5d" x="759.765625"/>
     </g>
    </g>
   </g>
   <g id="line2d_7">
    <path d="M 31.02358 211.833598 
L 31.077674 211.530292 
L 31.185864 212.026611 
L 31.239958 211.530292 
L 31.294053 211.613012 
L 31.348148 212.054184 
L 31.402242 211.613012 
L 31.564526 211.171839 
L 31.618621 211.613012 
L 31.672716 211.282132 
L 31.72681 211.337279 
L 31.997284 212.247197 
L 32.213662 211.282132 
L 32.321852 212.329916 
L 32.375946 211.750878 
L 32.430041 211.668158 
L 32.53823 212.136904 
L 32.64642 211.364852 
L 32.700514 211.502719 
L 32.754609 211.778451 
L 32.808704 211.750878 
L 32.970988 211.447572 
L 33.025082 211.392425 
L 33.079177 211.778451 
L 33.133272 211.723305 
L 33.187366 211.226986 
L 33.241461 211.750878 
L 33.45784 210.75824 
L 33.566029 211.171839 
L 33.674218 210.868533 
L 33.782407 212.054184 
L 33.944691 211.364852 
L 34.052881 211.888744 
L 34.215165 211.309706 
L 34.269259 211.337279 
L 34.377449 212.164477 
L 34.431543 211.530292 
L 34.485638 211.557865 
L 34.593827 212.19205 
L 34.647922 212.10933 
L 34.702017 211.916317 
L 34.756111 211.309706 
L 34.810206 211.419999 
L 34.864301 211.585438 
L 34.918395 211.475145 
L 34.97249 211.226986 
L 35.026585 211.888744 
L 35.080679 211.613012 
L 35.134774 211.171839 
L 35.188869 211.364852 
L 35.297058 212.026611 
L 35.459342 211.447572 
L 35.621626 212.081757 
L 35.78391 211.778451 
L 35.892099 211.943891 
L 36.054383 211.475145 
L 36.270762 212.412636 
L 36.378951 211.750878 
L 36.541235 212.35749 
L 36.649425 211.640585 
L 36.703519 212.081757 
L 36.757614 211.723305 
L 36.865803 211.943891 
L 37.028087 211.640585 
L 37.082182 211.971464 
L 37.136277 211.640585 
L 37.244466 211.226986 
L 37.460845 211.861171 
L 37.569034 211.585438 
L 37.731318 212.19205 
L 37.893602 211.447572 
L 38.055886 211.943891 
L 38.109981 212.329916 
L 38.21817 211.08912 
L 38.272265 211.144266 
L 38.380454 211.447572 
L 38.434549 211.392425 
L 38.542738 211.061546 
L 38.596833 211.254559 
L 38.705022 211.337279 
L 38.813211 210.84096 
L 38.867306 211.282132 
L 38.921401 211.061546 
L 39.02959 210.92368 
L 39.083685 210.013762 
L 39.191874 210.041336 
L 39.245969 210.206775 
L 39.624631 205.326307 
L 40.057389 192.394447 
L 40.436051 162.201723 
L 40.65243 118.084501 
L 40.868809 17.083636 
L 40.922903 40.989656 
L 41.139282 198.598431 
L 41.355661 208.166354 
L 41.409755 207.697608 
L 41.517945 209.158991 
L 41.572039 207.670035 
L 41.626134 207.863048 
L 41.680229 208.2215 
L 41.788418 205.657187 
L 41.842513 205.877773 
L 41.896607 205.988066 
L 42.383459 189.030509 
L 42.653933 166.916751 
L 42.924406 87.037006 
L 42.978501 104.21515 
L 43.194879 202.98258 
L 43.357163 207.559742 
L 43.844015 212.026611 
L 43.89811 211.033973 
L 43.952205 211.419999 
L 44.168583 212.35749 
L 44.222678 211.364852 
L 44.276773 211.585438 
L 44.330867 211.557865 
L 44.439057 212.026611 
L 44.493151 211.888744 
L 44.547246 212.136904 
L 44.601341 211.723305 
L 44.655435 212.329916 
L 44.70953 211.833598 
L 44.925909 212.302343 
L 45.034098 211.861171 
L 45.088193 211.971464 
L 45.196382 212.440209 
L 45.250477 211.778451 
L 45.304571 211.971464 
L 45.358666 212.35749 
L 45.412761 212.10933 
L 45.466855 212.054184 
L 45.52095 212.164477 
L 45.575045 211.971464 
L 45.629139 212.660796 
L 45.683234 212.27477 
L 45.845518 211.475145 
L 45.899613 211.640585 
L 45.953707 211.806024 
L 46.007802 211.364852 
L 46.061897 212.081757 
L 46.115991 212.054184 
L 46.170086 211.806024 
L 46.278275 212.247197 
L 46.33237 211.971464 
L 46.386465 212.054184 
L 46.548749 212.27477 
L 46.602843 211.806024 
L 46.656938 212.219623 
L 46.765127 211.585438 
L 46.819222 211.750878 
L 46.873317 212.19205 
L 46.927411 212.164477 
L 47.035601 211.971464 
L 47.197885 212.35749 
L 47.468358 211.392425 
L 47.684737 212.302343 
L 47.901115 211.419999 
L 48.009305 211.943891 
L 48.063399 211.337279 
L 48.117494 211.943891 
L 48.279778 212.302343 
L 48.333873 212.385063 
L 48.387967 211.778451 
L 48.442062 212.081757 
L 48.496157 212.412636 
L 48.550251 212.35749 
L 48.604346 211.502719 
L 48.658441 211.916317 
L 48.712535 212.743515 
L 48.76663 212.385063 
L 48.820725 212.136904 
L 48.874819 212.440209 
L 49.037103 211.943891 
L 49.145293 211.695731 
L 49.199387 212.219623 
L 49.253482 211.916317 
L 49.307577 211.916317 
L 49.415766 211.585438 
L 49.469861 212.026611 
L 49.523955 211.806024 
L 49.632145 212.026611 
L 49.740334 211.640585 
L 49.794429 212.081757 
L 49.848523 211.833598 
L 49.902618 211.943891 
L 50.064902 210.730667 
L 50.227186 211.833598 
L 50.281281 211.943891 
L 50.497659 210.206775 
L 50.551754 209.627737 
L 50.605849 210.84096 
L 50.659943 210.454935 
L 51.20089 200.52856 
L 51.254985 199.646215 
L 51.363174 202.927434 
L 51.525458 209.269284 
L 51.633647 210.151629 
L 51.687742 210.124055 
L 51.850026 209.765603 
L 51.958215 209.986189 
L 52.01231 209.73803 
L 52.174594 208.000914 
L 52.228688 208.056061 
L 52.282783 208.166354 
L 52.499162 211.116693 
L 52.607351 210.785814 
L 52.71554 211.392425 
L 52.931919 210.510081 
L 52.986014 210.537654 
L 53.418771 206.677397 
L 53.472866 206.87041 
L 53.52696 207.835474 
L 53.581055 207.780328 
L 53.743339 205.657187 
L 53.851528 202.293248 
L 53.905623 202.320822 
L 54.067907 207.614888 
L 54.230191 210.868533 
L 54.392475 209.65531 
L 54.500664 211.254559 
L 54.554759 210.620374 
L 54.608854 211.254559 
L 54.662948 210.951253 
L 54.717043 211.08912 
L 54.879327 211.778451 
L 54.933422 211.695731 
L 54.987516 211.723305 
L 55.095706 211.613012 
L 55.25799 211.806024 
L 55.312084 210.868533 
L 55.366179 211.916317 
L 55.420274 211.337279 
L 55.528463 211.226986 
L 55.636652 211.557865 
L 55.690747 211.254559 
L 55.853031 211.861171 
L 55.907126 211.888744 
L 55.96122 212.578076 
L 56.015315 212.164477 
L 56.06941 211.557865 
L 56.123504 212.10933 
L 56.177599 211.999037 
L 56.231694 212.054184 
L 56.339883 212.247197 
L 56.610356 211.475145 
L 56.718546 212.302343 
L 56.77264 212.026611 
L 56.826735 211.750878 
L 56.934924 212.605649 
L 57.313587 211.419999 
L 57.367682 212.10933 
L 57.421776 211.916317 
L 57.58406 212.302343 
L 57.69225 211.475145 
L 57.800439 212.605649 
L 57.962723 211.640585 
L 58.070912 211.943891 
L 58.179102 211.530292 
L 58.233196 212.081757 
L 58.287291 211.723305 
L 58.449575 211.171839 
L 58.50367 211.171839 
L 58.611859 210.344641 
L 58.774143 209.40715 
L 58.882332 208.883258 
L 59.2069 212.164477 
L 59.260995 211.888744 
L 59.31509 211.999037 
L 59.369184 212.219623 
L 59.531468 211.668158 
L 59.585563 212.026611 
L 59.639658 211.916317 
L 59.856036 211.309706 
L 60.01832 211.778451 
L 60.072415 211.750878 
L 60.396983 209.958616 
L 60.559267 206.704971 
L 60.721551 207.752755 
L 60.93793 203.313459 
L 61.154308 193.276791 
L 61.208403 193.60767 
L 61.478876 209.986189 
L 61.532971 209.765603 
L 61.587066 209.848323 
L 61.803444 211.695731 
L 61.911634 210.675521 
L 61.965728 211.061546 
L 62.073918 211.557865 
L 62.182107 211.364852 
L 62.344391 209.986189 
L 62.398486 210.096482 
L 62.614864 209.462297 
L 62.831243 211.033973 
L 63.155811 204.967855 
L 63.264 202.238102 
L 63.318095 202.458688 
L 63.588568 208.249073 
L 63.642663 208.2215 
L 63.696758 208.442086 
L 63.967231 200.418267 
L 64.129515 189.499254 
L 64.18361 192.063568 
L 64.454083 210.896107 
L 64.508178 209.931042 
L 64.616367 211.116693 
L 64.670462 210.592801 
L 64.724556 210.620374 
L 64.940935 211.888744 
L 64.99503 211.392425 
L 65.049124 211.806024 
L 65.103219 211.447572 
L 65.265503 212.522929 
L 65.319598 211.723305 
L 65.373692 212.10933 
L 65.481882 211.695731 
L 65.535976 211.833598 
L 65.644166 212.164477 
L 65.860544 210.399788 
L 65.914639 210.096482 
L 66.076923 211.392425 
L 66.131018 210.703094 
L 66.185112 210.868533 
L 66.239207 210.92368 
L 66.293302 211.502719 
L 66.347396 211.254559 
L 66.563775 210.124055 
L 66.61787 209.73803 
L 66.671964 209.820749 
L 66.780154 210.427361 
L 66.834248 209.931042 
L 66.888343 210.068909 
L 66.942438 210.289495 
L 66.996532 210.096482 
L 67.050627 208.938405 
L 67.104722 209.517444 
L 67.212911 210.592801 
L 67.42929 212.329916 
L 67.483384 212.247197 
L 67.537479 212.329916 
L 67.591574 212.743515 
L 67.645668 212.412636 
L 67.699763 212.467783 
L 67.916142 211.999037 
L 67.970236 212.35749 
L 68.024331 211.585438 
L 68.078426 212.27477 
L 68.13252 211.888744 
L 68.186615 212.27477 
L 68.294804 211.337279 
L 68.348899 210.978827 
L 68.402994 211.419999 
L 68.727562 204.912709 
L 69.160319 186.714354 
L 69.214414 189.251095 
L 69.484887 209.131418 
L 69.647171 211.695731 
L 69.701265 211.557865 
L 69.75536 210.592801 
L 69.809455 211.282132 
L 69.971739 210.592801 
L 70.025833 210.427361 
L 70.350401 205.326307 
L 70.404496 203.506472 
L 70.458591 204.774842 
L 70.674969 211.061546 
L 70.729064 211.309706 
L 70.783159 211.116693 
L 70.837253 211.226986 
L 71.107727 209.986189 
L 71.161821 209.848323 
L 71.270011 210.75824 
L 71.540484 207.670035 
L 71.702768 202.81714 
L 71.756863 202.927434 
L 71.810957 202.072662 
L 71.865052 203.258313 
L 71.919147 202.872287 
L 71.973241 202.789567 
L 72.135525 205.464174 
L 72.18962 205.298734 
L 72.405999 199.563495 
L 72.460093 200.307973 
L 72.784661 211.613012 
L 72.838756 212.10933 
L 73.00104 211.061546 
L 73.055135 211.723305 
L 73.109229 211.171839 
L 73.217419 211.419999 
L 73.271513 211.392425 
L 73.596081 209.710456 
L 73.758365 205.574467 
L 73.920649 196.144411 
L 74.028839 187.679419 
L 74.191123 164.131852 
L 74.245217 169.563784 
L 74.461596 193.138925 
L 74.515691 192.752899 
L 74.677975 183.571002 
L 74.732069 185.280545 
L 75.056637 208.745392 
L 75.164827 211.08912 
L 75.218921 210.510081 
L 75.273016 210.124055 
L 75.381205 211.392425 
L 75.4353 211.309706 
L 75.651679 210.041336 
L 75.759868 210.978827 
L 76.030341 209.214138 
L 76.084436 209.352004 
L 76.24672 206.291372 
L 76.463099 197.330061 
L 76.949951 211.530292 
L 77.220424 212.798662 
L 77.274519 212.081757 
L 77.328613 212.136904 
L 77.436803 212.35749 
L 77.544992 211.888744 
L 77.599087 212.219623 
L 77.653181 211.861171 
L 77.815465 212.908955 
L 77.86956 212.798662 
L 77.923655 212.908955 
L 77.977749 212.964101 
L 78.031844 213.267407 
L 78.085939 212.798662 
L 78.140033 212.881382 
L 78.302317 213.019248 
L 78.410507 212.467783 
L 78.464601 212.771089 
L 78.572791 212.054184 
L 78.626885 212.302343 
L 78.68098 212.247197 
L 78.789169 211.0064 
L 78.843264 211.254559 
L 79.167832 212.660796 
L 79.221927 212.164477 
L 79.276021 212.412636 
L 79.330116 212.440209 
L 79.384211 212.605649 
L 79.4924 211.971464 
L 79.546495 212.467783 
L 79.600589 212.385063 
L 79.654684 212.35749 
L 79.708779 212.633222 
L 79.762873 211.640585 
L 79.816968 212.054184 
L 79.871063 211.943891 
L 80.087441 208.993552 
L 80.357915 201.107598 
L 80.520199 189.664694 
L 80.628388 184.591213 
L 80.844767 187.486406 
L 81.11524 169.012319 
L 81.493903 207.780328 
L 81.547997 208.46966 
L 81.602092 208.30422 
L 81.656187 208.056061 
L 81.818471 209.627737 
L 81.92666 210.675521 
L 82.197133 208.2215 
L 82.251228 207.780328 
L 82.413512 200.032241 
L 82.575796 191.429383 
L 82.629891 191.677542 
L 82.900364 204.664549 
L 82.954459 203.534045 
L 83.279027 187.624272 
L 83.657689 209.931042 
L 83.711784 209.875896 
L 83.765879 209.65531 
L 84.090447 211.557865 
L 84.144541 211.502719 
L 84.198636 212.19205 
L 84.306825 212.164477 
L 84.415015 211.337279 
L 84.523204 211.475145 
L 84.685488 212.412636 
L 84.739583 211.364852 
L 84.793677 211.530292 
L 84.955961 212.467783 
L 85.010056 212.302343 
L 85.226435 211.254559 
L 85.334624 211.971464 
L 85.388719 211.916317 
L 85.551003 211.502719 
L 85.605097 211.530292 
L 85.659192 211.778451 
L 85.929665 210.206775 
L 86.254233 200.059814 
L 86.578801 169.095039 
L 86.632896 171.659353 
L 86.903369 194.159136 
L 86.957464 193.497377 
L 87.011559 192.42202 
L 87.49841 206.484385 
L 87.714789 208.717819 
L 87.768884 208.552379 
L 87.931168 205.712333 
L 88.147546 201.87965 
L 88.201641 201.659063 
L 88.472114 207.780328 
L 88.526209 207.670035 
L 88.580304 207.807901 
L 88.688493 206.015639 
L 88.958966 195.565372 
L 89.013061 197.440354 
L 89.283534 208.056061 
L 89.445818 209.379577 
L 89.662197 207.090996 
L 89.770386 203.727058 
L 89.986765 196.061691 
L 90.04086 196.695876 
L 90.149049 199.839228 
L 90.419522 209.269284 
L 90.581806 208.13878 
L 90.74409 208.938405 
L 90.906374 207.284009 
L 91.068658 201.79693 
L 91.230942 193.249218 
L 91.339132 194.793321 
L 91.609605 204.278523 
L 91.6637 203.175593 
L 91.717794 203.313459 
L 91.988268 207.587315 
L 92.204646 200.749146 
L 92.421025 193.442231 
L 92.47512 194.627881 
L 92.745593 208.38694 
L 93.124256 210.344641 
L 93.557013 202.568981 
L 93.665202 205.078148 
L 93.935676 210.951253 
L 94.043865 211.144266 
L 94.260244 209.73803 
L 94.314338 210.068909 
L 94.368433 209.958616 
L 94.422528 209.682883 
L 94.693001 212.467783 
L 94.747096 212.467783 
L 94.80119 212.026611 
L 94.963474 212.688369 
L 95.017569 212.633222 
L 95.071664 213.267407 
L 95.125758 213.101968 
L 95.179853 213.184688 
L 95.342137 212.550503 
L 95.396232 213.239834 
L 95.450326 212.853808 
L 95.504421 212.826235 
L 95.666705 213.62586 
L 95.7208 213.515567 
L 95.828989 213.432847 
L 95.883084 213.653433 
L 95.937178 213.487994 
L 95.991273 213.62586 
L 96.099462 213.129541 
L 96.153557 213.294981 
L 96.261746 212.771089 
L 96.315841 213.350127 
L 96.369936 213.184688 
L 96.478125 213.184688 
L 96.53222 213.570713 
L 96.586314 212.936528 
L 96.640409 213.267407 
L 96.694504 213.54314 
L 96.910882 212.467783 
L 97.073166 213.294981 
L 97.127261 213.294981 
L 97.23545 212.412636 
L 97.289545 212.550503 
L 97.34364 212.385063 
L 97.722302 212.991675 
L 97.776397 212.715942 
L 97.830492 212.853808 
L 97.884586 213.074395 
L 97.938681 212.329916 
L 97.992776 212.688369 
L 98.100965 212.605649 
L 98.15506 212.660796 
L 98.209154 212.771089 
L 98.263249 212.329916 
L 98.317344 212.578076 
L 98.371438 213.101968 
L 98.425533 212.826235 
L 98.479628 212.550503 
L 98.533722 212.936528 
L 98.587817 212.688369 
L 99.020574 209.848323 
L 99.236953 212.054184 
L 99.345142 212.908955 
L 99.507426 212.853808 
L 99.561521 212.440209 
L 99.66971 213.157114 
L 99.723805 212.991675 
L 99.7779 212.936528 
L 99.831994 213.184688 
L 99.886089 212.633222 
L 99.940184 212.660796 
L 100.048373 213.046821 
L 100.264752 212.247197 
L 100.318846 212.302343 
L 100.372941 212.550503 
L 100.427036 211.778451 
L 100.48113 212.026611 
L 100.535225 211.971464 
L 100.697509 211.226986 
L 100.805698 211.668158 
L 101.022077 210.261922 
L 101.346645 203.010153 
L 101.671213 208.800539 
L 101.725308 208.607526 
L 101.779402 207.421875 
L 101.833497 207.807901 
L 101.887592 207.863048 
L 101.941686 208.193927 
L 102.158065 211.668158 
L 102.21216 211.530292 
L 102.320349 211.999037 
L 102.374444 211.557865 
L 102.428538 211.668158 
L 102.482633 211.916317 
L 102.644917 210.951253 
L 102.699012 211.116693 
L 102.91539 208.883258 
L 102.969485 208.331793 
L 103.348148 194.021269 
L 103.456337 186.631635 
L 103.510432 187.127953 
L 103.889094 209.682883 
L 103.997284 209.076271 
L 104.375946 205.51932 
L 104.592325 209.158991 
L 104.64642 209.627737 
L 104.862798 205.409027 
L 104.916893 205.160868 
L 105.025082 207.201289 
L 105.241461 210.703094 
L 105.45784 212.054184 
L 105.511934 211.971464 
L 105.620123 211.033973 
L 105.674218 211.392425 
L 105.728313 211.502719 
L 105.782407 210.75824 
L 105.836502 210.978827 
L 105.890597 211.226986 
L 105.944691 210.510081 
L 105.998786 210.951253 
L 106.106975 211.08912 
L 106.16107 211.806024 
L 106.215165 211.0064 
L 106.269259 211.337279 
L 106.323354 211.585438 
L 106.702017 209.048698 
L 106.810206 207.201289 
L 106.864301 207.807901 
L 107.134774 211.08912 
L 107.188869 210.92368 
L 107.351153 211.502719 
L 107.405247 211.502719 
L 107.567531 209.103845 
L 107.621626 209.379577 
L 107.946194 200.225254 
L 108.000289 200.390693 
L 108.487141 210.730667 
L 108.757614 211.943891 
L 108.865803 211.557865 
L 108.919898 211.861171 
L 108.973993 211.116693 
L 109.028087 211.806024 
L 109.082182 211.337279 
L 109.136277 211.833598 
L 109.190371 212.164477 
L 109.244466 211.943891 
L 109.298561 211.943891 
L 109.352655 211.778451 
L 109.40675 211.999037 
L 109.460845 211.888744 
L 109.785413 210.317068 
L 109.839507 210.565228 
L 109.893602 210.206775 
L 109.947697 210.399788 
L 110.055886 211.971464 
L 110.109981 211.419999 
L 110.164075 211.806024 
L 110.21817 211.668158 
L 110.272265 211.144266 
L 110.326359 211.502719 
L 110.380454 211.668158 
L 110.542738 210.344641 
L 110.921401 193.717963 
L 110.975495 194.021269 
L 111.300063 210.234348 
L 111.354158 210.730667 
L 111.408253 210.454935 
L 111.624631 209.958616 
L 111.84101 208.690246 
L 112.003294 206.236225 
L 112.219673 202.127809 
L 112.814714 210.510081 
L 112.868809 210.951253 
L 112.922903 210.537654 
L 112.976998 210.510081 
L 113.247471 209.545017 
L 113.46385 200.556133 
L 113.680229 190.877917 
L 113.734323 191.181223 
L 114.004797 206.78769 
L 114.112986 206.456811 
L 114.27527 203.478899 
L 114.329365 203.837351 
L 114.437554 205.574467 
L 114.545743 204.829989 
L 114.599838 204.995428 
L 114.708027 204.113084 
L 115.248974 211.392425 
L 115.303069 211.392425 
L 115.357163 211.171839 
L 115.519447 212.35749 
L 115.573542 212.026611 
L 115.627637 212.688369 
L 115.681731 212.302343 
L 115.735826 212.550503 
L 115.952205 211.530292 
L 116.006299 211.557865 
L 116.060394 211.833598 
L 116.114489 211.309706 
L 116.168583 211.778451 
L 116.384962 212.385063 
L 116.439057 212.302343 
L 116.547246 212.10933 
L 116.601341 212.164477 
L 116.70953 212.247197 
L 116.817719 210.951253 
L 117.034098 211.778451 
L 117.196382 211.0064 
L 117.250477 211.061546 
L 117.304571 210.703094 
L 117.358666 210.75824 
L 117.412761 210.785814 
L 117.466855 210.261922 
L 117.52095 210.75824 
L 117.629139 211.888744 
L 117.683234 211.833598 
L 117.737329 212.660796 
L 117.791423 212.550503 
L 117.845518 211.833598 
L 117.953707 211.861171 
L 118.007802 211.999037 
L 118.278275 210.565228 
L 118.33237 210.785814 
L 118.386465 211.806024 
L 118.440559 211.640585 
L 118.548749 211.392425 
L 118.711033 212.688369 
L 118.765127 212.247197 
L 118.819222 212.302343 
L 118.873317 213.212261 
L 118.927411 212.771089 
L 118.981506 212.688369 
L 119.035601 213.322554 
L 119.089695 212.633222 
L 119.14379 212.688369 
L 119.197885 212.826235 
L 119.522453 210.510081 
L 119.792926 212.798662 
L 119.847021 212.522929 
L 119.901115 212.936528 
L 119.95521 212.412636 
L 120.009305 212.826235 
L 120.063399 213.157114 
L 120.117494 212.826235 
L 120.171589 213.101968 
L 120.225683 212.936528 
L 120.279778 212.550503 
L 120.333873 212.771089 
L 120.550251 212.164477 
L 120.658441 212.826235 
L 120.76663 212.164477 
L 120.820725 212.385063 
L 120.874819 212.771089 
L 120.928914 212.660796 
L 120.983009 212.412636 
L 121.199387 213.62586 
L 121.415766 212.688369 
L 121.523955 213.101968 
L 121.57805 213.019248 
L 121.632145 212.688369 
L 121.686239 212.991675 
L 121.740334 212.964101 
L 121.794429 212.798662 
L 121.848523 212.964101 
L 121.902618 213.294981 
L 121.956713 212.964101 
L 122.010807 213.101968 
L 122.064902 213.681006 
L 122.118997 213.3777 
L 122.173091 213.074395 
L 122.227186 213.405274 
L 122.281281 213.129541 
L 122.335375 213.184688 
L 122.38947 213.570713 
L 122.497659 212.936528 
L 122.605849 213.46042 
L 122.768133 212.136904 
L 122.822227 212.798662 
L 122.876322 212.798662 
L 122.930417 213.239834 
L 122.984511 212.964101 
L 123.092701 213.019248 
L 123.146795 213.019248 
L 123.20089 212.826235 
L 123.254985 213.101968 
L 123.309079 212.908955 
L 123.363174 212.743515 
L 123.417269 213.487994 
L 123.471363 213.239834 
L 123.741836 212.550503 
L 123.90412 213.294981 
L 124.01231 212.247197 
L 124.066404 212.633222 
L 124.120499 211.309706 
L 124.174594 211.778451 
L 124.282783 211.447572 
L 124.499162 209.73803 
L 124.553256 209.545017 
L 124.607351 209.600163 
L 124.82373 212.35749 
L 124.877824 211.916317 
L 125.040108 212.19205 
L 125.202392 211.530292 
L 125.256487 211.116693 
L 125.418771 212.385063 
L 125.52696 213.101968 
L 125.581055 212.936528 
L 125.63515 212.605649 
L 125.689244 212.881382 
L 125.959718 213.294981 
L 126.122002 213.019248 
L 126.176096 212.495356 
L 126.230191 212.853808 
L 126.284286 212.881382 
L 126.33838 212.412636 
L 126.392475 212.688369 
L 126.44657 213.046821 
L 126.717043 210.317068 
L 126.771138 210.234348 
L 126.825232 209.57259 
L 126.879327 209.903469 
L 126.933422 210.013762 
L 126.987516 209.241711 
L 127.041611 209.627737 
L 127.1498 210.289495 
L 127.203895 209.765603 
L 127.420274 211.833598 
L 127.528463 212.688369 
L 127.582558 212.164477 
L 127.636652 212.081757 
L 127.690747 212.578076 
L 127.744842 212.440209 
L 127.798936 212.27477 
L 127.907126 213.019248 
L 128.06941 211.475145 
L 128.123504 211.640585 
L 128.177599 211.750878 
L 128.339883 210.896107 
L 128.393978 210.951253 
L 128.556262 212.026611 
L 128.610356 211.695731 
L 128.77264 212.826235 
L 128.826735 212.385063 
L 128.88083 212.550503 
L 129.259492 211.723305 
L 129.313587 211.806024 
L 129.421776 211.916317 
L 129.529966 211.723305 
L 129.58406 212.164477 
L 129.638155 211.723305 
L 129.800439 210.427361 
L 129.854534 211.144266 
L 129.908628 210.92368 
L 130.016818 209.848323 
L 130.070912 210.013762 
L 130.125007 210.896107 
L 130.179102 210.537654 
L 130.233196 210.124055 
L 130.287291 210.427361 
L 130.341386 211.364852 
L 130.39548 211.254559 
L 130.449575 211.0064 
L 130.557764 212.550503 
L 130.611859 211.833598 
L 130.665954 212.412636 
L 130.720048 212.936528 
L 130.774143 212.688369 
L 130.828238 212.688369 
L 130.882332 212.19205 
L 130.936427 212.936528 
L 130.990522 212.302343 
L 131.044616 211.999037 
L 131.098711 212.329916 
L 131.152806 212.054184 
L 131.423279 210.647947 
L 132.072415 213.294981 
L 132.180604 212.467783 
L 132.234699 212.688369 
L 132.288794 212.798662 
L 132.396983 211.943891 
L 132.451078 212.136904 
L 132.505172 212.412636 
L 132.559267 212.164477 
L 132.613362 211.916317 
L 132.667456 212.026611 
L 132.721551 212.081757 
L 132.775646 211.530292 
L 132.82974 212.081757 
L 132.992024 213.157114 
L 133.046119 212.495356 
L 133.100214 212.633222 
L 133.154308 212.633222 
L 133.262498 213.405274 
L 133.370687 212.853808 
L 133.478876 213.350127 
L 133.532971 213.267407 
L 133.695255 212.219623 
L 133.74935 212.329916 
L 133.857539 213.239834 
L 133.911634 212.385063 
L 133.965728 212.715942 
L 134.019823 212.660796 
L 134.073918 212.302343 
L 134.128012 212.743515 
L 134.668959 208.30422 
L 134.885338 211.254559 
L 134.939432 210.75824 
L 135.047622 211.585438 
L 135.101716 211.116693 
L 135.264 212.054184 
L 135.426284 212.771089 
L 135.750852 211.723305 
L 135.804947 211.806024 
L 135.913136 210.703094 
L 135.967231 211.199413 
L 136.021326 211.695731 
L 136.07542 210.454935 
L 136.129515 210.84096 
L 136.99503 213.294981 
L 137.103219 212.688369 
L 137.265503 213.350127 
L 137.319598 212.605649 
L 137.373692 213.129541 
L 137.427787 213.267407 
L 137.590071 212.247197 
L 137.69826 212.385063 
L 137.752355 212.798662 
L 137.914639 212.081757 
L 137.968734 211.943891 
L 138.022828 212.688369 
L 138.076923 212.440209 
L 138.131018 212.247197 
L 138.185112 212.550503 
L 138.347396 212.054184 
L 138.401491 212.026611 
L 138.50968 212.605649 
L 138.780154 210.730667 
L 138.834248 211.171839 
L 138.888343 210.151629 
L 138.942438 210.813387 
L 138.996532 210.785814 
L 139.050627 210.951253 
L 139.104722 210.620374 
L 139.267006 212.164477 
L 139.483384 210.234348 
L 139.537479 210.399788 
L 139.591574 209.820749 
L 139.645668 209.986189 
L 139.699763 210.620374 
L 139.753858 209.517444 
L 139.916142 211.144266 
L 140.186615 212.964101 
L 140.294804 212.826235 
L 140.348899 212.522929 
L 140.511183 213.350127 
L 140.565278 213.267407 
L 140.619372 212.908955 
L 140.673467 213.019248 
L 140.727562 213.432847 
L 140.781656 212.826235 
L 140.835751 212.991675 
L 140.94394 212.908955 
L 141.05213 213.129541 
L 141.106224 213.046821 
L 141.214414 213.54314 
L 141.376698 212.081757 
L 141.430792 212.991675 
L 141.484887 212.440209 
L 141.538981 212.688369 
L 141.593076 212.578076 
L 141.809455 211.613012 
L 141.971739 211.144266 
L 142.025833 211.364852 
L 142.079928 211.613012 
L 142.134023 211.475145 
L 142.188117 211.226986 
L 142.350401 210.068909 
L 142.404496 210.289495 
L 142.56678 211.971464 
L 142.620875 211.888744 
L 142.729064 212.081757 
L 142.891348 211.364852 
L 142.999537 210.206775 
L 143.053632 210.399788 
L 143.215916 209.57259 
L 143.324105 210.399788 
L 143.486389 211.557865 
L 143.594579 211.861171 
L 143.702768 211.502719 
L 143.865052 212.964101 
L 143.919147 212.412636 
L 143.973241 212.578076 
L 144.027336 212.936528 
L 144.18962 212.19205 
L 144.243715 212.081757 
L 144.460093 210.785814 
L 144.514188 210.510081 
L 144.622377 211.557865 
L 144.730567 210.813387 
L 144.838756 211.750878 
L 144.946945 210.785814 
L 145.00104 210.951253 
L 145.055135 211.199413 
L 145.163324 210.261922 
L 145.325608 211.061546 
L 145.379703 210.868533 
L 145.487892 210.124055 
L 145.541987 210.399788 
L 145.596081 210.261922 
L 145.866555 206.567104 
L 145.920649 206.622251 
L 145.974744 206.539531 
L 146.082933 204.526683 
L 146.137028 204.857562 
L 146.245217 206.677397 
L 146.299312 206.567104 
L 146.353407 206.897983 
L 146.569785 209.600163 
L 146.840259 210.75824 
L 146.894353 210.537654 
L 146.948448 210.510081 
L 147.110732 212.081757 
L 147.164827 211.999037 
L 147.218921 211.723305 
L 147.327111 212.27477 
L 147.489395 211.723305 
L 147.597584 212.633222 
L 147.759868 211.916317 
L 147.813963 211.943891 
L 147.922152 212.578076 
L 147.976247 212.385063 
L 148.030341 212.136904 
L 148.084436 211.033973 
L 148.138531 211.447572 
L 148.192625 211.337279 
L 148.24672 211.475145 
L 148.300815 212.054184 
L 148.354909 211.475145 
L 148.409004 211.502719 
L 148.571288 212.026611 
L 148.625383 211.750878 
L 148.679477 212.522929 
L 148.733572 212.412636 
L 148.841761 212.35749 
L 149.004045 211.171839 
L 149.05814 211.226986 
L 149.112235 211.640585 
L 149.274519 209.296857 
L 149.382708 209.600163 
L 149.544992 209.296857 
L 149.761371 211.943891 
L 149.86956 211.695731 
L 149.923655 211.750878 
L 150.031844 212.081757 
L 150.085939 211.337279 
L 150.140033 211.613012 
L 150.248223 211.916317 
L 150.302317 211.364852 
L 150.356412 211.723305 
L 150.572791 212.10933 
L 150.626885 212.247197 
L 150.735075 211.585438 
L 150.789169 212.054184 
L 150.843264 211.999037 
L 150.897359 211.695731 
L 151.005548 212.27477 
L 151.113737 211.613012 
L 151.167832 211.668158 
L 151.221927 211.806024 
L 151.4924 210.068909 
L 151.600589 210.151629 
L 151.654684 210.206775 
L 151.979252 211.806024 
L 152.033347 211.530292 
L 152.195631 210.620374 
L 152.249725 211.0064 
L 152.30382 210.124055 
L 152.357915 210.344641 
L 152.412009 210.372215 
L 152.628388 209.186564 
L 152.844767 211.806024 
L 152.898861 212.054184 
L 152.952956 211.668158 
L 153.007051 211.971464 
L 153.061145 211.999037 
L 153.169335 212.026611 
L 153.223429 211.640585 
L 153.277524 212.19205 
L 153.331619 211.916317 
L 153.385713 211.613012 
L 153.439808 211.695731 
L 153.547997 211.888744 
L 153.656187 210.951253 
L 153.818471 212.081757 
L 153.92666 211.08912 
L 153.980755 211.557865 
L 154.143039 212.522929 
L 154.197133 211.999037 
L 154.467607 212.329916 
L 154.575796 211.778451 
L 154.629891 211.999037 
L 154.683985 212.081757 
L 154.73808 211.723305 
L 154.792175 210.482508 
L 154.846269 211.033973 
L 155.062648 210.041336 
L 155.170837 211.254559 
L 155.224932 211.171839 
L 155.279027 210.978827 
L 155.333121 211.668158 
L 155.387216 211.585438 
L 155.495405 211.502719 
L 155.5495 211.254559 
L 155.657689 212.302343 
L 155.765879 212.081757 
L 155.819973 211.585438 
L 155.874068 211.640585 
L 156.090447 212.936528 
L 156.144541 212.908955 
L 156.198636 212.605649 
L 156.252731 212.991675 
L 156.306825 212.688369 
L 156.36092 212.798662 
L 156.415015 212.715942 
L 156.631393 212.27477 
L 156.685488 212.881382 
L 156.847772 212.081757 
L 156.955961 212.771089 
L 157.010056 212.081757 
L 157.118245 212.991675 
L 157.280529 212.522929 
L 157.551003 211.0064 
L 157.659192 211.888744 
L 157.767381 211.282132 
L 157.821476 211.364852 
L 158.091949 212.467783 
L 158.146044 212.136904 
L 158.200139 212.247197 
L 158.254233 212.633222 
L 158.308328 211.971464 
L 158.362423 212.385063 
L 158.686991 211.530292 
L 158.849275 211.943891 
L 158.903369 211.861171 
L 158.957464 211.999037 
L 159.011559 212.715942 
L 159.065653 212.522929 
L 159.119748 211.999037 
L 159.173843 212.247197 
L 159.227937 212.495356 
L 159.390221 211.695731 
L 159.444316 211.640585 
L 159.49841 211.943891 
L 159.552505 211.447572 
L 159.6066 212.35749 
L 159.660694 212.329916 
L 159.714789 212.219623 
L 159.768884 212.385063 
L 159.822978 212.10933 
L 159.985262 212.743515 
L 160.039357 213.019248 
L 160.093452 212.908955 
L 160.201641 212.688369 
L 160.255736 212.522929 
L 160.363925 212.881382 
L 160.472114 212.026611 
L 160.526209 212.19205 
L 160.580304 212.329916 
L 160.634398 212.136904 
L 160.688493 211.337279 
L 160.742588 211.530292 
L 160.796682 212.054184 
L 160.850777 211.613012 
L 160.958966 211.778451 
L 161.067156 212.10933 
L 161.12125 211.778451 
L 161.175345 212.412636 
L 161.22944 211.833598 
L 161.445818 210.868533 
L 161.554008 210.75824 
L 161.770386 211.254559 
L 161.824481 211.447572 
L 161.878576 211.116693 
L 162.04086 211.861171 
L 162.203144 212.054184 
L 162.311333 211.806024 
L 162.419522 212.743515 
L 162.527712 212.247197 
L 162.581806 212.991675 
L 162.635901 212.715942 
L 162.85228 213.570713 
L 162.906374 213.267407 
L 162.960469 212.964101 
L 163.014564 213.212261 
L 163.068658 213.487994 
L 163.122753 213.239834 
L 163.285037 212.798662 
L 163.393226 213.3777 
L 163.447321 213.350127 
L 163.717794 212.826235 
L 163.825984 211.419999 
L 163.934173 212.302343 
L 164.204646 211.144266 
L 164.312836 211.226986 
L 164.36693 211.447572 
L 164.421025 211.116693 
L 164.47512 211.144266 
L 164.529214 211.254559 
L 164.583309 210.785814 
L 164.637404 211.254559 
L 164.691498 211.061546 
L 164.853782 212.329916 
L 165.016066 212.247197 
L 165.070161 212.412636 
L 165.17835 211.861171 
L 165.232445 212.522929 
L 165.28654 212.164477 
L 165.340634 211.943891 
L 165.394729 212.10933 
L 165.502918 212.329916 
L 165.611108 212.826235 
L 165.665202 212.715942 
L 165.719297 212.908955 
L 165.881581 212.136904 
L 165.98977 212.302343 
L 166.043865 212.10933 
L 166.09796 212.385063 
L 166.206149 211.640585 
L 166.260244 211.971464 
L 166.314338 211.943891 
L 166.368433 212.247197 
L 166.476622 211.640585 
L 166.530717 212.219623 
L 166.638906 212.19205 
L 166.693001 212.27477 
L 166.747096 211.888744 
L 166.80119 212.219623 
L 166.90938 212.440209 
L 166.963474 212.219623 
L 167.017569 212.881382 
L 167.179853 211.861171 
L 167.233948 212.081757 
L 167.288042 211.999037 
L 167.342137 210.896107 
L 167.396232 211.199413 
L 167.558516 212.026611 
L 167.61261 211.806024 
L 167.7208 211.447572 
L 167.883084 212.715942 
L 167.937178 212.771089 
L 168.045368 212.605649 
L 168.099462 213.019248 
L 168.153557 212.743515 
L 168.207652 212.688369 
L 168.261746 212.964101 
L 168.315841 212.771089 
L 168.53222 213.46042 
L 168.586314 213.239834 
L 168.802693 212.522929 
L 168.856788 212.771089 
L 168.964977 212.136904 
L 169.019072 212.660796 
L 169.073166 212.302343 
L 169.127261 211.943891 
L 169.181356 212.164477 
L 169.23545 212.329916 
L 169.397734 211.502719 
L 169.451829 211.585438 
L 169.560018 210.510081 
L 169.722302 211.916317 
L 169.776397 211.640585 
L 169.938681 213.019248 
L 169.992776 212.633222 
L 170.04687 212.605649 
L 170.100965 213.101968 
L 170.15506 212.302343 
L 170.209154 212.798662 
L 170.263249 212.908955 
L 170.425533 212.35749 
L 170.479628 212.715942 
L 170.750101 211.254559 
L 170.85829 211.695731 
L 170.912385 211.144266 
L 170.96648 211.585438 
L 171.074669 211.833598 
L 171.182858 211.447572 
L 171.236953 211.778451 
L 171.345142 212.798662 
L 171.399237 212.715942 
L 171.453332 211.916317 
L 171.507426 212.467783 
L 171.615616 212.771089 
L 171.723805 212.35749 
L 171.7779 212.440209 
L 171.831994 212.853808 
L 171.886089 212.715942 
L 171.994278 212.164477 
L 172.048373 211.557865 
L 172.102468 211.943891 
L 172.156562 212.385063 
L 172.210657 212.35749 
L 172.372941 212.026611 
L 172.48113 212.826235 
L 172.535225 212.633222 
L 172.58932 212.054184 
L 172.697509 212.081757 
L 172.859793 212.798662 
L 172.967982 212.908955 
L 173.022077 213.294981 
L 173.076172 212.578076 
L 173.130266 212.881382 
L 173.184361 213.074395 
L 173.238456 213.70858 
L 173.346645 212.715942 
L 173.40074 213.432847 
L 173.454834 212.771089 
L 173.508929 213.157114 
L 173.671213 212.302343 
L 173.725308 212.302343 
L 173.779402 212.660796 
L 173.833497 212.19205 
L 173.887592 212.633222 
L 173.941686 213.019248 
L 174.049876 212.991675 
L 174.10397 213.157114 
L 174.158065 213.074395 
L 174.21216 212.881382 
L 174.266254 213.653433 
L 174.320349 213.515567 
L 174.482633 213.101968 
L 174.590822 212.826235 
L 174.699012 213.074395 
L 174.807201 212.412636 
L 174.91539 213.267407 
L 175.077674 212.19205 
L 175.131769 212.35749 
L 175.185864 212.385063 
L 175.294053 211.806024 
L 175.348148 212.081757 
L 175.402242 211.861171 
L 175.456337 212.10933 
L 175.510432 211.778451 
L 175.564526 211.833598 
L 175.72681 212.550503 
L 175.780905 212.247197 
L 175.997284 213.515567 
L 176.051378 213.322554 
L 176.105473 213.350127 
L 176.159568 213.598287 
L 176.213662 213.3777 
L 176.321852 212.826235 
L 176.430041 213.763726 
L 176.484136 213.70858 
L 176.53823 213.405274 
L 176.592325 213.62586 
L 176.754609 213.294981 
L 176.862798 213.653433 
L 177.025082 213.212261 
L 177.187366 213.487994 
L 177.295556 213.212261 
L 177.403745 213.267407 
L 177.620123 214.122179 
L 177.728313 213.763726 
L 177.782407 213.846446 
L 177.998786 213.405274 
L 178.16107 213.267407 
L 178.215165 213.322554 
L 178.269259 212.715942 
L 178.323354 213.019248 
L 178.377449 213.074395 
L 178.431543 212.991675 
L 178.485638 212.826235 
L 178.539733 213.101968 
L 178.593827 212.853808 
L 178.756111 212.771089 
L 178.810206 212.908955 
L 178.97249 212.522929 
L 179.026585 212.329916 
L 179.297058 213.70858 
L 179.405247 213.019248 
L 179.459342 213.350127 
L 179.621626 213.929166 
L 179.675721 213.405274 
L 179.729815 213.929166 
L 179.838005 213.818873 
L 179.892099 213.70858 
L 179.946194 213.736153 
L 180.000289 214.067032 
L 180.054383 213.929166 
L 180.162573 213.681006 
L 180.378951 214.260045 
L 180.487141 213.598287 
L 180.59533 213.929166 
L 180.649425 213.129541 
L 180.703519 213.598287 
L 180.811709 213.487994 
L 180.865803 213.322554 
L 181.082182 213.956739 
L 181.190371 213.54314 
L 181.244466 213.70858 
L 181.298561 213.54314 
L 181.352655 213.818873 
L 181.40675 213.653433 
L 181.460845 213.570713 
L 181.514939 214.094605 
L 181.569034 213.984312 
L 181.623129 213.929166 
L 181.677223 213.54314 
L 181.731318 213.929166 
L 181.947697 213.570713 
L 182.001791 213.62586 
L 182.055886 213.874019 
L 182.109981 213.763726 
L 182.164075 213.818873 
L 182.21817 214.039459 
L 182.272265 213.956739 
L 182.326359 213.956739 
L 182.434549 213.54314 
L 182.542738 214.094605 
L 182.650927 213.570713 
L 182.759117 213.598287 
L 182.921401 214.232472 
L 182.975495 214.260045 
L 183.137779 213.901592 
L 183.191874 214.260045 
L 183.245969 214.039459 
L 183.300063 213.70858 
L 183.354158 214.011886 
L 183.570537 213.62586 
L 183.624631 213.929166 
L 183.678726 213.874019 
L 183.84101 213.267407 
L 184.057389 214.122179 
L 184.273767 213.54314 
L 184.381957 213.984312 
L 184.436051 213.956739 
L 184.65243 213.70858 
L 184.706525 213.62586 
L 184.760619 213.019248 
L 184.814714 213.322554 
L 184.868809 213.239834 
L 185.031093 213.570713 
L 185.193377 213.3777 
L 185.355661 212.853808 
L 185.517945 213.3777 
L 185.626134 212.964101 
L 185.680229 213.3777 
L 185.734323 213.019248 
L 185.788418 213.129541 
L 185.842513 212.908955 
L 185.896607 213.294981 
L 186.058891 212.385063 
L 186.221175 213.846446 
L 186.329365 214.149752 
L 186.383459 214.039459 
L 186.491649 213.62586 
L 186.545743 213.70858 
L 186.599838 213.763726 
L 186.653933 214.011886 
L 186.708027 213.846446 
L 186.870311 213.54314 
L 186.924406 214.011886 
L 186.978501 213.322554 
L 187.032595 213.598287 
L 187.140785 213.956739 
L 187.194879 213.598287 
L 187.248974 213.984312 
L 187.357163 213.515567 
L 187.465353 213.984312 
L 187.519447 213.818873 
L 187.627637 213.432847 
L 187.681731 213.570713 
L 187.789921 213.267407 
L 187.89811 213.874019 
L 187.952205 213.598287 
L 188.006299 213.763726 
L 188.060394 213.736153 
L 188.114489 213.901592 
L 188.168583 213.653433 
L 188.276773 214.067032 
L 188.439057 213.322554 
L 188.493151 213.129541 
L 188.547246 213.681006 
L 188.601341 213.487994 
L 188.763625 213.901592 
L 188.817719 213.239834 
L 188.871814 213.570713 
L 188.980003 213.598287 
L 189.034098 213.432847 
L 189.088193 213.570713 
L 189.142287 214.315191 
L 189.196382 213.901592 
L 189.250477 213.681006 
L 189.358666 214.149752 
L 189.466855 213.598287 
L 189.52095 213.818873 
L 189.629139 213.70858 
L 189.683234 214.177325 
L 189.737329 214.122179 
L 189.791423 213.874019 
L 189.953707 214.425484 
L 190.115991 213.846446 
L 190.170086 213.929166 
L 190.224181 213.846446 
L 190.33237 214.204898 
L 190.440559 213.763726 
L 190.494654 213.901592 
L 190.548749 214.149752 
L 190.656938 213.681006 
L 190.711033 213.736153 
L 190.873317 214.177325 
L 190.927411 214.177325 
L 190.981506 214.342765 
L 191.089695 213.598287 
L 191.197885 213.901592 
L 191.251979 213.874019 
L 191.306074 213.405274 
L 191.360169 213.846446 
L 191.468358 213.487994 
L 191.522453 213.322554 
L 191.630642 213.984312 
L 191.684737 213.405274 
L 191.738831 213.598287 
L 191.847021 214.039459 
L 191.95521 213.350127 
L 192.009305 213.846446 
L 192.063399 213.515567 
L 192.117494 213.570713 
L 192.225683 213.129541 
L 192.279778 213.405274 
L 192.333873 213.184688 
L 192.387967 212.991675 
L 192.442062 213.101968 
L 192.550251 213.212261 
L 192.658441 213.736153 
L 192.712535 213.267407 
L 192.76663 213.405274 
L 192.983009 214.011886 
L 193.037103 213.62586 
L 193.091198 213.929166 
L 193.307577 213.239834 
L 193.469861 213.681006 
L 193.523955 213.70858 
L 193.57805 213.3777 
L 193.632145 213.62586 
L 193.740334 213.846446 
L 193.848523 213.350127 
L 193.902618 213.791299 
L 193.956713 213.515567 
L 194.010807 213.570713 
L 194.064902 213.929166 
L 194.118997 213.570713 
L 194.227186 213.653433 
L 194.281281 214.067032 
L 194.335375 214.011886 
L 194.38947 213.984312 
L 194.443565 213.653433 
L 194.497659 213.901592 
L 194.605849 214.039459 
L 194.659943 214.397911 
L 194.714038 214.232472 
L 194.822227 213.874019 
L 194.930417 214.039459 
L 194.984511 213.515567 
L 195.092701 213.54314 
L 195.146795 213.763726 
L 195.309079 213.267407 
L 195.363174 213.515567 
L 195.471363 212.964101 
L 195.525458 213.54314 
L 195.579552 213.432847 
L 195.741836 213.239834 
L 195.795931 212.853808 
L 195.90412 213.515567 
L 196.066404 212.881382 
L 196.228688 213.157114 
L 196.282783 213.074395 
L 196.390972 213.736153 
L 196.445067 213.570713 
L 196.553256 212.991675 
L 196.607351 213.350127 
L 196.769635 213.763726 
L 196.82373 213.653433 
L 196.877824 213.681006 
L 196.931919 214.011886 
L 196.986014 213.984312 
L 197.040108 213.956739 
L 197.094203 213.54314 
L 197.148298 213.984312 
L 197.256487 213.763726 
L 197.418771 214.315191 
L 197.472866 214.039459 
L 197.52696 214.122179 
L 197.63515 214.122179 
L 197.743339 213.736153 
L 197.851528 214.122179 
L 198.067907 213.62586 
L 198.122002 213.929166 
L 198.176096 213.432847 
L 198.230191 213.874019 
L 198.284286 213.984312 
L 198.33838 213.62586 
L 198.392475 213.70858 
L 198.44657 214.039459 
L 198.500664 213.818873 
L 198.554759 213.350127 
L 198.608854 213.846446 
L 198.771138 212.881382 
L 198.825232 213.791299 
L 198.879327 213.681006 
L 199.041611 213.184688 
L 199.095706 213.515567 
L 199.1498 213.3777 
L 199.203895 212.936528 
L 199.25799 212.964101 
L 199.312084 212.991675 
L 199.582558 213.62586 
L 199.690747 213.570713 
L 199.744842 213.846446 
L 199.798936 213.598287 
L 200.015315 213.129541 
L 200.06941 213.432847 
L 200.123504 213.405274 
L 200.177599 213.405274 
L 200.285788 213.681006 
L 200.393978 213.267407 
L 200.502167 213.929166 
L 200.556262 213.736153 
L 200.610356 214.232472 
L 200.664451 213.791299 
L 200.718546 213.901592 
L 200.77264 213.515567 
L 200.826735 214.204898 
L 200.88083 213.736153 
L 200.989019 213.184688 
L 201.043114 213.46042 
L 201.151303 213.3777 
L 201.205398 213.681006 
L 201.313587 212.826235 
L 201.367682 213.101968 
L 201.475871 213.074395 
L 201.529966 213.239834 
L 201.800439 212.467783 
L 202.016818 213.322554 
L 202.125007 213.129541 
L 202.341386 213.515567 
L 202.39548 212.798662 
L 202.449575 212.964101 
L 202.557764 212.908955 
L 202.611859 212.881382 
L 202.774143 213.46042 
L 202.828238 213.267407 
L 202.882332 213.046821 
L 203.044616 213.62586 
L 203.152806 213.54314 
L 203.2069 213.901592 
L 203.260995 213.681006 
L 203.423279 213.267407 
L 203.477374 213.432847 
L 203.531468 213.322554 
L 203.585563 213.350127 
L 203.801942 212.771089 
L 203.856036 212.798662 
L 203.910131 213.184688 
L 203.964226 213.101968 
L 204.12651 212.771089 
L 204.180604 213.3777 
L 204.234699 213.294981 
L 204.342888 213.019248 
L 204.396983 213.101968 
L 204.451078 213.046821 
L 204.505172 213.70858 
L 204.559267 213.3777 
L 204.667456 213.598287 
L 204.775646 213.019248 
L 204.82974 213.350127 
L 204.883835 213.54314 
L 204.992024 213.157114 
L 205.100214 213.681006 
L 205.154308 213.3777 
L 205.208403 213.267407 
L 205.262498 213.322554 
L 205.370687 213.818873 
L 205.424782 213.736153 
L 205.64116 214.149752 
L 205.803444 213.212261 
L 205.857539 213.322554 
L 205.911634 213.874019 
L 205.965728 213.322554 
L 206.019823 213.515567 
L 206.073918 213.3777 
L 206.128012 212.908955 
L 206.182107 213.62586 
L 206.236202 213.46042 
L 206.290296 213.515567 
L 206.398486 214.149752 
L 206.45258 214.011886 
L 206.506675 213.956739 
L 206.668959 213.405274 
L 206.831243 213.54314 
L 206.885338 213.3777 
L 206.939432 213.405274 
L 206.993527 213.681006 
L 207.047622 213.54314 
L 207.155811 213.405274 
L 207.264 213.62586 
L 207.37219 213.212261 
L 207.426284 213.70858 
L 207.480379 213.432847 
L 207.588568 213.598287 
L 207.642663 213.432847 
L 207.696758 213.70858 
L 207.750852 213.681006 
L 208.021326 213.212261 
L 208.07542 213.736153 
L 208.129515 213.405274 
L 208.237704 213.681006 
L 208.345894 213.074395 
L 208.454083 213.515567 
L 208.616367 212.991675 
L 208.670462 213.184688 
L 208.778651 213.681006 
L 208.832746 212.991675 
L 208.88684 213.405274 
L 208.940935 213.405274 
L 209.103219 213.074395 
L 209.265503 213.267407 
L 209.427787 212.715942 
L 209.481882 212.688369 
L 209.535976 213.46042 
L 209.590071 213.294981 
L 209.69826 213.046821 
L 209.752355 213.46042 
L 209.860544 213.432847 
L 209.914639 213.598287 
L 209.968734 213.487994 
L 210.022828 212.964101 
L 210.076923 213.46042 
L 210.131018 213.350127 
L 210.185112 213.763726 
L 210.239207 213.653433 
L 210.293302 213.074395 
L 210.347396 213.3777 
L 210.61787 214.039459 
L 210.671964 213.239834 
L 210.726059 213.791299 
L 210.780154 213.62586 
L 210.942438 214.287618 
L 210.996532 213.681006 
L 211.050627 214.039459 
L 211.104722 214.039459 
L 211.212911 213.791299 
L 211.3211 213.984312 
L 211.375195 213.736153 
L 211.42929 214.260045 
L 211.483384 214.011886 
L 211.537479 213.515567 
L 211.591574 213.570713 
L 211.645668 213.929166 
L 211.699763 213.846446 
L 211.753858 213.432847 
L 211.807952 213.736153 
L 211.862047 213.763726 
L 211.970236 213.487994 
L 212.13252 213.901592 
L 212.186615 213.432847 
L 212.294804 213.46042 
L 212.348899 213.791299 
L 212.402994 213.405274 
L 212.457088 213.432847 
L 212.511183 213.736153 
L 212.565278 213.3777 
L 212.619372 214.094605 
L 212.673467 213.46042 
L 212.781656 213.763726 
L 212.835751 213.405274 
L 212.889846 213.681006 
L 212.998035 213.901592 
L 213.106224 213.570713 
L 213.160319 214.177325 
L 213.214414 214.039459 
L 213.322603 213.681006 
L 213.376698 213.736153 
L 213.484887 214.177325 
L 213.538981 213.874019 
L 213.593076 214.094605 
L 213.647171 214.122179 
L 213.701265 214.342765 
L 213.75536 214.067032 
L 213.809455 214.149752 
L 213.863549 214.232472 
L 214.025833 213.570713 
L 214.296307 214.232472 
L 214.56678 213.432847 
L 214.674969 213.70858 
L 214.837253 214.149752 
L 214.999537 213.432847 
L 215.053632 213.432847 
L 215.107727 214.094605 
L 215.161821 213.984312 
L 215.215916 214.011886 
L 215.270011 213.570713 
L 215.324105 213.62586 
L 215.3782 213.62586 
L 215.432295 213.929166 
L 215.486389 213.70858 
L 215.540484 213.212261 
L 215.594579 213.350127 
L 215.648673 213.267407 
L 215.756863 213.570713 
L 215.810957 213.019248 
L 215.865052 213.239834 
L 215.919147 213.267407 
L 215.973241 213.874019 
L 216.027336 213.62586 
L 216.18962 213.129541 
L 216.243715 213.019248 
L 216.351904 213.239834 
L 216.405999 213.019248 
L 216.514188 213.487994 
L 216.676472 213.157114 
L 216.784661 213.681006 
L 216.838756 213.267407 
L 216.892851 213.54314 
L 217.055135 214.094605 
L 217.109229 213.874019 
L 217.217419 213.157114 
L 217.325608 213.956739 
L 217.379703 213.929166 
L 217.541987 214.011886 
L 217.596081 213.846446 
L 217.650176 213.901592 
L 217.758365 214.149752 
L 217.81246 213.62586 
L 217.866555 213.681006 
L 217.920649 214.122179 
L 217.974744 214.039459 
L 218.028839 213.901592 
L 218.082933 213.929166 
L 218.245217 214.232472 
L 218.353407 213.736153 
L 218.407501 213.874019 
L 218.461596 214.149752 
L 218.515691 213.929166 
L 218.569785 214.011886 
L 218.677975 213.515567 
L 218.732069 214.094605 
L 218.786164 213.405274 
L 218.840259 213.956739 
L 218.894353 214.232472 
L 218.948448 213.956739 
L 219.110732 213.653433 
L 219.164827 213.901592 
L 219.218921 213.653433 
L 219.273016 213.653433 
L 219.327111 214.039459 
L 219.381205 213.653433 
L 219.4353 213.46042 
L 219.489395 213.54314 
L 219.543489 213.681006 
L 219.597584 213.487994 
L 219.651679 213.54314 
L 219.922152 214.287618 
L 219.976247 213.874019 
L 220.030341 214.011886 
L 220.084436 213.984312 
L 220.192625 213.791299 
L 220.24672 213.874019 
L 220.300815 214.260045 
L 220.354909 213.874019 
L 220.409004 214.177325 
L 220.463099 213.929166 
L 220.517193 213.267407 
L 220.571288 213.54314 
L 220.679477 213.846446 
L 220.733572 213.681006 
L 220.841761 214.039459 
L 220.895856 213.598287 
L 220.949951 213.736153 
L 221.004045 214.232472 
L 221.05814 213.3777 
L 221.112235 213.570713 
L 221.166329 213.736153 
L 221.328613 213.432847 
L 221.490897 214.011886 
L 221.599087 213.212261 
L 221.653181 213.70858 
L 221.86956 213.46042 
L 221.923655 213.736153 
L 221.977749 213.515567 
L 222.031844 213.019248 
L 222.085939 213.46042 
L 222.194128 212.908955 
L 222.410507 213.598287 
L 222.518696 213.3777 
L 222.68098 213.598287 
L 222.789169 214.204898 
L 222.897359 213.763726 
L 222.951453 214.039459 
L 223.005548 213.570713 
L 223.059643 213.736153 
L 223.113737 213.956739 
L 223.167832 213.901592 
L 223.221927 213.929166 
L 223.276021 213.736153 
L 223.330116 213.791299 
L 223.600589 214.508204 
L 223.762873 213.62586 
L 223.871063 214.177325 
L 223.979252 213.984312 
L 224.033347 214.287618 
L 224.087441 214.149752 
L 224.141536 214.067032 
L 224.195631 213.736153 
L 224.357915 214.342765 
L 224.466104 213.570713 
L 224.520199 213.681006 
L 224.628388 214.204898 
L 224.736577 213.432847 
L 224.790672 214.011886 
L 224.844767 213.70858 
L 224.898861 213.212261 
L 224.952956 213.3777 
L 225.169335 213.901592 
L 225.331619 213.598287 
L 225.493903 213.846446 
L 225.602092 213.212261 
L 225.656187 213.432847 
L 225.818471 214.067032 
L 225.872565 213.791299 
L 225.92666 213.984312 
L 225.980755 214.039459 
L 226.034849 213.763726 
L 226.088944 214.011886 
L 226.305323 214.094605 
L 226.359417 213.956739 
L 226.413512 214.094605 
L 226.467607 214.177325 
L 226.521701 214.094605 
L 226.683985 213.736153 
L 226.900364 214.232472 
L 227.116743 213.681006 
L 227.224932 214.149752 
L 227.279027 213.818873 
L 227.333121 214.039459 
L 227.441311 213.46042 
L 227.495405 213.818873 
L 227.603595 213.901592 
L 227.657689 213.487994 
L 227.711784 213.681006 
L 227.765879 213.62586 
L 227.819973 213.736153 
L 227.928163 213.3777 
L 227.982257 214.122179 
L 228.036352 214.094605 
L 228.144541 213.570713 
L 228.252731 214.260045 
L 228.415015 213.874019 
L 228.469109 213.901592 
L 228.523204 213.322554 
L 228.577299 213.681006 
L 228.685488 214.067032 
L 228.739583 213.956739 
L 228.793677 214.011886 
L 228.847772 213.791299 
L 228.901867 213.874019 
L 228.955961 214.011886 
L 229.010056 213.984312 
L 229.064151 213.681006 
L 229.118245 213.818873 
L 229.226435 213.570713 
L 229.280529 213.874019 
L 229.334624 213.598287 
L 229.551003 213.736153 
L 229.659192 213.487994 
L 229.767381 214.177325 
L 229.821476 214.094605 
L 229.875571 214.067032 
L 229.98376 214.342765 
L 230.037855 214.232472 
L 230.146044 214.260045 
L 230.200139 213.791299 
L 230.308328 214.370338 
L 230.362423 214.122179 
L 230.416517 214.342765 
L 230.470612 214.397911 
L 230.524707 214.011886 
L 230.578801 214.232472 
L 230.686991 213.984312 
L 230.79518 214.756364 
L 230.849275 214.618497 
L 231.011559 213.929166 
L 231.173843 214.342765 
L 231.227937 214.260045 
L 231.282032 214.287618 
L 231.390221 214.618497 
L 231.552505 213.901592 
L 231.714789 214.673644 
L 231.768884 214.094605 
L 231.822978 214.232472 
L 231.877073 214.453058 
L 231.931168 214.315191 
L 231.985262 214.094605 
L 232.039357 214.397911 
L 232.147546 213.956739 
L 232.201641 214.067032 
L 232.255736 214.039459 
L 232.30983 213.598287 
L 232.363925 213.736153 
L 232.41802 214.039459 
L 232.472114 213.874019 
L 232.580304 214.149752 
L 232.634398 213.846446 
L 232.796682 214.260045 
L 232.958966 213.791299 
L 233.013061 213.956739 
L 233.067156 214.011886 
L 233.12125 214.397911 
L 233.175345 214.232472 
L 233.22944 213.874019 
L 233.283534 214.067032 
L 233.337629 214.342765 
L 233.391724 213.874019 
L 233.445818 214.094605 
L 233.662197 214.590924 
L 233.716292 214.590924 
L 233.878576 213.901592 
L 233.93267 214.232472 
L 233.93267 214.232472 
" clip-path="url(#p26b6bf25a9)" style="fill: none; stroke: #1f77b4; stroke-width: 0.7; stroke-linecap: square"/>
   </g>
   <g id="patch_3">
    <path d="M 20.878125 224.64 
L 20.878125 7.2 
" style="fill: none; stroke: #000000; stroke-width: 0.8; stroke-linejoin: miter; stroke-linecap: square"/>
   </g>
   <g id="patch_4">
    <path d="M 244.078125 224.64 
L 244.078125 7.2 
" style="fill: none; stroke: #000000; stroke-width: 0.8; stroke-linejoin: miter; stroke-linecap: square"/>
   </g>
   <g id="patch_5">
    <path d="M 20.878125 224.64 
L 244.078125 224.64 
" style="fill: none; stroke: #000000; stroke-width: 0.8; stroke-linejoin: miter; stroke-linecap: square"/>
   </g>
   <g id="patch_6">
    <path d="M 20.878125 7.2 
L 244.078125 7.2 
" style="fill: none; stroke: #000000; stroke-width: 0.8; stroke-linejoin: miter; stroke-linecap: square"/>
   </g>
  </g>
 </g>
 <defs>
  <clipPath id="p26b6bf25a9">
   <rect x="20.878125" y="7.2" width="223.2" height="217.44"/>
  </clipPath>
 </defs>
</svg>
