<?xml version="1.0" encoding="utf-8" standalone="no"?>
<!DOCTYPE svg PUBLIC "-//W3C//DTD SVG 1.1//EN"
  "http://www.w3.org/Graphics/SVG/1.1/DTD/svg11.dtd">
<!-- Created with matplotlib (https://matplotlib.org/) -->
<svg height="305.68425pt" version="1.1" viewBox="0 0 306.470469 305.68425" width="306.470469pt" xmlns="http://www.w3.org/2000/svg" xmlns:xlink="http://www.w3.org/1999/xlink">
 <metadata>
  <rdf:RDF xmlns:cc="http://creativecommons.org/ns#" xmlns:dc="http://purl.org/dc/elements/1.1/" xmlns:rdf="http://www.w3.org/1999/02/22-rdf-syntax-ns#">
   <cc:Work>
    <dc:type rdf:resource="http://purl.org/dc/dcmitype/StillImage"/>
    <dc:date>2021-02-24T12:51:29.362675</dc:date>
    <dc:format>image/svg+xml</dc:format>
    <dc:creator>
     <cc:Agent>
      <dc:title>Matplotlib v3.3.4, https://matplotlib.org/</dc:title>
     </cc:Agent>
    </dc:creator>
   </cc:Work>
  </rdf:RDF>
 </metadata>
 <defs>
  <style type="text/css">*{stroke-linecap:butt;stroke-linejoin:round;}</style>
 </defs>
 <g id="figure_1">
  <g id="patch_1">
   <path d="M 0 305.68425 
L 306.470469 305.68425 
L 306.470469 0 
L 0 0 
z
" style="fill:#ffffff;"/>
  </g>
  <g id="axes_1">
   <g id="patch_2">
    <path d="M 20.878125 268.128 
L 288.718125 268.128 
L 288.718125 7.2 
L 20.878125 7.2 
z
" style="fill:#ffffff;"/>
   </g>
   <g id="matplotlib.axis_1">
    <g id="xtick_1">
     <g id="line2d_1">
      <defs>
       <path d="M 0 0 
L 0 3.5 
" id="m9e95012527" style="stroke:#000000;stroke-width:0.8;"/>
      </defs>
      <g>
       <use style="stroke:#000000;stroke-width:0.8;" x="288.718125" xlink:href="#m9e95012527" y="268.128"/>
      </g>
     </g>
     <g id="text_1">
      <!-- −10 -->
      <g transform="translate(278.165781 282.726437)scale(0.1 -0.1)">
       <defs>
        <path d="M 10.59375 35.5 
L 73.1875 35.5 
L 73.1875 27.203125 
L 10.59375 27.203125 
z
" id="DejaVuSans-8722"/>
        <path d="M 12.40625 8.296875 
L 28.515625 8.296875 
L 28.515625 63.921875 
L 10.984375 60.40625 
L 10.984375 69.390625 
L 28.421875 72.90625 
L 38.28125 72.90625 
L 38.28125 8.296875 
L 54.390625 8.296875 
L 54.390625 0 
L 12.40625 0 
z
" id="DejaVuSans-49"/>
        <path d="M 31.78125 66.40625 
Q 24.171875 66.40625 20.328125 58.90625 
Q 16.5 51.421875 16.5 36.375 
Q 16.5 21.390625 20.328125 13.890625 
Q 24.171875 6.390625 31.78125 6.390625 
Q 39.453125 6.390625 43.28125 13.890625 
Q 47.125 21.390625 47.125 36.375 
Q 47.125 51.421875 43.28125 58.90625 
Q 39.453125 66.40625 31.78125 66.40625 
z
M 31.78125 74.21875 
Q 44.046875 74.21875 50.515625 64.515625 
Q 56.984375 54.828125 56.984375 36.375 
Q 56.984375 17.96875 50.515625 8.265625 
Q 44.046875 -1.421875 31.78125 -1.421875 
Q 19.53125 -1.421875 13.0625 8.265625 
Q 6.59375 17.96875 6.59375 36.375 
Q 6.59375 54.828125 13.0625 64.515625 
Q 19.53125 74.21875 31.78125 74.21875 
z
" id="DejaVuSans-48"/>
       </defs>
       <use xlink:href="#DejaVuSans-8722"/>
       <use x="83.789062" xlink:href="#DejaVuSans-49"/>
       <use x="147.412109" xlink:href="#DejaVuSans-48"/>
      </g>
     </g>
    </g>
    <g id="xtick_2">
     <g id="line2d_2">
      <g>
       <use style="stroke:#000000;stroke-width:0.8;" x="253.006125" xlink:href="#m9e95012527" y="268.128"/>
      </g>
     </g>
     <g id="text_2">
      <!-- 0 -->
      <g transform="translate(249.824875 282.726437)scale(0.1 -0.1)">
       <use xlink:href="#DejaVuSans-48"/>
      </g>
     </g>
    </g>
    <g id="xtick_3">
     <g id="line2d_3">
      <g>
       <use style="stroke:#000000;stroke-width:0.8;" x="217.294125" xlink:href="#m9e95012527" y="268.128"/>
      </g>
     </g>
     <g id="text_3">
      <!-- 10 -->
      <g transform="translate(210.931625 282.726437)scale(0.1 -0.1)">
       <use xlink:href="#DejaVuSans-49"/>
       <use x="63.623047" xlink:href="#DejaVuSans-48"/>
      </g>
     </g>
    </g>
    <g id="xtick_4">
     <g id="line2d_4">
      <g>
       <use style="stroke:#000000;stroke-width:0.8;" x="181.582125" xlink:href="#m9e95012527" y="268.128"/>
      </g>
     </g>
     <g id="text_4">
      <!-- 20 -->
      <g transform="translate(175.219625 282.726437)scale(0.1 -0.1)">
       <defs>
        <path d="M 19.1875 8.296875 
L 53.609375 8.296875 
L 53.609375 0 
L 7.328125 0 
L 7.328125 8.296875 
Q 12.9375 14.109375 22.625 23.890625 
Q 32.328125 33.6875 34.8125 36.53125 
Q 39.546875 41.84375 41.421875 45.53125 
Q 43.3125 49.21875 43.3125 52.78125 
Q 43.3125 58.59375 39.234375 62.25 
Q 35.15625 65.921875 28.609375 65.921875 
Q 23.96875 65.921875 18.8125 64.3125 
Q 13.671875 62.703125 7.8125 59.421875 
L 7.8125 69.390625 
Q 13.765625 71.78125 18.9375 73 
Q 24.125 74.21875 28.421875 74.21875 
Q 39.75 74.21875 46.484375 68.546875 
Q 53.21875 62.890625 53.21875 53.421875 
Q 53.21875 48.921875 51.53125 44.890625 
Q 49.859375 40.875 45.40625 35.40625 
Q 44.1875 33.984375 37.640625 27.21875 
Q 31.109375 20.453125 19.1875 8.296875 
z
" id="DejaVuSans-50"/>
       </defs>
       <use xlink:href="#DejaVuSans-50"/>
       <use x="63.623047" xlink:href="#DejaVuSans-48"/>
      </g>
     </g>
    </g>
    <g id="xtick_5">
     <g id="line2d_5">
      <g>
       <use style="stroke:#000000;stroke-width:0.8;" x="145.870125" xlink:href="#m9e95012527" y="268.128"/>
      </g>
     </g>
     <g id="text_5">
      <!-- 30 -->
      <g transform="translate(139.507625 282.726437)scale(0.1 -0.1)">
       <defs>
        <path d="M 40.578125 39.3125 
Q 47.65625 37.796875 51.625 33 
Q 55.609375 28.21875 55.609375 21.1875 
Q 55.609375 10.40625 48.1875 4.484375 
Q 40.765625 -1.421875 27.09375 -1.421875 
Q 22.515625 -1.421875 17.65625 -0.515625 
Q 12.796875 0.390625 7.625 2.203125 
L 7.625 11.71875 
Q 11.71875 9.328125 16.59375 8.109375 
Q 21.484375 6.890625 26.8125 6.890625 
Q 36.078125 6.890625 40.9375 10.546875 
Q 45.796875 14.203125 45.796875 21.1875 
Q 45.796875 27.640625 41.28125 31.265625 
Q 36.765625 34.90625 28.71875 34.90625 
L 20.21875 34.90625 
L 20.21875 43.015625 
L 29.109375 43.015625 
Q 36.375 43.015625 40.234375 45.921875 
Q 44.09375 48.828125 44.09375 54.296875 
Q 44.09375 59.90625 40.109375 62.90625 
Q 36.140625 65.921875 28.71875 65.921875 
Q 24.65625 65.921875 20.015625 65.03125 
Q 15.375 64.15625 9.8125 62.3125 
L 9.8125 71.09375 
Q 15.4375 72.65625 20.34375 73.4375 
Q 25.25 74.21875 29.59375 74.21875 
Q 40.828125 74.21875 47.359375 69.109375 
Q 53.90625 64.015625 53.90625 55.328125 
Q 53.90625 49.265625 50.4375 45.09375 
Q 46.96875 40.921875 40.578125 39.3125 
z
" id="DejaVuSans-51"/>
       </defs>
       <use xlink:href="#DejaVuSans-51"/>
       <use x="63.623047" xlink:href="#DejaVuSans-48"/>
      </g>
     </g>
    </g>
    <g id="xtick_6">
     <g id="line2d_6">
      <g>
       <use style="stroke:#000000;stroke-width:0.8;" x="110.158125" xlink:href="#m9e95012527" y="268.128"/>
      </g>
     </g>
     <g id="text_6">
      <!-- 40 -->
      <g transform="translate(103.795625 282.726437)scale(0.1 -0.1)">
       <defs>
        <path d="M 37.796875 64.3125 
L 12.890625 25.390625 
L 37.796875 25.390625 
z
M 35.203125 72.90625 
L 47.609375 72.90625 
L 47.609375 25.390625 
L 58.015625 25.390625 
L 58.015625 17.1875 
L 47.609375 17.1875 
L 47.609375 0 
L 37.796875 0 
L 37.796875 17.1875 
L 4.890625 17.1875 
L 4.890625 26.703125 
z
" id="DejaVuSans-52"/>
       </defs>
       <use xlink:href="#DejaVuSans-52"/>
       <use x="63.623047" xlink:href="#DejaVuSans-48"/>
      </g>
     </g>
    </g>
    <g id="xtick_7">
     <g id="line2d_7">
      <g>
       <use style="stroke:#000000;stroke-width:0.8;" x="74.446125" xlink:href="#m9e95012527" y="268.128"/>
      </g>
     </g>
     <g id="text_7">
      <!-- 50 -->
      <g transform="translate(68.083625 282.726437)scale(0.1 -0.1)">
       <defs>
        <path d="M 10.796875 72.90625 
L 49.515625 72.90625 
L 49.515625 64.59375 
L 19.828125 64.59375 
L 19.828125 46.734375 
Q 21.96875 47.46875 24.109375 47.828125 
Q 26.265625 48.1875 28.421875 48.1875 
Q 40.625 48.1875 47.75 41.5 
Q 54.890625 34.8125 54.890625 23.390625 
Q 54.890625 11.625 47.5625 5.09375 
Q 40.234375 -1.421875 26.90625 -1.421875 
Q 22.3125 -1.421875 17.546875 -0.640625 
Q 12.796875 0.140625 7.71875 1.703125 
L 7.71875 11.625 
Q 12.109375 9.234375 16.796875 8.0625 
Q 21.484375 6.890625 26.703125 6.890625 
Q 35.15625 6.890625 40.078125 11.328125 
Q 45.015625 15.765625 45.015625 23.390625 
Q 45.015625 31 40.078125 35.4375 
Q 35.15625 39.890625 26.703125 39.890625 
Q 22.75 39.890625 18.8125 39.015625 
Q 14.890625 38.140625 10.796875 36.28125 
z
" id="DejaVuSans-53"/>
       </defs>
       <use xlink:href="#DejaVuSans-53"/>
       <use x="63.623047" xlink:href="#DejaVuSans-48"/>
      </g>
     </g>
    </g>
    <g id="xtick_8">
     <g id="line2d_8">
      <g>
       <use style="stroke:#000000;stroke-width:0.8;" x="38.734125" xlink:href="#m9e95012527" y="268.128"/>
      </g>
     </g>
     <g id="text_8">
      <!-- 60 -->
      <g transform="translate(32.371625 282.726437)scale(0.1 -0.1)">
       <defs>
        <path d="M 33.015625 40.375 
Q 26.375 40.375 22.484375 35.828125 
Q 18.609375 31.296875 18.609375 23.390625 
Q 18.609375 15.53125 22.484375 10.953125 
Q 26.375 6.390625 33.015625 6.390625 
Q 39.65625 6.390625 43.53125 10.953125 
Q 47.40625 15.53125 47.40625 23.390625 
Q 47.40625 31.296875 43.53125 35.828125 
Q 39.65625 40.375 33.015625 40.375 
z
M 52.59375 71.296875 
L 52.59375 62.3125 
Q 48.875 64.0625 45.09375 64.984375 
Q 41.3125 65.921875 37.59375 65.921875 
Q 27.828125 65.921875 22.671875 59.328125 
Q 17.53125 52.734375 16.796875 39.40625 
Q 19.671875 43.65625 24.015625 45.921875 
Q 28.375 48.1875 33.59375 48.1875 
Q 44.578125 48.1875 50.953125 41.515625 
Q 57.328125 34.859375 57.328125 23.390625 
Q 57.328125 12.15625 50.6875 5.359375 
Q 44.046875 -1.421875 33.015625 -1.421875 
Q 20.359375 -1.421875 13.671875 8.265625 
Q 6.984375 17.96875 6.984375 36.375 
Q 6.984375 53.65625 15.1875 63.9375 
Q 23.390625 74.21875 37.203125 74.21875 
Q 40.921875 74.21875 44.703125 73.484375 
Q 48.484375 72.75 52.59375 71.296875 
z
" id="DejaVuSans-54"/>
       </defs>
       <use xlink:href="#DejaVuSans-54"/>
       <use x="63.623047" xlink:href="#DejaVuSans-48"/>
      </g>
     </g>
    </g>
    <g id="text_9">
     <!-- Chemical shift / [ppm] -->
     <g transform="translate(99.2325 296.404562)scale(0.1 -0.1)">
      <defs>
       <path d="M 64.40625 67.28125 
L 64.40625 56.890625 
Q 59.421875 61.53125 53.78125 63.8125 
Q 48.140625 66.109375 41.796875 66.109375 
Q 29.296875 66.109375 22.65625 58.46875 
Q 16.015625 50.828125 16.015625 36.375 
Q 16.015625 21.96875 22.65625 14.328125 
Q 29.296875 6.6875 41.796875 6.6875 
Q 48.140625 6.6875 53.78125 8.984375 
Q 59.421875 11.28125 64.40625 15.921875 
L 64.40625 5.609375 
Q 59.234375 2.09375 53.4375 0.328125 
Q 47.65625 -1.421875 41.21875 -1.421875 
Q 24.65625 -1.421875 15.125 8.703125 
Q 5.609375 18.84375 5.609375 36.375 
Q 5.609375 53.953125 15.125 64.078125 
Q 24.65625 74.21875 41.21875 74.21875 
Q 47.75 74.21875 53.53125 72.484375 
Q 59.328125 70.75 64.40625 67.28125 
z
" id="DejaVuSans-67"/>
       <path d="M 54.890625 33.015625 
L 54.890625 0 
L 45.90625 0 
L 45.90625 32.71875 
Q 45.90625 40.484375 42.875 44.328125 
Q 39.84375 48.1875 33.796875 48.1875 
Q 26.515625 48.1875 22.3125 43.546875 
Q 18.109375 38.921875 18.109375 30.90625 
L 18.109375 0 
L 9.078125 0 
L 9.078125 75.984375 
L 18.109375 75.984375 
L 18.109375 46.1875 
Q 21.34375 51.125 25.703125 53.5625 
Q 30.078125 56 35.796875 56 
Q 45.21875 56 50.046875 50.171875 
Q 54.890625 44.34375 54.890625 33.015625 
z
" id="DejaVuSans-104"/>
       <path d="M 56.203125 29.59375 
L 56.203125 25.203125 
L 14.890625 25.203125 
Q 15.484375 15.921875 20.484375 11.0625 
Q 25.484375 6.203125 34.421875 6.203125 
Q 39.59375 6.203125 44.453125 7.46875 
Q 49.3125 8.734375 54.109375 11.28125 
L 54.109375 2.78125 
Q 49.265625 0.734375 44.1875 -0.34375 
Q 39.109375 -1.421875 33.890625 -1.421875 
Q 20.796875 -1.421875 13.15625 6.1875 
Q 5.515625 13.8125 5.515625 26.8125 
Q 5.515625 40.234375 12.765625 48.109375 
Q 20.015625 56 32.328125 56 
Q 43.359375 56 49.78125 48.890625 
Q 56.203125 41.796875 56.203125 29.59375 
z
M 47.21875 32.234375 
Q 47.125 39.59375 43.09375 43.984375 
Q 39.0625 48.390625 32.421875 48.390625 
Q 24.90625 48.390625 20.390625 44.140625 
Q 15.875 39.890625 15.1875 32.171875 
z
" id="DejaVuSans-101"/>
       <path d="M 52 44.1875 
Q 55.375 50.25 60.0625 53.125 
Q 64.75 56 71.09375 56 
Q 79.640625 56 84.28125 50.015625 
Q 88.921875 44.046875 88.921875 33.015625 
L 88.921875 0 
L 79.890625 0 
L 79.890625 32.71875 
Q 79.890625 40.578125 77.09375 44.375 
Q 74.3125 48.1875 68.609375 48.1875 
Q 61.625 48.1875 57.5625 43.546875 
Q 53.515625 38.921875 53.515625 30.90625 
L 53.515625 0 
L 44.484375 0 
L 44.484375 32.71875 
Q 44.484375 40.625 41.703125 44.40625 
Q 38.921875 48.1875 33.109375 48.1875 
Q 26.21875 48.1875 22.15625 43.53125 
Q 18.109375 38.875 18.109375 30.90625 
L 18.109375 0 
L 9.078125 0 
L 9.078125 54.6875 
L 18.109375 54.6875 
L 18.109375 46.1875 
Q 21.1875 51.21875 25.484375 53.609375 
Q 29.78125 56 35.6875 56 
Q 41.65625 56 45.828125 52.96875 
Q 50 49.953125 52 44.1875 
z
" id="DejaVuSans-109"/>
       <path d="M 9.421875 54.6875 
L 18.40625 54.6875 
L 18.40625 0 
L 9.421875 0 
z
M 9.421875 75.984375 
L 18.40625 75.984375 
L 18.40625 64.59375 
L 9.421875 64.59375 
z
" id="DejaVuSans-105"/>
       <path d="M 48.78125 52.59375 
L 48.78125 44.1875 
Q 44.96875 46.296875 41.140625 47.34375 
Q 37.3125 48.390625 33.40625 48.390625 
Q 24.65625 48.390625 19.8125 42.84375 
Q 14.984375 37.3125 14.984375 27.296875 
Q 14.984375 17.28125 19.8125 11.734375 
Q 24.65625 6.203125 33.40625 6.203125 
Q 37.3125 6.203125 41.140625 7.25 
Q 44.96875 8.296875 48.78125 10.40625 
L 48.78125 2.09375 
Q 45.015625 0.34375 40.984375 -0.53125 
Q 36.96875 -1.421875 32.421875 -1.421875 
Q 20.0625 -1.421875 12.78125 6.34375 
Q 5.515625 14.109375 5.515625 27.296875 
Q 5.515625 40.671875 12.859375 48.328125 
Q 20.21875 56 33.015625 56 
Q 37.15625 56 41.109375 55.140625 
Q 45.0625 54.296875 48.78125 52.59375 
z
" id="DejaVuSans-99"/>
       <path d="M 34.28125 27.484375 
Q 23.390625 27.484375 19.1875 25 
Q 14.984375 22.515625 14.984375 16.5 
Q 14.984375 11.71875 18.140625 8.90625 
Q 21.296875 6.109375 26.703125 6.109375 
Q 34.1875 6.109375 38.703125 11.40625 
Q 43.21875 16.703125 43.21875 25.484375 
L 43.21875 27.484375 
z
M 52.203125 31.203125 
L 52.203125 0 
L 43.21875 0 
L 43.21875 8.296875 
Q 40.140625 3.328125 35.546875 0.953125 
Q 30.953125 -1.421875 24.3125 -1.421875 
Q 15.921875 -1.421875 10.953125 3.296875 
Q 6 8.015625 6 15.921875 
Q 6 25.140625 12.171875 29.828125 
Q 18.359375 34.515625 30.609375 34.515625 
L 43.21875 34.515625 
L 43.21875 35.40625 
Q 43.21875 41.609375 39.140625 45 
Q 35.0625 48.390625 27.6875 48.390625 
Q 23 48.390625 18.546875 47.265625 
Q 14.109375 46.140625 10.015625 43.890625 
L 10.015625 52.203125 
Q 14.9375 54.109375 19.578125 55.046875 
Q 24.21875 56 28.609375 56 
Q 40.484375 56 46.34375 49.84375 
Q 52.203125 43.703125 52.203125 31.203125 
z
" id="DejaVuSans-97"/>
       <path d="M 9.421875 75.984375 
L 18.40625 75.984375 
L 18.40625 0 
L 9.421875 0 
z
" id="DejaVuSans-108"/>
       <path id="DejaVuSans-32"/>
       <path d="M 44.28125 53.078125 
L 44.28125 44.578125 
Q 40.484375 46.53125 36.375 47.5 
Q 32.28125 48.484375 27.875 48.484375 
Q 21.1875 48.484375 17.84375 46.4375 
Q 14.5 44.390625 14.5 40.28125 
Q 14.5 37.15625 16.890625 35.375 
Q 19.28125 33.59375 26.515625 31.984375 
L 29.59375 31.296875 
Q 39.15625 29.25 43.1875 25.515625 
Q 47.21875 21.78125 47.21875 15.09375 
Q 47.21875 7.46875 41.1875 3.015625 
Q 35.15625 -1.421875 24.609375 -1.421875 
Q 20.21875 -1.421875 15.453125 -0.5625 
Q 10.6875 0.296875 5.421875 2 
L 5.421875 11.28125 
Q 10.40625 8.6875 15.234375 7.390625 
Q 20.0625 6.109375 24.8125 6.109375 
Q 31.15625 6.109375 34.5625 8.28125 
Q 37.984375 10.453125 37.984375 14.40625 
Q 37.984375 18.0625 35.515625 20.015625 
Q 33.0625 21.96875 24.703125 23.78125 
L 21.578125 24.515625 
Q 13.234375 26.265625 9.515625 29.90625 
Q 5.8125 33.546875 5.8125 39.890625 
Q 5.8125 47.609375 11.28125 51.796875 
Q 16.75 56 26.8125 56 
Q 31.78125 56 36.171875 55.265625 
Q 40.578125 54.546875 44.28125 53.078125 
z
" id="DejaVuSans-115"/>
       <path d="M 37.109375 75.984375 
L 37.109375 68.5 
L 28.515625 68.5 
Q 23.6875 68.5 21.796875 66.546875 
Q 19.921875 64.59375 19.921875 59.515625 
L 19.921875 54.6875 
L 34.71875 54.6875 
L 34.71875 47.703125 
L 19.921875 47.703125 
L 19.921875 0 
L 10.890625 0 
L 10.890625 47.703125 
L 2.296875 47.703125 
L 2.296875 54.6875 
L 10.890625 54.6875 
L 10.890625 58.5 
Q 10.890625 67.625 15.140625 71.796875 
Q 19.390625 75.984375 28.609375 75.984375 
z
" id="DejaVuSans-102"/>
       <path d="M 18.3125 70.21875 
L 18.3125 54.6875 
L 36.8125 54.6875 
L 36.8125 47.703125 
L 18.3125 47.703125 
L 18.3125 18.015625 
Q 18.3125 11.328125 20.140625 9.421875 
Q 21.96875 7.515625 27.59375 7.515625 
L 36.8125 7.515625 
L 36.8125 0 
L 27.59375 0 
Q 17.1875 0 13.234375 3.875 
Q 9.28125 7.765625 9.28125 18.015625 
L 9.28125 47.703125 
L 2.6875 47.703125 
L 2.6875 54.6875 
L 9.28125 54.6875 
L 9.28125 70.21875 
z
" id="DejaVuSans-116"/>
       <path d="M 25.390625 72.90625 
L 33.6875 72.90625 
L 8.296875 -9.28125 
L 0 -9.28125 
z
" id="DejaVuSans-47"/>
       <path d="M 8.59375 75.984375 
L 29.296875 75.984375 
L 29.296875 69 
L 17.578125 69 
L 17.578125 -6.203125 
L 29.296875 -6.203125 
L 29.296875 -13.1875 
L 8.59375 -13.1875 
z
" id="DejaVuSans-91"/>
       <path d="M 18.109375 8.203125 
L 18.109375 -20.796875 
L 9.078125 -20.796875 
L 9.078125 54.6875 
L 18.109375 54.6875 
L 18.109375 46.390625 
Q 20.953125 51.265625 25.265625 53.625 
Q 29.59375 56 35.59375 56 
Q 45.5625 56 51.78125 48.09375 
Q 58.015625 40.1875 58.015625 27.296875 
Q 58.015625 14.40625 51.78125 6.484375 
Q 45.5625 -1.421875 35.59375 -1.421875 
Q 29.59375 -1.421875 25.265625 0.953125 
Q 20.953125 3.328125 18.109375 8.203125 
z
M 48.6875 27.296875 
Q 48.6875 37.203125 44.609375 42.84375 
Q 40.53125 48.484375 33.40625 48.484375 
Q 26.265625 48.484375 22.1875 42.84375 
Q 18.109375 37.203125 18.109375 27.296875 
Q 18.109375 17.390625 22.1875 11.75 
Q 26.265625 6.109375 33.40625 6.109375 
Q 40.53125 6.109375 44.609375 11.75 
Q 48.6875 17.390625 48.6875 27.296875 
z
" id="DejaVuSans-112"/>
       <path d="M 30.421875 75.984375 
L 30.421875 -13.1875 
L 9.71875 -13.1875 
L 9.71875 -6.203125 
L 21.390625 -6.203125 
L 21.390625 69 
L 9.71875 69 
L 9.71875 75.984375 
z
" id="DejaVuSans-93"/>
      </defs>
      <use xlink:href="#DejaVuSans-67"/>
      <use x="69.824219" xlink:href="#DejaVuSans-104"/>
      <use x="133.203125" xlink:href="#DejaVuSans-101"/>
      <use x="194.726562" xlink:href="#DejaVuSans-109"/>
      <use x="292.138672" xlink:href="#DejaVuSans-105"/>
      <use x="319.921875" xlink:href="#DejaVuSans-99"/>
      <use x="374.902344" xlink:href="#DejaVuSans-97"/>
      <use x="436.181641" xlink:href="#DejaVuSans-108"/>
      <use x="463.964844" xlink:href="#DejaVuSans-32"/>
      <use x="495.751953" xlink:href="#DejaVuSans-115"/>
      <use x="547.851562" xlink:href="#DejaVuSans-104"/>
      <use x="611.230469" xlink:href="#DejaVuSans-105"/>
      <use x="639.013672" xlink:href="#DejaVuSans-102"/>
      <use x="672.46875" xlink:href="#DejaVuSans-116"/>
      <use x="711.677734" xlink:href="#DejaVuSans-32"/>
      <use x="743.464844" xlink:href="#DejaVuSans-47"/>
      <use x="777.15625" xlink:href="#DejaVuSans-32"/>
      <use x="808.943359" xlink:href="#DejaVuSans-91"/>
      <use x="847.957031" xlink:href="#DejaVuSans-112"/>
      <use x="911.433594" xlink:href="#DejaVuSans-112"/>
      <use x="974.910156" xlink:href="#DejaVuSans-109"/>
      <use x="1072.322266" xlink:href="#DejaVuSans-93"/>
     </g>
    </g>
   </g>
   <g id="matplotlib.axis_2">
    <g id="text_10">
     <!-- Intensity / [a.u.] -->
     <g transform="translate(14.798437 177.6015)rotate(-90)scale(0.1 -0.1)">
      <defs>
       <path d="M 9.8125 72.90625 
L 19.671875 72.90625 
L 19.671875 0 
L 9.8125 0 
z
" id="DejaVuSans-73"/>
       <path d="M 54.890625 33.015625 
L 54.890625 0 
L 45.90625 0 
L 45.90625 32.71875 
Q 45.90625 40.484375 42.875 44.328125 
Q 39.84375 48.1875 33.796875 48.1875 
Q 26.515625 48.1875 22.3125 43.546875 
Q 18.109375 38.921875 18.109375 30.90625 
L 18.109375 0 
L 9.078125 0 
L 9.078125 54.6875 
L 18.109375 54.6875 
L 18.109375 46.1875 
Q 21.34375 51.125 25.703125 53.5625 
Q 30.078125 56 35.796875 56 
Q 45.21875 56 50.046875 50.171875 
Q 54.890625 44.34375 54.890625 33.015625 
z
" id="DejaVuSans-110"/>
       <path d="M 32.171875 -5.078125 
Q 28.375 -14.84375 24.75 -17.8125 
Q 21.140625 -20.796875 15.09375 -20.796875 
L 7.90625 -20.796875 
L 7.90625 -13.28125 
L 13.1875 -13.28125 
Q 16.890625 -13.28125 18.9375 -11.515625 
Q 21 -9.765625 23.484375 -3.21875 
L 25.09375 0.875 
L 2.984375 54.6875 
L 12.5 54.6875 
L 29.59375 11.921875 
L 46.6875 54.6875 
L 56.203125 54.6875 
z
" id="DejaVuSans-121"/>
       <path d="M 10.6875 12.40625 
L 21 12.40625 
L 21 0 
L 10.6875 0 
z
" id="DejaVuSans-46"/>
       <path d="M 8.5 21.578125 
L 8.5 54.6875 
L 17.484375 54.6875 
L 17.484375 21.921875 
Q 17.484375 14.15625 20.5 10.265625 
Q 23.53125 6.390625 29.59375 6.390625 
Q 36.859375 6.390625 41.078125 11.03125 
Q 45.3125 15.671875 45.3125 23.6875 
L 45.3125 54.6875 
L 54.296875 54.6875 
L 54.296875 0 
L 45.3125 0 
L 45.3125 8.40625 
Q 42.046875 3.421875 37.71875 1 
Q 33.40625 -1.421875 27.6875 -1.421875 
Q 18.265625 -1.421875 13.375 4.4375 
Q 8.5 10.296875 8.5 21.578125 
z
M 31.109375 56 
z
" id="DejaVuSans-117"/>
      </defs>
      <use xlink:href="#DejaVuSans-73"/>
      <use x="29.492188" xlink:href="#DejaVuSans-110"/>
      <use x="92.871094" xlink:href="#DejaVuSans-116"/>
      <use x="132.080078" xlink:href="#DejaVuSans-101"/>
      <use x="193.603516" xlink:href="#DejaVuSans-110"/>
      <use x="256.982422" xlink:href="#DejaVuSans-115"/>
      <use x="309.082031" xlink:href="#DejaVuSans-105"/>
      <use x="336.865234" xlink:href="#DejaVuSans-116"/>
      <use x="376.074219" xlink:href="#DejaVuSans-121"/>
      <use x="435.253906" xlink:href="#DejaVuSans-32"/>
      <use x="467.041016" xlink:href="#DejaVuSans-47"/>
      <use x="500.732422" xlink:href="#DejaVuSans-32"/>
      <use x="532.519531" xlink:href="#DejaVuSans-91"/>
      <use x="571.533203" xlink:href="#DejaVuSans-97"/>
      <use x="632.8125" xlink:href="#DejaVuSans-46"/>
      <use x="664.599609" xlink:href="#DejaVuSans-117"/>
      <use x="727.978516" xlink:href="#DejaVuSans-46"/>
      <use x="759.765625" xlink:href="#DejaVuSans-93"/>
     </g>
    </g>
   </g>
   <g id="line2d_9">
    <path clip-path="url(#p5e375c99f0)" d="M -1 270.178874 
L -0.824057 270.92485 
L -0.609785 271.135963 
L -0.17767 269.546163 
L 0.254445 268.258011 
L 0.468717 268.032936 
L 0.682989 268.182392 
L 1.115104 267.632113 
L 1.329376 267.917771 
L 1.543648 267.394547 
L 2.190035 265.078499 
L 2.407879 264.710424 
L 2.622151 264.608183 
L 2.836423 264.123114 
L 3.050695 264.521986 
L 3.48281 267.803645 
L 3.697082 267.754465 
L 4.343469 265.43589 
L 4.557741 265.387421 
L 4.989856 264.654398 
L 5.204128 265.178988 
L 6.496903 270.59484 
L 7.14329 271.427707 
L 7.357562 272.132741 
L 7.571834 272.452285 
L 7.789677 271.890288 
L 8.218221 268.368056 
L 8.436064 267.865335 
L 8.864608 269.673082 
L 9.082451 269.663825 
L 9.296723 269.084504 
L 9.510995 269.219983 
L 9.725267 269.838409 
L 9.943111 269.821052 
L 10.157383 269.533428 
L 10.371655 269.813996 
L 10.589498 269.563736 
L 11.018042 265.221508 
L 11.232314 262.261032 
L 11.450157 260.812481 
L 11.664429 261.881954 
L 12.525088 268.692392 
L 12.73936 269.116764 
L 12.957203 269.154271 
L 13.171475 268.63426 
L 14.032135 264.062942 
L 14.246407 263.84977 
L 14.678522 265.069815 
L 14.892794 265.1293 
L 15.110637 265.751105 
L 15.539181 267.371481 
L 15.757024 267.400662 
L 15.971296 267.011827 
L 16.39984 267.717144 
L 16.831955 266.636735 
L 17.264071 268.113769 
L 17.478343 268.964164 
L 18.771117 277.47024 
L 18.985389 278.05957 
L 19.199661 277.294646 
L 20.06032 268.934643 
L 20.278163 267.246541 
L 20.492435 267.271347 
L 21.353095 273.173889 
L 21.567367 272.97008 
L 21.999482 269.135246 
L 22.213754 268.896943 
L 22.645869 271.10332 
L 22.860141 271.059948 
L 23.074413 269.752795 
L 23.7208 263.127885 
L 23.938643 262.659714 
L 24.581459 267.402849 
L 24.799303 267.664295 
L 25.013575 267.543747 
L 25.227847 267.105224 
L 25.44569 266.30991 
L 25.659962 266.250476 
L 25.874234 266.043204 
L 26.088506 265.168522 
L 26.306349 264.982218 
L 26.520621 265.994379 
L 26.952736 268.437351 
L 27.167008 268.688699 
L 27.38128 268.677225 
L 27.595552 268.807036 
L 28.027667 269.998407 
L 28.241939 269.719655 
L 28.459783 269.114034 
L 28.674055 269.220903 
L 28.888327 269.709867 
L 29.102599 270.722115 
L 29.748986 275.419473 
L 29.966829 276.182602 
L 30.181101 275.371811 
L 31.04176 265.967281 
L 31.473875 264.73314 
L 31.688147 264.500633 
L 31.902419 265.057332 
L 32.120263 266.915333 
L 32.334535 267.750605 
L 32.763079 265.702505 
L 33.409466 263.47541 
L 33.627309 263.323309 
L 33.841581 263.004798 
L 34.270125 261.081445 
L 34.487968 260.651617 
L 34.70224 261.929319 
L 35.134355 267.884218 
L 35.348627 268.416377 
L 35.562899 267.73702 
L 35.995015 267.565923 
L 36.209287 267.300517 
L 36.423559 266.523521 
L 36.855674 263.681073 
L 37.069946 264.388049 
L 37.502061 267.584994 
L 37.930605 272.001015 
L 38.148448 272.623888 
L 38.36272 272.80837 
L 38.576992 272.560945 
L 39.009107 271.458495 
L 39.223379 271.171115 
L 39.437651 270.655861 
L 40.084039 266.609715 
L 40.516154 264.386805 
L 40.730426 264.655606 
L 41.162541 262.635696 
L 41.376813 263.128078 
L 41.591085 264.672082 
L 42.237472 270.888972 
L 42.451744 270.367995 
L 42.883859 266.867265 
L 43.098131 266.460231 
L 43.315975 266.366852 
L 43.530247 265.904462 
L 43.744519 265.746156 
L 44.176634 266.782375 
L 44.390906 266.894139 
L 44.605178 267.615862 
L 45.037293 269.86227 
L 45.251565 269.643298 
L 45.469408 269.032481 
L 46.544339 264.487427 
L 46.758611 264.116838 
L 46.976455 264.095892 
L 47.190727 265.000697 
L 47.619271 268.297955 
L 47.837114 268.871841 
L 48.051386 268.976262 
L 48.912045 266.839657 
L 49.126317 267.645334 
L 49.558432 271.230131 
L 49.990547 273.217851 
L 50.204819 273.617495 
L 51.065479 271.223903 
L 51.279751 269.970082 
L 51.497594 269.747604 
L 51.711866 269.91958 
L 51.926138 270.458141 
L 52.14041 271.332912 
L 52.358253 270.587964 
L 52.572525 269.238631 
L 53.00464 268.158195 
L 53.218912 268.31985 
L 53.651027 270.825462 
L 54.079571 269.224824 
L 54.511687 271.813383 
L 54.725959 271.667307 
L 55.158074 269.572936 
L 55.586618 269.007 
L 56.018733 267.581486 
L 56.233005 268.375254 
L 56.66512 271.135235 
L 56.879392 271.194514 
L 57.093664 270.763919 
L 57.525779 268.228676 
L 57.740051 267.813821 
L 57.954323 268.160454 
L 58.600711 271.521665 
L 58.814983 271.15695 
L 59.247098 269.365323 
L 59.46137 269.079024 
L 59.679213 268.504365 
L 60.107757 266.724827 
L 60.322029 267.665428 
L 60.539872 269.641742 
L 60.754144 270.3916 
L 61.400531 267.693854 
L 61.614803 267.67631 
L 61.832647 267.844966 
L 62.046919 267.612669 
L 62.261191 267.049027 
L 62.475463 266.817402 
L 62.907578 268.329241 
L 63.339693 267.810489 
L 63.553965 266.957272 
L 64.628896 265.865536 
L 65.061011 266.709959 
L 65.275283 266.175435 
L 65.489555 264.851238 
L 65.707399 264.486007 
L 65.921671 265.12672 
L 66.568058 264.422241 
L 66.78233 262.629414 
L 68.289376 239.163093 
L 68.721491 227.091047 
L 69.367879 198.306383 
L 70.657082 115.131915 
L 70.874925 112.006954 
L 71.089197 115.612536 
L 71.521312 141.036157 
L 72.596243 215.471553 
L 73.028359 231.387035 
L 73.671175 241.246097 
L 74.317562 246.980812 
L 74.963949 255.993875 
L 75.396064 259.893461 
L 75.610336 260.022542 
L 75.824608 259.042515 
L 76.042451 258.574019 
L 76.688839 260.561008 
L 77.331655 263.873941 
L 77.549498 264.274485 
L 77.978042 264.346102 
L 78.195885 264.70734 
L 78.624429 264.225468 
L 78.838701 264.131815 
L 79.270816 261.5647 
L 79.702931 262.756915 
L 79.917203 262.768333 
L 80.563591 261.089617 
L 80.777863 260.726647 
L 80.992135 261.027623 
L 81.852794 266.158677 
L 82.070637 266.098605 
L 82.284909 265.372406 
L 83.145568 259.988244 
L 83.363411 258.377181 
L 83.577683 258.098147 
L 84.006227 259.646789 
L 84.652615 257.516344 
L 85.08473 257.814451 
L 85.299002 257.73142 
L 85.731117 256.22505 
L 85.945389 256.695579 
L 86.377504 259.80103 
L 86.806048 260.396617 
L 87.238163 262.282136 
L 87.452435 261.849978 
L 88.098823 258.430042 
L 88.313095 257.057997 
L 88.527367 257.147246 
L 88.959482 259.25624 
L 89.173754 259.285733 
L 89.391597 258.360202 
L 90.6808 248.611162 
L 91.973575 229.670545 
L 92.40569 213.120502 
L 92.834234 183.703349 
L 93.266349 138.086642 
L 94.127008 36.737304 
L 94.34128 30.920727 
L 94.559123 37.560619 
L 94.987667 79.997046 
L 95.848327 179.640964 
L 96.280442 207.363809 
L 96.708986 225.913235 
L 97.141101 236.595986 
L 97.573216 242.84676 
L 98.433875 251.947422 
L 98.648147 253.057542 
L 98.862419 252.316869 
L 99.080263 250.782777 
L 99.294535 251.099312 
L 99.72665 257.354293 
L 100.155194 263.572012 
L 100.369466 264.101032 
L 100.801581 262.322854 
L 101.015853 262.184524 
L 101.233696 262.978748 
L 101.447968 263.284741 
L 101.876512 263.035962 
L 102.522899 261.131705 
L 102.740743 261.493194 
L 103.383559 264.6129 
L 103.601402 265.528316 
L 103.815674 265.778564 
L 104.029946 264.67346 
L 104.247789 264.218966 
L 104.676333 265.248992 
L 104.890605 264.895472 
L 105.536992 262.506594 
L 105.969107 262.994669 
L 106.183379 262.525565 
L 106.401223 262.70504 
L 106.615495 262.716845 
L 106.829767 262.133095 
L 107.044039 261.976392 
L 107.261882 262.818077 
L 107.690426 265.9548 
L 107.908269 267.636334 
L 108.122541 268.164285 
L 108.336813 267.878778 
L 108.551085 267.403752 
L 108.768928 267.397345 
L 108.9832 267.783008 
L 109.197472 267.819547 
L 109.415315 267.026644 
L 109.629587 266.778578 
L 110.058131 268.240285 
L 110.275975 268.236185 
L 110.490247 268.000711 
L 110.704519 267.994603 
L 110.922362 268.931604 
L 111.350906 272.307363 
L 111.565178 272.774885 
L 111.783021 272.18773 
L 112.429408 267.74234 
L 112.857952 268.736052 
L 113.290067 266.85101 
L 113.504339 267.474431 
L 113.718611 268.869231 
L 113.936455 268.997526 
L 114.364999 266.854351 
L 114.582842 266.692514 
L 114.797114 267.222534 
L 115.657773 270.649751 
L 116.089888 271.378446 
L 116.30416 271.692852 
L 116.732704 271.39701 
L 117.164819 273.633391 
L 117.379091 273.648408 
L 118.025479 268.336369 
L 118.239751 266.49277 
L 118.457594 265.641565 
L 118.671866 265.692649 
L 119.103981 266.876472 
L 119.318253 266.951997 
L 119.746797 266.373807 
L 119.96464 267.029477 
L 120.393184 269.632853 
L 120.611027 269.76003 
L 121.257415 266.987322 
L 121.471687 266.605097 
L 121.685959 266.675076 
L 121.900231 266.163921 
L 122.332346 262.726504 
L 122.546618 262.766818 
L 122.978733 266.330465 
L 123.193005 268.429915 
L 123.407277 269.264083 
L 123.62512 268.925457 
L 123.839392 269.022793 
L 124.053664 269.294898 
L 124.271507 268.325118 
L 124.700051 264.055142 
L 124.914323 263.317401 
L 125.346439 263.622403 
L 125.560711 263.131881 
L 125.778554 263.042441 
L 125.992826 263.91301 
L 126.42137 267.820933 
L 126.639213 267.773601 
L 126.853485 266.328501 
L 127.067757 265.703147 
L 127.2856 265.789518 
L 127.499872 266.083903 
L 127.714144 266.79143 
L 127.931987 268.616959 
L 128.360531 273.911023 
L 128.574803 273.75358 
L 129.439034 267.309002 
L 129.653306 266.074003 
L 129.867578 265.881889 
L 130.08185 265.94068 
L 130.513965 264.706302 
L 130.728237 265.312797 
L 131.160352 267.771934 
L 131.374624 267.486405 
L 132.021011 265.717467 
L 132.235283 265.592595 
L 132.453127 265.639525 
L 132.667399 265.895789 
L 133.095943 267.222836 
L 133.313786 267.907489 
L 133.528058 267.826074 
L 133.74233 266.658261 
L 134.174445 263.633449 
L 134.388717 263.432871 
L 134.820832 264.570478 
L 135.035104 264.040253 
L 135.467219 260.515183 
L 135.681491 260.53571 
L 135.895763 262.262984 
L 136.327879 267.526802 
L 136.542151 268.895308 
L 136.756423 269.207477 
L 136.974266 269.283468 
L 137.188538 269.173755 
L 137.834925 265.916218 
L 138.049197 266.486637 
L 138.263469 266.693285 
L 138.695584 265.59791 
L 138.909856 265.412506 
L 139.988359 262.588117 
L 140.202631 262.396054 
L 140.416903 262.938263 
L 141.06329 266.948565 
L 141.277562 266.550038 
L 141.495405 265.802163 
L 141.709677 266.299397 
L 141.923949 268.108779 
L 142.141792 267.923424 
L 142.570336 263.555827 
L 142.784608 263.939478 
L 143.216723 266.25173 
L 143.430995 266.04979 
L 143.648839 265.504822 
L 143.863111 266.086104 
L 144.077383 267.34797 
L 144.295226 267.929372 
L 144.509498 267.14719 
L 144.72377 265.856149 
L 144.938042 265.245657 
L 145.155885 265.959741 
L 145.370157 267.058118 
L 145.802272 267.423203 
L 146.445088 270.104595 
L 146.662931 269.591683 
L 147.091475 266.876836 
L 147.309319 266.33907 
L 148.169978 260.61305 
L 148.38425 261.582846 
L 148.816365 265.286759 
L 149.030637 267.053928 
L 149.244909 267.449145 
L 149.677024 265.507545 
L 149.891296 265.216877 
L 150.105568 265.235931 
L 150.537683 266.528991 
L 150.751955 265.47341 
L 151.184071 261.22055 
L 151.398343 260.884972 
L 152.259002 264.640815 
L 152.691117 266.789167 
L 153.119661 265.661653 
L 153.337504 265.765868 
L 153.551776 265.371759 
L 153.766048 264.214518 
L 153.983891 264.090172 
L 154.412435 266.863558 
L 154.626707 266.967445 
L 155.058823 265.47222 
L 155.273095 265.473053 
L 155.490938 265.591422 
L 156.133754 263.83069 
L 156.565869 262.444105 
L 156.780141 262.657425 
L 156.997984 262.637537 
L 157.212256 262.347582 
L 157.426528 263.146052 
L 158.287187 271.41624 
L 158.933575 274.894829 
L 159.151418 274.550748 
L 160.226349 266.52101 
L 160.440621 266.768003 
L 160.658464 267.510158 
L 160.872736 267.834178 
L 161.519123 266.765553 
L 161.947667 265.201006 
L 162.165511 265.76425 
L 162.808327 269.386104 
L 163.240442 268.246059 
L 163.454714 268.332723 
L 163.672557 268.673113 
L 163.886829 268.419005 
L 164.101101 268.482939 
L 164.315373 268.686044 
L 164.96176 266.93628 
L 165.825991 266.100343 
L 166.040263 266.264924 
L 166.468807 266.20467 
L 166.68665 267.079428 
L 166.900922 268.637694 
L 167.115194 268.056556 
L 167.333037 265.942624 
L 167.547309 264.975333 
L 167.761581 265.970779 
L 168.407968 271.68107 
L 168.840083 274.295883 
L 169.054355 274.362167 
L 169.482899 273.119284 
L 169.700743 272.304234 
L 170.34713 267.443135 
L 170.561402 267.55822 
L 171.207789 269.592153 
L 171.422061 269.960499 
L 171.636333 269.584206 
L 171.854176 268.138165 
L 172.28272 264.217105 
L 172.496992 264.707076 
L 173.143379 269.533065 
L 173.575495 266.987643 
L 173.789767 266.974534 
L 174.00761 267.591427 
L 174.221882 267.719767 
L 174.650426 266.992348 
L 175.082541 265.307801 
L 175.728928 261.980388 
L 175.9432 263.850644 
L 176.375315 268.189944 
L 176.589587 268.406941 
L 177.235975 265.484239 
L 177.664519 267.275223 
L 177.882362 266.98491 
L 178.310906 264.690534 
L 178.528749 264.447953 
L 178.957293 266.192337 
L 179.60368 269.430871 
L 180.035795 271.398325 
L 180.250067 271.63618 
L 180.464339 271.543001 
L 180.896455 268.58249 
L 181.324999 265.293173 
L 181.757114 264.414122 
L 181.971386 265.107028 
L 182.403501 267.784271 
L 183.26416 270.469333 
L 183.478432 270.312039 
L 183.910547 269.13552 
L 184.124819 269.278706 
L 184.556935 270.599164 
L 184.771207 270.697573 
L 184.985479 270.453427 
L 185.203322 270.711366 
L 185.631866 272.455391 
L 186.063981 272.978009 
L 186.492525 272.511274 
L 186.92464 273.624818 
L 187.138912 273.001328 
L 187.785299 268.172615 
L 188.217415 263.371928 
L 188.431687 262.718115 
L 188.645959 264.213723 
L 189.078074 269.015422 
L 189.938733 274.700832 
L 190.153005 275.292052 
L 190.370848 274.938919 
L 190.58512 274.104126 
L 190.799392 272.626777 
L 191.445779 266.38424 
L 191.660051 265.008786 
L 191.877895 265.198939 
L 192.092167 266.250206 
L 192.306439 266.139567 
L 192.738554 263.404609 
L 192.952826 263.28138 
L 193.384941 264.941832 
L 193.813485 268.388584 
L 194.027757 268.800986 
L 194.459872 265.437333 
L 194.674144 265.481989 
L 194.891987 266.015538 
L 195.106259 265.477386 
L 195.538375 262.429997 
L 195.752647 262.268957 
L 196.181191 266.432031 
L 196.613306 270.487474 
L 196.827578 271.397741 
L 197.259693 271.538499 
L 197.688237 271.130841 
L 197.90608 270.800161 
L 198.334624 269.747109 
L 198.552467 270.471084 
L 198.981011 273.438901 
L 199.195283 273.143377 
L 199.627399 271.074441 
L 199.841671 270.933092 
L 200.059514 270.594103 
L 200.920173 265.52921 
L 201.134445 265.020742 
L 201.348717 264.051008 
L 201.56656 264.050242 
L 201.780832 266.119229 
L 202.209376 272.628579 
L 202.427219 273.825625 
L 202.641491 273.060974 
L 203.287879 269.171901 
L 203.502151 269.348876 
L 203.934266 270.581057 
L 204.36281 272.601897 
L 204.580653 272.367792 
L 205.22704 270.176741 
L 205.441312 269.523912 
L 205.655584 269.243606 
L 205.869856 268.116873 
L 206.087699 267.681738 
L 206.301971 269.752374 
L 206.734087 275.673393 
L 206.948359 276.228365 
L 207.594746 271.814228 
L 207.809018 271.199067 
L 208.669677 267.411819 
L 209.530336 265.341816 
L 209.962451 263.547495 
L 210.176723 263.264721 
L 210.394567 263.439108 
L 210.608839 264.244694 
L 211.037383 267.302629 
L 211.255226 267.723985 
L 211.469498 267.750557 
L 211.68377 268.008647 
L 212.115885 267.045491 
L 212.330157 267.469929 
L 212.544429 268.455376 
L 212.762272 268.379137 
L 212.976544 267.297727 
L 213.190816 266.974438 
L 213.837203 269.718268 
L 214.051475 269.424001 
L 214.269319 268.547857 
L 214.483591 268.82939 
L 214.697863 269.581081 
L 215.129978 270.194436 
L 215.34425 270.798473 
L 215.558522 271.759843 
L 215.776365 272.191631 
L 215.990637 272.085145 
L 216.204909 271.678956 
L 216.422752 272.251361 
L 216.637024 273.186065 
L 216.851296 273.030777 
L 217.283411 271.925125 
L 217.711955 272.066411 
L 217.929799 271.208839 
L 218.358343 268.917134 
L 218.576186 269.149068 
L 218.790458 270.035024 
L 219.00473 270.140513 
L 219.436845 267.526509 
L 219.651117 267.511701 
L 220.297504 272.0014 
L 220.726048 274.472433 
L 220.943891 274.478245 
L 221.372435 270.682154 
L 221.590279 270.670964 
L 222.018823 273.7229 
L 222.233095 274.081062 
L 222.879482 272.183589 
L 223.311597 268.599218 
L 223.525869 268.310864 
L 224.386528 271.220577 
L 224.604371 271.278652 
L 224.818643 270.464504 
L 225.247187 267.196005 
L 225.679303 267.492645 
L 225.893575 267.607197 
L 226.539962 272.559851 
L 226.757805 272.086916 
L 227.400621 269.64872 
L 227.832736 268.770646 
L 228.047008 267.379739 
L 228.264851 266.734765 
L 228.479123 267.783119 
L 228.693395 268.24136 
L 228.907667 267.418748 
L 229.125511 267.352731 
L 229.771898 272.804777 
L 229.98617 271.578729 
L 230.632557 264.581081 
L 230.846829 264.046774 
L 231.493216 261.068392 
L 231.707488 262.442861 
L 232.139603 265.813613 
L 232.785991 266.812867 
L 233.214535 265.797524 
L 233.64665 263.90766 
L 233.860922 262.580874 
L 234.075194 261.961098 
L 234.721581 264.761371 
L 235.58224 268.817569 
L 235.800083 268.767727 
L 236.014355 267.667569 
L 236.228627 267.244335 
L 236.446471 268.178784 
L 236.660743 268.547265 
L 236.875015 268.147347 
L 237.089287 267.353011 
L 237.521402 263.9838 
L 237.953517 264.222691 
L 238.382061 262.209783 
L 238.596333 262.311852 
L 238.814176 263.63641 
L 239.460563 270.969757 
L 239.889107 271.700375 
L 240.103379 271.681377 
L 240.321223 272.156389 
L 240.749767 274.299356 
L 240.96761 274.572432 
L 241.181882 273.374248 
L 241.613997 270.341271 
L 241.828269 270.126077 
L 242.042541 270.304337 
L 242.256813 271.286271 
L 242.474656 271.622068 
L 242.9032 269.209379 
L 243.121043 268.117597 
L 243.335315 267.81734 
L 243.549587 267.926615 
L 243.981703 269.386574 
L 244.195975 268.57238 
L 244.62809 265.762853 
L 244.842362 265.668614 
L 245.270906 266.137612 
L 245.488749 265.881642 
L 245.917293 263.890701 
L 246.135136 264.078582 
L 246.349408 264.620907 
L 246.777952 264.208465 
L 246.995795 264.576143 
L 247.210067 264.539754 
L 247.424339 264.728541 
L 247.642183 265.75856 
L 248.070727 271.786449 
L 248.28857 274.768083 
L 248.502842 275.28005 
L 248.717114 273.57598 
L 249.149229 268.518198 
L 249.363501 268.542388 
L 250.009888 272.527069 
L 250.438432 275.826881 
L 250.656275 275.993143 
L 250.870547 275.440496 
L 251.731207 271.13177 
L 251.945479 271.221641 
L 252.377594 272.082486 
L 252.591866 271.432766 
L 253.452525 265.917194 
L 253.670368 265.801139 
L 253.88464 266.510836 
L 254.098912 266.646497 
L 254.531027 265.58015 
L 254.745299 264.574223 
L 254.959571 264.337597 
L 255.391687 265.219907 
L 255.823802 267.604318 
L 256.470189 271.751103 
L 256.684461 272.171825 
L 256.898733 271.65708 
L 257.330848 273.762862 
L 257.54512 273.210036 
L 257.977235 267.514457 
L 258.191507 267.217789 
L 258.405779 267.938558 
L 258.620051 267.576831 
L 258.837895 267.649863 
L 259.266439 269.742697 
L 259.484282 269.728611 
L 259.698554 268.796439 
L 260.127098 265.618455 
L 260.344941 265.785489 
L 260.773485 269.819497 
L 260.991328 270.739663 
L 261.2056 271.138939 
L 261.419872 271.271764 
L 262.066259 272.957386 
L 262.280531 272.995691 
L 262.498375 272.716193 
L 262.926919 271.611687 
L 263.359034 269.366881 
L 263.573306 269.504719 
L 263.787578 269.382954 
L 264.433965 265.496195 
L 264.86608 265.346509 
L 265.080352 264.938759 
L 265.726739 260.016973 
L 265.941011 260.35188 
L 266.373127 262.537722 
L 266.801671 263.508577 
L 267.233786 263.57752 
L 267.665901 265.804914 
L 267.880173 265.827178 
L 268.094445 265.57565 
L 268.308717 265.75796 
L 268.740832 266.872699 
L 268.955104 268.030343 
L 269.172947 267.961401 
L 269.601491 264.5644 
L 269.815763 263.954456 
L 270.033607 264.387282 
L 270.462151 266.316244 
L 270.679994 266.122002 
L 271.108538 264.553964 
L 271.326381 264.55513 
L 271.540653 264.752832 
L 271.754925 264.087608 
L 271.969197 263.006746 
L 272.18704 262.628729 
L 272.401312 262.948517 
L 273.047699 266.006856 
L 273.261971 265.504603 
L 273.476243 265.435861 
L 273.694087 266.705685 
L 273.908359 266.816436 
L 274.340474 264.319468 
L 274.769018 263.751664 
L 274.98329 264.102147 
L 275.629677 268.46024 
L 276.061792 268.336652 
L 276.708179 265.462647 
L 276.922451 265.460166 
L 277.568839 262.108265 
L 278.000954 265.772763 
L 278.861613 272.774843 
L 279.290157 272.159386 
L 279.722272 273.325392 
L 280.150816 272.877271 
L 280.368659 272.966956 
L 280.582931 273.305672 
L 280.797203 273.934953 
L 281.015047 273.851012 
L 281.443591 271.267649 
L 281.657863 270.852183 
L 282.522093 266.525383 
L 282.950637 267.885413 
L 283.164909 268.133636 
L 283.382752 268.197782 
L 283.597024 267.591844 
L 284.029139 264.79533 
L 284.243411 264.345337 
L 284.457683 264.649552 
L 284.671955 265.520567 
L 285.318343 269.287743 
L 285.96473 273.223798 
L 286.182573 273.519305 
L 286.396845 273.469774 
L 286.611117 273.545213 
L 287.043232 275.617523 
L 287.257504 275.702825 
L 287.471776 275.514366 
L 287.689619 274.885866 
L 288.118163 270.88995 
L 288.550279 267.820676 
L 288.764551 267.299202 
L 289.196666 264.390865 
L 289.410938 264.219521 
L 289.62521 264.735197 
L 289.839482 264.835745 
L 290.485869 262.555371 
L 290.703712 262.665748 
L 290.917984 263.505542 
L 291.132256 264.81678 
L 291.346528 267.025031 
L 291.778643 272.801734 
L 291.992915 272.716021 
L 292.425031 270.401378 
L 292.639303 270.119068 
L 293.071418 272.783775 
L 293.932077 268.449035 
L 294.146349 267.995233 
L 294.364192 267.943658 
L 294.578464 267.730521 
L 294.792736 267.841696 
L 295.007008 268.40322 
L 295.439123 269.790884 
L 295.653395 269.277858 
L 296.299783 264.907019 
L 296.731898 265.516461 
L 296.94617 266.100913 
L 297.160442 267.062295 
L 297.378285 267.278264 
L 297.592557 266.337764 
L 298.021101 262.968186 
L 298.238944 262.931798 
L 298.885331 265.28934 
L 299.313875 267.157917 
L 299.528147 267.821956 
L 299.960263 269.78082 
L 300.174535 268.625084 
L 300.60665 265.541495 
L 300.820922 265.367056 
L 301.253037 265.827509 
L 301.467309 265.799338 
L 301.681581 266.053392 
L 302.113696 267.995203 
L 302.327968 268.123227 
L 302.545811 268.437396 
L 302.760083 269.014065 
L 302.974355 269.014743 
L 303.835015 265.703332 
L 304.052858 265.195706 
L 304.26713 264.364832 
L 304.481402 264.088866 
L 304.695674 264.448277 
L 304.913517 264.39131 
L 305.342061 263.200258 
L 305.559904 263.812321 
L 306.20272 268.238007 
L 306.420563 267.632126 
L 306.634835 266.701183 
L 307.066951 266.703561 
L 307.470469 265.57092 
L 307.470469 265.57092 
" style="fill:none;stroke:#800080;stroke-linecap:square;stroke-width:1.5;"/>
   </g>
   <g id="patch_3">
    <path d="M 20.878125 268.128 
L 20.878125 7.2 
" style="fill:none;stroke:#000000;stroke-linecap:square;stroke-linejoin:miter;stroke-width:0.8;"/>
   </g>
   <g id="patch_4">
    <path d="M 288.718125 268.128 
L 288.718125 7.2 
" style="fill:none;stroke:#000000;stroke-linecap:square;stroke-linejoin:miter;stroke-width:0.8;"/>
   </g>
   <g id="patch_5">
    <path d="M 20.878125 268.128 
L 288.718125 268.128 
" style="fill:none;stroke:#000000;stroke-linecap:square;stroke-linejoin:miter;stroke-width:0.8;"/>
   </g>
   <g id="patch_6">
    <path d="M 20.878125 7.2 
L 288.718125 7.2 
" style="fill:none;stroke:#000000;stroke-linecap:square;stroke-linejoin:miter;stroke-width:0.8;"/>
   </g>
  </g>
 </g>
 <defs>
  <clipPath id="p5e375c99f0">
   <rect height="260.928" width="267.84" x="20.878125" y="7.2"/>
  </clipPath>
 </defs>
</svg>
